<svg width="30" height="362" viewBox="0 0 30 362" fill="none" xmlns="http://www.w3.org/2000/svg">
<path d="M15 362L29.641 337.121L0.774506 336.881L15 362ZM15.5001 0.979225L15.4584 5.99311L20.4582 6.03466L20.4999 1.02077L15.5001 0.979225ZM15.3751 16.0209L15.2918 26.0487L20.2916 26.0902L20.3749 16.0624L15.3751 16.0209ZM15.2084 36.0764L15.1251 46.1042L20.1249 46.1458L20.2082 36.118L15.2084 36.0764ZM15.0418 56.132L14.9584 66.1598L19.9583 66.2013L20.0416 56.1736L15.0418 56.132ZM14.8751 76.1876L14.7918 86.2153L19.7916 86.2569L19.8749 76.2291L14.8751 76.1876ZM14.7084 96.2431L14.6251 106.271L19.6249 106.312L19.7083 96.2847L14.7084 96.2431ZM14.5418 116.299L14.4584 126.326L19.4583 126.368L19.5416 116.34L14.5418 116.299ZM14.3751 136.354L14.2918 146.382L19.2916 146.424L19.3749 136.396L14.3751 136.354ZM14.2084 156.41L14.1251 166.438L19.1249 166.479L19.2083 156.451L14.2084 156.41ZM14.0418 176.465L13.9584 186.493L18.9583 186.535L19.0416 176.507L14.0418 176.465ZM13.8751 196.521L13.7918 206.549L18.7916 206.59L18.8749 196.562L13.8751 196.521ZM13.7084 216.576L13.6251 226.604L18.6249 226.646L18.7083 216.618L13.7084 216.576ZM13.5418 236.632L13.4584 246.66L18.4583 246.701L18.5416 236.674L13.5418 236.632ZM13.3751 256.688L13.2918 266.715L18.2916 266.757L18.3749 256.729L13.3751 256.688ZM13.2084 276.743L13.1251 286.771L18.1249 286.812L18.2083 276.785L13.2084 276.743ZM13.0418 296.799L12.9584 306.826L17.9583 306.868L18.0416 296.84L13.0418 296.799ZM12.8751 316.854L12.7918 326.882L17.7916 326.924L17.8749 316.896L12.8751 316.854ZM12.7084 336.91L12.6251 346.938L17.6249 346.979L17.7083 336.951L12.7084 336.91Z" fill="#CCCCCC"/>
</svg>
