<svg width="613" height="539" viewBox="0 0 613 539" fill="none" xmlns="http://www.w3.org/2000/svg">
<g opacity="0.69">
<path d="M330.513 114.004C339.686 116.262 362.814 122.19 369.575 132.256C378.383 145.348 392.879 208.396 392.879 208.396L367.6 200.944C367.6 200.944 351.392 171.579 350.297 171.579C349.203 171.579 339.201 235.804 339.201 235.804H273.144L267.658 203.344C267.658 203.344 253.626 191.943 254.506 184.929C255.386 177.915 255.648 175.872 255.648 175.872C255.648 175.872 248.14 178.632 227.536 199.017L203.43 188.449C203.43 188.449 240.697 135.759 251.437 129.44C262.177 123.121 274.891 121.812 274.891 121.812L330.513 114.004Z" fill="#F7F3EF" stroke="#070707" stroke-width="2" stroke-linecap="round" stroke-linejoin="round"/>
<path d="M298.706 70.4225C298.706 70.4225 306.96 103.689 334.334 115.266C334.334 115.266 314.339 129.114 272.277 123.976C272.277 123.976 287.198 106.999 284.378 88.1505L298.706 70.4225Z" fill="#D8EFF2" stroke="#070707" stroke-width="2" stroke-linecap="round" stroke-linejoin="round"/>
<path d="M280.441 117.872C279.298 117.911 278.162 117.681 277.123 117.202C281.201 110.532 286.137 99.693 284.42 88.1505L298.246 71.0191C298.809 71.7918 299.105 72.264 299.105 72.264C301.019 78.2649 302.17 116.927 280.441 117.872Z" fill="black"/>
<path d="M298.706 70.4225C300.65 76.432 297.972 105.05 282.094 106.999C270.156 108.463 256.944 84.489 255.231 79.0977C253.519 73.7063 255.613 60.8331 268.384 56.9699C285.502 51.7759 298.706 70.4225 298.706 70.4225Z" fill="#D8EFF2" stroke="#070707" stroke-width="2" stroke-linecap="round" stroke-linejoin="round"/>
<path d="M261.782 64.0868C261.782 64.0868 273.573 74.0883 298.697 70.4225C298.697 70.4225 306.033 104.234 334.325 115.266C334.325 115.266 352.594 94.5635 340.308 80.3253C332.509 71.3111 314.983 79.2264 314.983 79.2264C314.983 79.2264 330.573 39.9673 291.872 39.7827C253.171 39.5981 244.861 80.6902 256.485 82.214C256.532 82.214 250.823 70.4225 261.782 64.0868Z" fill="black"/>
<path d="M342.176 76.8226C328.788 66.6322 314.275 79.3981 314.275 79.3981" stroke="#070707" stroke-width="2" stroke-linecap="round" stroke-linejoin="round"/>
<path d="M261.413 63.7219C261.413 63.7219 268.002 78.5182 293.134 74.8524" stroke="#070707" stroke-width="2" stroke-linecap="round" stroke-linejoin="round"/>
<path d="M251.746 73.8522C251.746 73.8522 247.904 59.4166 251.939 52.6301C255.974 45.8437 274.312 32.2708 287.335 31.3565C300.358 30.4422 328.788 46.2128 328.788 46.2128C328.788 46.2128 304.986 47.4105 300.655 76.7969C300.655 76.7969 289.79 52.2953 270.423 56.459C251.055 60.6227 251.746 73.8522 251.746 73.8522Z" fill="#2D3F6B" stroke="black" stroke-width="2" stroke-linecap="round" stroke-linejoin="round"/>
<path d="M323.117 109.767C323.117 109.767 314.781 132.887 313.923 149.816C313.923 149.816 284.704 153.954 277.952 150.246C273.749 147.932 279.106 115.944 279.106 115.944L269.015 122.847C269.015 122.847 256.79 166.793 255.648 175.872C254.506 184.951 250.999 190.428 267.667 203.344L273.144 235.795L255.279 327.139C255.279 327.139 323.783 332.028 348.112 325.671C372.442 319.314 339.21 235.795 339.21 235.795L344.146 204.923C344.146 204.923 316.331 179.023 330.522 114.004L323.117 109.767Z" fill="#2D3F6B" stroke="black" stroke-width="2" stroke-linecap="round" stroke-linejoin="round"/>
<path d="M367.763 215.646C365.845 214.861 360.08 197.188 373.962 193.372C392.171 188.393 395.802 197.807 395.317 205.593C394.39 220.6 384.856 222.66 367.763 215.646Z" fill="#F7F3EF" stroke="#070707" stroke-width="2" stroke-linecap="round" stroke-linejoin="round"/>
<path d="M299.376 232.64L299.178 232.537C299.003 232.445 298.847 232.32 298.72 232.168C298.593 232.016 298.498 231.84 298.439 231.651C298.38 231.463 298.359 231.264 298.376 231.067C298.394 230.869 298.451 230.678 298.543 230.503L310.017 205.645C310.203 205.29 310.522 205.024 310.905 204.905C311.287 204.786 311.701 204.823 312.056 205.009L314.657 206.37C314.833 206.462 314.989 206.588 315.116 206.74C315.243 206.892 315.34 207.068 315.399 207.257C315.458 207.446 315.48 207.646 315.462 207.843C315.445 208.041 315.388 208.233 315.296 208.409L301.41 232.018C301.222 232.37 300.903 232.633 300.522 232.75C300.14 232.866 299.728 232.827 299.376 232.64Z" fill="#F7F3EF" stroke="#070707" stroke-width="2" stroke-linecap="round" stroke-linejoin="round"/>
<path d="M300.338 232.622L298.619 231.722L277.705 271.676L279.424 272.576L300.338 232.622Z" fill="#F7F3EF" stroke="#070707" stroke-width="2" stroke-linecap="round" stroke-linejoin="round"/>
<path d="M281.248 282.858C278.544 288.035 271.981 292.988 268.59 291.216C265.199 289.443 265.533 281.227 268.242 276.05C270.951 270.873 275.35 270.204 278.677 271.947C282.004 273.689 283.957 277.686 281.248 282.858Z" fill="#F7F3EF" stroke="#070707" stroke-width="2" stroke-linecap="round" stroke-linejoin="round"/>
<path d="M382.603 219.561C366.446 229.202 333.342 243.397 314.605 247.557C312.317 252.669 304.694 260.589 302.797 260.983C300.612 261.438 299.792 260.365 297.646 259.571C293.967 258.219 295.731 255.566 293.302 255.09C290.872 254.613 290.327 250.952 290.327 250.952C290.327 250.952 288.039 251.252 286.665 255.017C284.948 259.739 282.446 258.635 282.446 258.635C282.446 258.635 283.734 251.008 284.815 249.57C286.594 247.24 288.608 245.1 290.825 243.183C292.19 242.032 303.951 239.821 309.789 239.882C324.409 227.326 349.319 208.928 365.759 202.108C377.563 197.244 397.124 210.882 382.603 219.561Z" fill="#D8EFF2" stroke="#070707" stroke-width="2" stroke-linecap="round" stroke-linejoin="round"/>
<path d="M197.399 211.877C195.48 211.096 189.784 192.007 203.597 187.955C217.41 183.903 227.378 193.381 227.927 201.163C228.185 204.812 214.491 218.87 197.399 211.877Z" fill="#F7F3EF" stroke="#070707" stroke-width="2" stroke-linecap="round" stroke-linejoin="round"/>
<path d="M211.263 226.12C209.07 225.261 186.882 211.581 200.42 200.919C218.118 186.985 224.428 212.045 224.428 212.045L211.263 226.12Z" fill="#D8EFF2" stroke="#070707" stroke-width="2" stroke-linecap="round" stroke-linejoin="round"/>
<path d="M232.795 216.367L232.589 216.453C232.407 216.531 232.211 216.572 232.013 216.574C231.815 216.576 231.619 216.539 231.435 216.464C231.252 216.39 231.085 216.28 230.944 216.142C230.803 216.003 230.691 215.837 230.614 215.655L218.681 191.012C218.603 190.83 218.562 190.634 218.56 190.436C218.558 190.238 218.596 190.042 218.67 189.858C218.744 189.675 218.854 189.508 218.993 189.367C219.132 189.226 219.297 189.114 219.479 189.037L222.184 187.887C222.552 187.731 222.967 187.727 223.338 187.877C223.709 188.027 224.006 188.317 224.163 188.685L233.606 214.389C233.683 214.572 233.724 214.768 233.725 214.967C233.726 215.166 233.688 215.363 233.612 215.547C233.537 215.731 233.426 215.898 233.286 216.039C233.145 216.18 232.978 216.291 232.795 216.367Z" fill="#F7F3EF" stroke="#070707" stroke-width="2" stroke-linecap="round" stroke-linejoin="round"/>
<path d="M233.375 215.614L231.589 216.371L249.203 257.886L250.989 257.129L233.375 215.614Z" fill="#F7F3EF" stroke="#070707" stroke-width="2" stroke-linecap="round" stroke-linejoin="round"/>
<path d="M260.099 262.237C262.378 267.615 262.048 275.831 258.528 277.325C255.008 278.819 248.866 273.35 246.586 267.972C244.307 262.593 246.586 258.769 250.02 257.301C253.553 255.807 257.816 256.863 260.099 262.237Z" fill="#F7F3EF" stroke="#070707" stroke-width="2" stroke-linecap="round" stroke-linejoin="round"/>
<path d="M222.849 212.135C224.021 211.375 226.948 210.04 231.043 213.732C235.138 217.423 246.29 229.863 244.719 231.434C241.714 234.439 235.752 224.343 234.563 225.48C234.224 225.807 234.37 226.592 234.254 227.421C234.138 228.249 233.76 229.112 232.365 229.597C230.502 230.254 232.365 232.64 229.764 234.074C227.163 235.508 228.425 236.22 226.549 238.448C224.403 240.968 212.414 233.512 210.517 229.502C208.619 225.493 217.857 215.384 222.849 212.135Z" fill="#D8EFF2" stroke="#070707" stroke-width="2" stroke-linecap="round" stroke-linejoin="round"/>
<path d="M261.666 85.5621C261.666 85.5621 265.662 87.7513 267.28 83.3729" stroke="#070707" stroke-width="2" stroke-linecap="round" stroke-linejoin="round"/>
<path d="M275.239 80.4455C275.239 80.4455 279.69 83.124 282.965 77.9386" stroke="#070707" stroke-width="2" stroke-linecap="round" stroke-linejoin="round"/>
<path d="M270.504 82.7419V89.7344L273.685 91.9236" stroke="#070707" stroke-width="2" stroke-linecap="round" stroke-linejoin="round"/>
<path d="M276.321 96.3105C276.321 96.3105 280.742 94.9197 281.364 91.6488" stroke="#070707" stroke-width="2" stroke-linecap="round" stroke-linejoin="round"/>
<path d="M276.479 157.873H313.279" stroke="#070707" stroke-width="2" stroke-linecap="round" stroke-linejoin="round"/>
<path d="M278.072 219.501H296.341" stroke="#070707" stroke-width="2" stroke-linecap="round" stroke-linejoin="round"/>
<path d="M316.233 82.7912C320.271 78.3406 322.18 73.4943 320.497 71.9665C318.813 70.4388 314.174 72.8082 310.136 77.2588C306.097 81.7094 304.189 86.5558 305.872 88.0835C307.556 89.6112 312.195 87.2418 316.233 82.7912Z" fill="#647CB8" stroke="#070707" stroke-width="2" stroke-linecap="round" stroke-linejoin="round"/>
<path d="M566.764 342.459H35.0439V538.729H566.764V342.459Z" fill="#F7F3EF"/>
<path d="M571.12 443.105L549.649 344.498L567.364 342.352L583.878 443.105" fill="#F7F3EF"/>
<path d="M571.12 443.105L549.649 344.498L567.364 342.352L583.878 443.105" stroke="#070707" stroke-width="2" stroke-linecap="round" stroke-linejoin="round"/>
<path d="M549.649 344.498L567.364 342.352L569.103 352.976L550.907 350.263L549.649 344.498Z" fill="black"/>
<path d="M31.7728 443.105L53.2439 344.498L35.5287 342.352L19.0112 443.105" fill="#F7F3EF"/>
<path d="M31.7728 443.105L53.2439 344.498L35.5287 342.352L19.0112 443.105" stroke="#070707" stroke-width="2" stroke-linecap="round" stroke-linejoin="round"/>
<path d="M35.5292 342.352L53.2443 344.498L50.6988 356.191L34.7952 346.842L35.5292 342.352Z" fill="#070707"/>
<path d="M301.26 342.464C467.082 342.464 601.507 332.562 601.507 320.349C601.507 308.135 467.082 298.234 301.26 298.234C135.438 298.234 1.01318 308.135 1.01318 320.349C1.01318 332.562 135.438 342.464 301.26 342.464Z" fill="#F7F3EF" stroke="#070707" stroke-width="2" stroke-linecap="round" stroke-linejoin="round"/>
<path d="M601.52 320.349V332.071C601.52 344.288 467.092 354.186 301.273 354.186C156.242 354.186 35.2326 346.614 7.16401 336.544C3.14624 335.123 1 333.608 1 332.071V320.349C1 321.881 3.1162 323.375 7.14256 324.817C8.45034 325.284 9.95986 325.749 11.6711 326.212C46.5605 335.578 162.99 342.459 301.251 342.459C439.512 342.459 555.938 335.591 590.827 326.212C597.789 324.345 601.52 322.375 601.52 320.349Z" fill="#F7F3EF" stroke="#070707" stroke-width="2" stroke-linecap="round" stroke-linejoin="round"/>
<path d="M421.772 340.541C413.079 396.399 317.82 429.558 248.007 422.999C162.342 414.934 116.369 373.601 97.2935 351.006C95.6259 349.038 94.5586 346.633 94.2184 344.076C93.8783 341.519 94.2796 338.918 95.3747 336.583C148.915 340.231 220.535 342.459 299.225 342.459C342.876 342.459 384.35 341.772 421.772 340.541Z" fill="#F7F3EF" stroke="#070707" stroke-width="2" stroke-linecap="round" stroke-linejoin="round"/>
<path d="M510.914 304.183L509.914 304.591L421.785 340.468V340.541C384.363 341.773 342.889 342.459 299.238 342.459C220.548 342.459 148.928 340.232 95.3879 336.583C96.83 333.448 99.423 330.989 102.629 329.715L176.267 300.217C176.267 300.217 178.143 300.127 181.689 299.977C211.762 298.719 361.883 293.263 510.914 304.183Z" fill="#F7F3EF" stroke="#070707" stroke-width="2" stroke-linecap="round" stroke-linejoin="round"/>
<path d="M156.818 327.642C159.968 330.337 163.553 331.853 167.296 330.694L170.674 329.646C173.043 328.916 174.683 327.5 176.087 325.663C177.435 323.916 177.726 320.705 177.018 318.365C175.58 313.601 169.966 311.068 165.214 312.549L162.587 313.36C159.123 314.434 157.371 316.026 156.298 318.082C155.745 319.13 155.414 320.709 154.693 321.671C154.04 322.529 153.015 323.122 153.367 324.761C153.719 326.401 154.817 325.942 156.818 327.642Z" fill="#F7F3EF" stroke="#070707" stroke-width="2" stroke-linecap="round" stroke-linejoin="round"/>
<path d="M210.692 304.921C210.81 304.921 210.926 304.945 211.033 304.991C211.141 305.038 211.238 305.106 211.318 305.191C211.399 305.276 211.461 305.377 211.501 305.487C211.541 305.597 211.558 305.714 211.551 305.831C211.122 313.03 205.417 318.709 198.463 318.709C191.509 318.709 185.822 313.017 185.375 305.831C185.368 305.714 185.385 305.597 185.425 305.487C185.465 305.377 185.527 305.276 185.608 305.191C185.688 305.106 185.785 305.038 185.893 304.991C186.001 304.945 186.117 304.921 186.234 304.921H210.692Z" fill="#F7F3EF" stroke="#070707" stroke-width="2" stroke-linecap="round" stroke-linejoin="round"/>
<path d="M210.877 304.921C210.877 311.789 205.297 315.524 198.455 315.524C191.612 315.524 186.032 311.781 186.032 304.921H210.877Z" fill="#F7F3EF" stroke="#070707" stroke-width="2" stroke-linecap="round" stroke-linejoin="round"/>
<path d="M200.811 312.438C200.829 312.495 200.835 312.556 200.828 312.616C200.821 312.675 200.801 312.733 200.771 312.785C200.74 312.837 200.698 312.882 200.649 312.916C200.6 312.951 200.544 312.975 200.485 312.987C199.137 313.17 197.771 313.17 196.424 312.987C196.365 312.975 196.31 312.95 196.261 312.915C196.212 312.88 196.172 312.836 196.141 312.784C196.111 312.732 196.092 312.674 196.085 312.615C196.078 312.555 196.084 312.495 196.102 312.438L198.077 307.158C198.105 307.079 198.156 307.012 198.224 306.964C198.292 306.916 198.373 306.89 198.457 306.89C198.54 306.89 198.621 306.916 198.689 306.964C198.757 307.012 198.808 307.079 198.836 307.158L200.811 312.438Z" fill="#F7F3EF" stroke="#070707" stroke-width="2" stroke-linecap="round" stroke-linejoin="round"/>
<path d="M208.559 305.175C208.495 306.196 208.243 307.197 207.817 308.128C207.788 308.186 207.738 308.23 207.677 308.251C207.615 308.272 207.549 308.268 207.49 308.239L201.859 305.372C201.821 305.344 201.793 305.305 201.777 305.26C201.761 305.216 201.759 305.168 201.77 305.122C201.782 305.076 201.806 305.035 201.841 305.003C201.876 304.971 201.919 304.95 201.966 304.943H208.327C208.388 304.945 208.446 304.97 208.489 305.013C208.532 305.056 208.557 305.114 208.559 305.175Z" fill="#F7F3EF" stroke="#070707" stroke-width="2" stroke-linecap="round" stroke-linejoin="round"/>
<path d="M194.815 305.505L189.475 308.227C189.438 308.248 189.396 308.262 189.354 308.266C189.311 308.27 189.268 308.265 189.227 308.251C189.186 308.238 189.149 308.215 189.118 308.186C189.087 308.156 189.062 308.12 189.046 308.081C188.643 307.189 188.403 306.232 188.337 305.256C188.334 305.215 188.34 305.174 188.354 305.135C188.368 305.096 188.389 305.061 188.418 305.031C188.446 305.001 188.48 304.978 188.518 304.962C188.556 304.946 188.597 304.938 188.638 304.939H194.647C194.717 304.931 194.787 304.949 194.846 304.988C194.904 305.027 194.947 305.085 194.967 305.152C194.986 305.22 194.982 305.292 194.954 305.356C194.927 305.421 194.877 305.473 194.815 305.505Z" fill="#F7F3EF" stroke="#070707" stroke-width="2" stroke-linecap="round" stroke-linejoin="round"/>
<path d="M206.61 309.939C205.562 311.097 204.231 311.962 202.747 312.45C202.651 312.484 202.545 312.479 202.452 312.437C202.36 312.395 202.287 312.318 202.249 312.223L200.103 306.767C200.072 306.693 200.065 306.611 200.083 306.532C200.101 306.454 200.142 306.382 200.202 306.328C200.262 306.274 200.336 306.24 200.416 306.23C200.496 306.22 200.577 306.236 200.648 306.274L206.516 309.334C206.567 309.364 206.61 309.404 206.643 309.453C206.676 309.501 206.698 309.556 206.707 309.614C206.716 309.672 206.712 309.731 206.695 309.788C206.679 309.844 206.65 309.896 206.61 309.939Z" fill="#F7F3EF" stroke="#070707" stroke-width="2" stroke-linecap="round" stroke-linejoin="round"/>
<path d="M196.549 306.836L194.471 312.124C194.428 312.226 194.348 312.308 194.246 312.352C194.145 312.396 194.03 312.399 193.926 312.36C192.504 311.859 191.233 311.006 190.23 309.879C190.191 309.83 190.162 309.773 190.147 309.712C190.132 309.651 190.13 309.587 190.143 309.525C190.155 309.463 190.181 309.405 190.218 309.354C190.255 309.303 190.304 309.261 190.359 309.231L195.961 306.308C196.037 306.272 196.122 306.26 196.206 306.272C196.289 306.284 196.367 306.321 196.43 306.377C196.492 306.433 196.537 306.507 196.558 306.589C196.58 306.67 196.576 306.756 196.549 306.836Z" fill="#F7F3EF" stroke="#070707" stroke-width="2" stroke-linecap="round" stroke-linejoin="round"/>
<path d="M550.739 237.607C547.305 250.578 536.828 286.743 526.993 285.974C515.013 285.039 529.835 230.816 529.835 230.816C529.835 230.816 541.764 183.105 553.77 183.517C565.776 183.929 550.739 237.607 550.739 237.607Z" fill="#F7F3EF" stroke="#070707" stroke-width="2" stroke-linecap="round" stroke-linejoin="round"/>
<path d="M536.604 261.735C536.638 260.952 534.735 260.232 532.352 260.128C529.969 260.024 528.01 260.575 527.976 261.359C527.942 262.143 529.845 262.863 532.228 262.967C534.611 263.071 536.57 262.519 536.604 261.735Z" fill="#F7F3EF" stroke="#070707" stroke-width="2" stroke-linecap="round" stroke-linejoin="round"/>
<path d="M549.443 203.207C551.828 203.207 553.761 202.57 553.761 201.786C553.761 201.001 551.828 200.365 549.443 200.365C547.058 200.365 545.125 201.001 545.125 201.786C545.125 202.57 547.058 203.207 549.443 203.207Z" fill="#F7F3EF" stroke="#070707" stroke-width="2" stroke-linecap="round" stroke-linejoin="round"/>
<path d="M546.387 215.784C549.568 215.784 552.148 214.934 552.148 213.886C552.148 212.838 549.568 211.989 546.387 211.989C543.206 211.989 540.626 212.838 540.626 213.886C540.626 214.934 543.206 215.784 546.387 215.784Z" fill="#F7F3EF" stroke="#070707" stroke-width="2" stroke-linecap="round" stroke-linejoin="round"/>
<path d="M541.446 228.464C545.017 228.464 547.911 227.51 547.911 226.335C547.911 225.159 545.017 224.205 541.446 224.205C537.876 224.205 534.982 225.159 534.982 226.335C534.982 227.51 537.876 228.464 541.446 228.464Z" fill="#F7F3EF" stroke="#070707" stroke-width="2" stroke-linecap="round" stroke-linejoin="round"/>
<path d="M541.404 250.536C541.45 249.489 538.91 248.528 535.732 248.389C532.554 248.25 529.94 248.987 529.894 250.033C529.849 251.08 532.388 252.041 535.567 252.18C538.745 252.319 541.359 251.583 541.404 250.536Z" fill="#F7F3EF" stroke="#070707" stroke-width="2" stroke-linecap="round" stroke-linejoin="round"/>
<path d="M543.908 240.73C543.96 239.555 541.11 238.477 537.543 238.321C533.976 238.165 531.043 238.991 530.992 240.166C530.94 241.341 533.79 242.419 537.357 242.575C540.924 242.731 543.857 241.905 543.908 240.73Z" fill="#F7F3EF" stroke="#070707" stroke-width="2" stroke-linecap="round" stroke-linejoin="round"/>
<path d="M486.481 226.12C486.481 226.12 488.881 222.935 485.223 219.621L486.477 219.166C487.437 219.766 488.257 220.564 488.882 221.508C489.508 222.451 489.925 223.517 490.104 224.635L486.481 226.12Z" fill="#F7F3EF" stroke="#070707" stroke-width="2" stroke-linecap="round" stroke-linejoin="round"/>
<path d="M491.241 253.613C489.758 254.153 488.127 254.127 486.662 253.538C485.198 252.949 484.002 251.84 483.305 250.424L476.037 237.302C474.359 233.868 476.711 229.515 480.287 228.215L480.386 228.176C481.175 227.888 482.014 227.758 482.854 227.794C483.694 227.83 484.519 228.031 485.281 228.386C486.043 228.741 486.728 229.242 487.296 229.862C487.864 230.481 488.305 231.206 488.593 231.996L495.066 245.41C495.645 247.005 495.568 248.765 494.851 250.303C494.134 251.841 492.836 253.032 491.241 253.613Z" fill="#2D3F6B" stroke="black" stroke-width="2" stroke-linecap="round" stroke-linejoin="round"/>
<path d="M503.814 249.029C505.298 248.488 506.529 247.418 507.272 246.024C508.014 244.631 508.215 243.011 507.836 241.478L505.089 226.708C504.174 223.016 499.423 221.235 495.851 222.54L495.748 222.574C494.958 222.862 494.233 223.303 493.614 223.871C492.994 224.44 492.493 225.124 492.138 225.886C491.783 226.649 491.582 227.473 491.546 228.313C491.51 229.153 491.64 229.992 491.928 230.781L495.611 245.209C496.192 246.803 497.383 248.101 498.921 248.817C500.46 249.533 502.219 249.61 503.814 249.029Z" fill="#2D3F6B" stroke="black" stroke-width="2" stroke-linecap="round" stroke-linejoin="round"/>
<path d="M497.959 252.149C497.291 252.394 496.582 252.504 495.872 252.473C495.162 252.443 494.464 252.273 493.82 251.973C493.176 251.672 492.597 251.248 492.117 250.724C491.637 250.199 491.265 249.586 491.022 248.917L484.798 231.855C484.307 230.506 484.372 229.018 484.978 227.717C485.584 226.416 486.682 225.409 488.03 224.918C488.698 224.674 489.407 224.564 490.117 224.595C490.826 224.625 491.523 224.795 492.167 225.095C492.812 225.394 493.39 225.818 493.871 226.342C494.351 226.865 494.724 227.478 494.967 228.146L501.191 245.209C501.682 246.558 501.617 248.046 501.011 249.348C500.405 250.649 499.307 251.657 497.959 252.149Z" fill="#2D3F6B" stroke="black" stroke-width="2" stroke-linecap="round" stroke-linejoin="round"/>
<path d="M468.998 238.328C468.998 238.328 459.34 220.145 430.932 235.018L468.998 238.328Z" fill="#F7F3EF"/>
<path d="M468.998 238.328C468.998 238.328 459.34 220.145 430.932 235.018" stroke="#070707" stroke-width="2" stroke-linecap="round" stroke-linejoin="round"/>
<path d="M443.629 230.06C443.629 230.06 437.77 231.601 437.77 233.112C437.77 234.623 440.697 233.808 440.697 233.808C440.697 233.808 436.452 235.907 436.598 237.302C436.744 238.697 439.749 237.302 439.749 237.302C439.749 237.302 437.71 241.556 439.319 242.023C440.929 242.491 440.998 239.195 440.998 239.195C440.998 239.195 443.045 240.809 443.633 240.233C444.221 239.658 442.243 235.662 442.243 235.662C442.243 235.662 444.144 238.164 445.316 237.28C446.488 236.396 443.127 232.503 443.629 230.06Z" fill="#F7F3EF" stroke="#070707" stroke-width="2" stroke-linecap="round" stroke-linejoin="round"/>
<path d="M433.482 233.748C433.482 233.748 428.116 232.297 427.313 233.748C426.511 235.198 429.082 234.572 429.082 234.572C429.082 234.572 424.175 236.795 424.575 238.328C424.974 239.86 427.554 238.328 427.554 238.328C427.554 238.328 427.124 241.981 429.017 241.277C430.91 240.573 430.563 235.61 433.482 233.748Z" fill="#F7F3EF" stroke="#070707" stroke-width="2" stroke-linecap="round" stroke-linejoin="round"/>
<path d="M463.018 219.376C463.018 219.376 467.311 217.337 467.161 216.024C467.01 214.71 465.572 216.487 465.572 216.487C465.572 216.487 467.783 212.483 466.766 211.766C465.748 211.049 464.765 213.384 464.765 213.384C464.765 213.384 463.289 210.933 462.344 212.397C461.4 213.86 464.07 216.651 463.018 219.376Z" fill="#F7F3EF" stroke="#070707" stroke-width="2" stroke-linecap="round" stroke-linejoin="round"/>
<path d="M470.599 238.328C470.599 238.328 465.877 220.591 445.17 221.668" stroke="#070707" stroke-width="2" stroke-linecap="round" stroke-linejoin="round"/>
<path d="M446.286 221.428C446.286 221.428 443.955 227.48 441.629 226.287C439.302 225.094 442.612 224.016 442.612 224.016C442.612 224.016 435.804 225.733 436.07 223.3C436.336 220.866 441.174 221.827 441.174 221.827C441.174 221.827 438.598 220.385 441.174 219.758C443.749 219.132 446.286 221.428 446.286 221.428Z" fill="#F7F3EF" stroke="#070707" stroke-width="2" stroke-linecap="round" stroke-linejoin="round"/>
<path d="M457.876 223.819C457.876 223.819 457.155 217.904 454.699 217.904C452.244 217.904 455.197 221.621 455.197 221.621C455.197 221.621 452.24 219.162 451.703 220.861C451.166 222.561 454.708 223.385 454.708 223.385C454.708 223.385 452.428 226.253 454.133 226.111C455.837 225.97 457.876 223.819 457.876 223.819Z" fill="#F7F3EF" stroke="#070707" stroke-width="2" stroke-linecap="round" stroke-linejoin="round"/>
<path d="M457.519 230.034C457.519 230.034 451.841 228.236 450.819 230.464C449.797 232.692 454.407 231.55 454.407 231.55C454.407 231.55 450.943 233.22 452.261 234.417C453.579 235.615 455.798 232.739 455.798 232.739C455.798 232.739 457.464 236.001 458.039 234.391C458.614 232.782 457.519 230.034 457.519 230.034Z" fill="#F7F3EF" stroke="#070707" stroke-width="2" stroke-linecap="round" stroke-linejoin="round"/>
<path d="M461.756 224.223C461.756 224.223 466.478 221.535 465.619 220.226C464.761 218.917 461.872 222.287 461.872 222.287C461.872 222.287 460.872 218.548 459.679 219.14C458.485 219.733 461.756 224.223 461.756 224.223Z" fill="#F7F3EF" stroke="#070707" stroke-width="2" stroke-linecap="round" stroke-linejoin="round"/>
<path d="M465.727 238.113C465.727 238.113 458.065 223.244 464.139 217.694" stroke="#070707" stroke-width="2" stroke-linecap="round" stroke-linejoin="round"/>
<path d="M503.466 197.266C503.466 197.266 510 208.752 507.682 255.189L512.292 255.335C512.292 255.335 513.816 211.641 503.466 197.266Z" fill="#F7F3EF" stroke="#070707" stroke-width="2" stroke-linecap="round" stroke-linejoin="round"/>
<path d="M507.682 255.189C507.682 255.189 516.516 195.48 510.257 180.744C510.257 180.744 519.971 195.514 512.275 255.335L507.682 255.189Z" fill="#F7F3EF" stroke="#070707" stroke-width="2" stroke-linecap="round" stroke-linejoin="round"/>
<path d="M507.682 255.189C510.339 233.748 529.342 205.825 529.342 205.825C529.342 205.825 514.155 239.585 512.292 255.322L507.682 255.189Z" fill="#F7F3EF" stroke="#070707" stroke-width="2" stroke-linecap="round" stroke-linejoin="round"/>
<path d="M505.698 272.196C505.698 272.196 507.106 264.01 507.682 255.189C507.682 255.189 510.133 253.175 512.292 255.335C511.843 261.439 511.915 267.571 512.506 273.664L505.698 272.196Z" fill="#F7F3EF" stroke="#070707" stroke-width="2" stroke-linecap="round" stroke-linejoin="round"/>
<path d="M512.487 274.171C512.801 273.074 511.54 271.753 509.67 271.218C507.801 270.684 506.032 271.14 505.719 272.236C505.405 273.333 506.667 274.655 508.536 275.189C510.405 275.723 512.174 275.267 512.487 274.171Z" fill="#F7F3EF" stroke="#070707" stroke-width="2" stroke-linecap="round" stroke-linejoin="round"/>
<path d="M511.78 273.921V273.943C511.691 274.183 511.54 274.396 511.341 274.559C511.143 274.721 510.905 274.829 510.652 274.87C510.018 275.013 509.358 274.988 508.737 274.797C507.299 274.367 506.368 273.372 506.591 272.483V272.453C506.68 272.212 506.832 272 507.03 271.837C507.228 271.674 507.466 271.567 507.72 271.526C508.353 271.382 509.013 271.407 509.634 271.599C511.085 272.024 512.017 273.033 511.78 273.921ZM506.986 272.582C506.81 273.239 507.655 274.076 508.844 274.415C509.401 274.588 509.993 274.611 510.561 274.483C510.749 274.46 510.928 274.388 511.079 274.273C511.23 274.159 511.347 274.006 511.42 273.831C511.596 273.178 510.75 272.341 509.561 272.002C509.005 271.829 508.413 271.806 507.844 271.934C507.656 271.957 507.478 272.029 507.327 272.144C507.176 272.258 507.058 272.411 506.986 272.586V272.582Z" fill="#F7F3EF" stroke="#070707" stroke-width="2" stroke-linecap="round" stroke-linejoin="round"/>
<path d="M510.377 273.535C510.249 273.985 509.605 274.183 508.909 273.985C508.214 273.788 507.78 273.286 507.901 272.839C508.029 272.41 508.673 272.191 509.369 272.41C510.055 272.582 510.519 273.084 510.377 273.535ZM508.283 272.947C508.227 273.148 508.527 273.475 509.017 273.612C509.506 273.749 509.935 273.612 509.991 273.436C510.047 273.239 509.746 272.912 509.257 272.771C508.768 272.633 508.338 272.749 508.283 272.951V272.947Z" fill="#F7F3EF" stroke="#070707" stroke-width="2" stroke-linecap="round" stroke-linejoin="round"/>
<path d="M558.024 238.104L546.627 324.972H541.579L528.556 238.104H558.024Z" fill="#F7F3EF" stroke="#070707" stroke-width="2" stroke-linecap="round" stroke-linejoin="round"/>
<path d="M561.239 240.916L550.044 325.405H545.001L532.175 240.916H561.239Z" fill="#F7F3EF" stroke="#070707" stroke-width="2" stroke-linecap="round" stroke-linejoin="round"/>
<path d="M558.35 238.104L546.954 324.972H541.906L528.878 238.104H558.35Z" fill="#F7F3EF" stroke="#070707" stroke-width="2" stroke-linecap="round" stroke-linejoin="round"/>
<path d="M541.906 324.972H470.959L459.558 238.104H528.878L541.906 324.972Z" fill="#F7F3EF" stroke="#070707" stroke-width="2" stroke-linecap="round" stroke-linejoin="round"/>
<path d="M432.035 280.806C432.035 280.806 435.087 278.832 433.01 274.797H434.237C434.873 275.655 435.322 276.637 435.555 277.68C435.787 278.722 435.799 279.802 435.589 280.849L432.035 280.806Z" fill="#F7F3EF" stroke="#070707" stroke-width="2" stroke-linecap="round" stroke-linejoin="round"/>
<path d="M427.15 306.063C425.694 306.048 424.296 305.494 423.223 304.509C422.151 303.524 421.481 302.177 421.342 300.728L419.342 287.047C419.007 283.558 422.454 280.553 425.961 280.609H426.064C427.629 280.627 429.122 281.265 430.216 282.384C431.31 283.503 431.915 285.011 431.898 286.575L433.112 300.247C433.092 301.808 432.453 303.298 431.335 304.389C430.217 305.479 428.712 306.082 427.15 306.063Z" fill="#647CB8" stroke="#070707" stroke-width="2" stroke-linecap="round" stroke-linejoin="round"/>
<path d="M439.487 306.201C440.943 306.218 442.354 305.695 443.448 304.734C444.542 303.773 445.241 302.44 445.41 300.994L447.848 287.361C448.278 283.88 444.741 280.798 441.234 280.759H441.135C439.57 280.742 438.063 281.347 436.944 282.441C435.825 283.534 435.187 285.028 435.168 286.592L433.653 300.234C433.636 301.799 434.241 303.306 435.335 304.425C436.429 305.544 437.922 306.182 439.487 306.201Z" fill="#647CB8" stroke="#070707" stroke-width="2" stroke-linecap="round" stroke-linejoin="round"/>
<path d="M433.421 306.986C432.098 306.971 430.835 306.432 429.909 305.486C428.984 304.54 428.471 303.266 428.485 301.942L428.67 285.202C428.684 283.878 429.224 282.615 430.17 281.689C431.116 280.764 432.39 280.252 433.713 280.265C435.037 280.28 436.3 280.82 437.226 281.765C438.151 282.711 438.663 283.986 438.65 285.309L438.465 302.05C438.458 302.705 438.323 303.353 438.065 303.956C437.808 304.558 437.435 305.105 436.966 305.563C436.498 306.022 435.944 306.383 435.336 306.627C434.727 306.872 434.077 306.993 433.421 306.986Z" fill="#647CB8" stroke="#070707" stroke-width="2" stroke-linecap="round" stroke-linejoin="round"/>
<g style="mix-blend-mode:multiply">
<path d="M318.013 262.494C318.013 275.981 312.656 288.916 303.119 298.453C293.582 307.99 280.647 313.348 267.16 313.348C253.674 313.346 240.739 307.988 231.203 298.452C221.666 288.915 216.308 275.981 216.307 262.494H318.013Z" fill="#F7F3EF"/>
<path d="M318.013 262.494C318.013 275.981 312.656 288.916 303.119 298.453C293.582 307.99 280.647 313.348 267.16 313.348C253.674 313.346 240.739 307.988 231.203 298.452C221.666 288.915 216.308 275.981 216.307 262.494H318.013Z" stroke="#070707" stroke-width="2" stroke-linecap="round" stroke-linejoin="round"/>
</g>
<path d="M317.85 262.331C317.849 275.818 312.491 288.752 302.955 298.289C293.418 307.825 280.484 313.183 266.997 313.184C253.51 313.183 240.576 307.825 231.04 298.289C221.503 288.752 216.145 275.818 216.144 262.331H317.85Z" fill="#F7F3EF" stroke="#070707" stroke-width="2" stroke-linecap="round" stroke-linejoin="round"/>
<path d="M275.907 306.517C280.443 304.96 283.18 300.959 282.021 297.58C280.861 294.201 276.244 292.723 271.707 294.28C267.171 295.836 264.434 299.838 265.594 303.217C266.753 306.596 271.37 308.073 275.907 306.517Z" fill="#F7F3EF" stroke="#070707" stroke-width="2" stroke-linecap="round" stroke-linejoin="round"/>
<path d="M275.154 306.185C279.11 304.624 281.355 300.92 280.169 297.912C278.982 294.904 274.813 293.731 270.857 295.292C266.9 296.853 264.655 300.556 265.842 303.564C267.029 306.572 271.198 307.746 275.154 306.185Z" fill="#F7F3EF" stroke="#070707" stroke-width="2" stroke-linecap="round" stroke-linejoin="round"/>
<path d="M274.466 298.693C274.372 299.122 273.114 300.277 273.114 300.277C273.114 300.277 272.384 299.118 272.479 298.693C272.568 298.458 272.728 298.257 272.938 298.118C273.148 297.98 273.395 297.91 273.646 297.92C274.196 297.92 274.565 298.268 274.466 298.693Z" fill="#F7F3EF" stroke="#070707" stroke-width="2" stroke-linecap="round" stroke-linejoin="round"/>
<path d="M271.56 302.745C271.655 302.316 272.913 301.161 272.913 301.161C272.913 301.161 273.642 302.316 273.548 302.745C273.459 302.98 273.298 303.18 273.088 303.318C272.879 303.456 272.631 303.524 272.38 303.514C271.831 303.514 271.462 303.17 271.56 302.745Z" fill="#F7F3EF" stroke="#070707" stroke-width="2" stroke-linecap="round" stroke-linejoin="round"/>
<path d="M270.568 299.946C271.118 299.946 272.431 300.719 272.431 300.719C272.431 300.719 270.766 301.492 270.216 301.492C269.667 301.492 269.302 301.144 269.401 300.719C269.489 300.483 269.649 300.282 269.859 300.143C270.069 300.004 270.317 299.935 270.568 299.946Z" fill="#F7F3EF" stroke="#070707" stroke-width="2" stroke-linecap="round" stroke-linejoin="round"/>
<path d="M275.444 301.492C274.895 301.492 273.582 300.719 273.582 300.719C273.582 300.719 275.247 299.946 275.796 299.946C276.346 299.946 276.711 300.294 276.612 300.719C276.524 300.955 276.364 301.157 276.154 301.295C275.944 301.434 275.696 301.503 275.444 301.492Z" fill="#F7F3EF" stroke="#070707" stroke-width="2" stroke-linecap="round" stroke-linejoin="round"/>
<path d="M260.459 300.925C262.233 300.925 263.67 299.488 263.67 297.714C263.67 295.941 262.233 294.504 260.459 294.504C258.686 294.504 257.249 295.941 257.249 297.714C257.249 299.488 258.686 300.925 260.459 300.925Z" fill="#F7F3EF" stroke="#070707" stroke-width="2" stroke-linecap="round" stroke-linejoin="round"/>
<path d="M290.014 293.014C290.54 290.956 289.298 288.861 287.241 288.335C285.183 287.809 283.088 289.051 282.562 291.109C282.036 293.167 283.277 295.262 285.335 295.788C287.393 296.314 289.488 295.072 290.014 293.014Z" fill="#F7F3EF" stroke="#070707" stroke-width="2" stroke-linecap="round" stroke-linejoin="round"/>
<path d="M236.744 290.479C237.198 288.404 235.885 286.354 233.81 285.899C231.735 285.444 229.684 286.758 229.23 288.833C228.775 290.907 230.089 292.958 232.163 293.413C234.238 293.867 236.289 292.554 236.744 290.479Z" fill="#F7F3EF" stroke="#070707" stroke-width="2" stroke-linecap="round" stroke-linejoin="round"/>
<path d="M245.332 303.798C247.071 303.229 247.331 299.248 245.912 294.906C244.492 290.564 241.932 287.505 240.192 288.073C238.452 288.642 238.193 292.623 239.612 296.965C241.031 301.307 243.592 304.366 245.332 303.798Z" fill="#F7F3EF" stroke="#070707" stroke-width="2" stroke-linecap="round" stroke-linejoin="round"/>
<path d="M242.238 289.692C243.594 289.576 245.522 292.576 246.324 296.487C246.951 299.526 246.917 302.282 245.208 302.427C244.277 302.509 242.843 300.397 241.774 296.538C240.705 292.679 240.542 289.838 242.238 289.692Z" fill="#F7F3EF" stroke="#070707" stroke-width="2" stroke-linecap="round" stroke-linejoin="round"/>
<path d="M266.807 276.675C268.987 272.66 269.88 268.932 268.803 268.347C267.726 267.762 265.086 270.542 262.906 274.557C260.726 278.572 259.832 282.301 260.91 282.885C261.987 283.47 264.627 280.69 266.807 276.675Z" fill="#F7F3EF" stroke="#070707" stroke-width="2" stroke-linecap="round" stroke-linejoin="round"/>
<path d="M261.099 280.514C260.473 279.806 261.597 276.479 263.756 273.144C265.43 270.547 267.19 268.547 267.989 269.44C268.418 269.925 267.658 272.307 265.636 275.758C263.615 279.209 261.885 281.403 261.099 280.514Z" fill="#F7F3EF" stroke="#070707" stroke-width="2" stroke-linecap="round" stroke-linejoin="round"/>
<path d="M281.549 286.099C285.313 284.476 290.722 283.734 297.259 287.279L281.549 286.099Z" fill="#F7F3EF"/>
<path d="M281.549 286.099C285.313 284.476 290.722 283.734 297.259 287.279" stroke="#070707" stroke-width="2" stroke-linecap="round" stroke-linejoin="round"/>
<path d="M296.606 286.781C296.606 286.781 296.246 291.413 298.122 291.361C299.997 291.31 298.186 289.589 298.186 289.589C298.186 289.589 302.049 292.791 302.637 291.143C303.225 289.494 299.791 288.614 299.791 288.614C299.791 288.614 301.903 288.477 300.431 287.275C298.959 286.073 296.606 286.781 296.606 286.781Z" fill="#F7F3EF" stroke="#070707" stroke-width="2" stroke-linecap="round" stroke-linejoin="round"/>
<path d="M288.37 284.751C288.37 284.751 290.658 281.145 292.233 281.901C293.808 282.656 290.761 284.154 290.761 284.154C290.761 284.154 293.435 283.472 293.259 284.742C293.083 286.013 290.542 285.451 290.542 285.451C290.542 285.451 291.13 288.026 290.074 287.391C289.018 286.756 288.37 284.751 288.37 284.751Z" fill="#F7F3EF" stroke="#070707" stroke-width="2" stroke-linecap="round" stroke-linejoin="round"/>
<path d="M250.308 299.543C251.029 302.887 253.888 307.9 264.186 310.09L250.308 299.543Z" fill="#F7F3EF"/>
<path d="M250.308 299.543C251.029 302.887 253.888 307.9 264.186 310.09" stroke="#070707" stroke-width="2" stroke-linecap="round" stroke-linejoin="round"/>
<path d="M257.524 307.888C257.524 307.888 260.352 309.201 260.85 308.6C261.348 307.999 259.919 307.364 259.919 307.364C259.919 307.364 262.288 307.926 262.692 307.325C263.095 306.724 261.443 306.291 261.443 306.291C261.443 306.291 263.645 305.273 263.16 304.574C262.675 303.874 261.567 305.145 261.567 305.145C261.567 305.145 261.284 303.831 260.863 303.857C260.443 303.883 259.915 306.128 259.915 306.128C259.915 306.128 259.983 304.509 259.228 304.475C258.472 304.441 258.55 307.085 257.524 307.888Z" fill="#F7F3EF" stroke="#070707" stroke-width="2" stroke-linecap="round" stroke-linejoin="round"/>
<path d="M262.756 309.755C262.756 309.755 264.409 312.094 265.203 311.781C265.997 311.467 264.774 310.875 264.774 310.875C264.774 310.875 267.448 311.605 267.778 310.875C268.109 310.145 266.598 309.896 266.598 309.896C266.598 309.896 267.98 308.609 266.988 308.244C265.997 307.879 264.529 309.978 262.756 309.755Z" fill="#F7F3EF" stroke="#070707" stroke-width="2" stroke-linecap="round" stroke-linejoin="round"/>
<path d="M252.008 303.333C252.008 303.333 253.669 305.909 254.806 305.364C255.944 304.818 253.742 303.754 253.742 303.754C253.742 303.754 255.665 304.23 255.532 303.325C255.399 302.419 253.579 302.827 253.579 302.827C253.579 302.827 254.008 300.99 253.231 301.436C252.454 301.882 252.008 303.333 252.008 303.333Z" fill="#F7F3EF" stroke="#070707" stroke-width="2" stroke-linecap="round" stroke-linejoin="round"/>
<path d="M280.347 306.995C283.652 307.883 289.417 307.63 296.066 299.466L280.347 306.995Z" fill="#F7F3EF"/>
<path d="M280.347 306.995C283.652 307.883 289.417 307.63 296.066 299.466" stroke="#070707" stroke-width="2" stroke-linecap="round" stroke-linejoin="round"/>
<path d="M291.065 304.389C291.065 304.389 293.525 302.47 293.212 301.754C292.898 301.037 291.683 302.02 291.683 302.02C291.683 302.02 293.267 300.165 292.915 299.534C292.563 298.903 291.426 300.174 291.426 300.174C291.426 300.174 291.529 297.749 290.67 297.843C289.812 297.938 290.447 299.521 290.447 299.521C290.447 299.521 289.159 299.169 288.988 299.564C288.816 299.959 290.576 301.445 290.576 301.445C290.576 301.445 289.168 300.646 288.79 301.303C288.413 301.96 290.812 303.127 291.065 304.389Z" fill="#F7F3EF" stroke="#070707" stroke-width="2" stroke-linecap="round" stroke-linejoin="round"/>
<path d="M295.117 300.586C295.117 300.586 297.95 300.182 298.036 299.333C298.122 298.483 297.031 299.303 297.031 299.303C297.031 299.303 298.903 297.255 298.405 296.611C297.907 295.967 296.993 297.216 296.993 297.216C296.993 297.216 296.465 295.396 295.705 296.118C294.945 296.839 296.121 299.109 295.117 300.586Z" fill="#F7F3EF" stroke="#070707" stroke-width="2" stroke-linecap="round" stroke-linejoin="round"/>
<path d="M284.498 307.222C284.498 307.222 287.549 306.922 287.58 305.66C287.61 304.398 285.661 305.87 285.661 305.87C285.661 305.87 286.949 304.381 286.09 304.084C285.232 303.788 284.759 305.595 284.759 305.595C284.759 305.595 283.308 304.389 283.36 305.265C283.411 306.14 284.498 307.222 284.498 307.222Z" fill="#F7F3EF" stroke="#070707" stroke-width="2" stroke-linecap="round" stroke-linejoin="round"/>
<path d="M251.9 286.331C251.9 286.331 254.991 282.695 254.296 281.566C253.6 280.437 253.038 282.648 253.038 282.648C253.038 282.648 253.403 278.08 252.179 277.862C250.956 277.643 250.995 280.914 250.995 280.914C250.995 280.914 248.733 278.69 248.479 280.411C248.226 282.133 250.523 284.403 251.9 286.331Z" fill="#F7F3EF" stroke="#070707" stroke-width="2" stroke-linecap="round" stroke-linejoin="round"/>
<path d="M252.759 291.267C252.759 291.267 255.953 286.867 254.609 286.039C253.266 285.21 252.034 289.473 252.034 289.473C252.034 289.473 249.578 286.468 248.737 287.515C247.896 288.563 252.759 291.267 252.759 291.267Z" fill="#F7F3EF" stroke="#070707" stroke-width="2" stroke-linecap="round" stroke-linejoin="round"/>
<path d="M254.398 294.053C252.291 290.936 250.909 287.399 252.226 284.326L254.398 294.053Z" fill="#F7F3EF"/>
<path d="M254.398 294.053C252.291 290.936 250.909 287.399 252.226 284.326" stroke="#070707" stroke-width="2" stroke-linecap="round" stroke-linejoin="round"/>
<path d="M431.769 311.334C431.772 311.573 431.701 311.807 431.567 312.004C431.433 312.202 431.241 312.353 431.018 312.437L428.214 313.579L402.176 324.177C400.799 324.742 399.325 325.034 397.837 325.036H295.602C295.442 325.038 295.282 325.008 295.133 324.947C294.984 324.887 294.849 324.796 294.736 324.682C294.623 324.568 294.535 324.432 294.475 324.283C294.416 324.133 294.388 323.973 294.392 323.813C294.389 323.573 294.46 323.339 294.595 323.142C294.73 322.944 294.923 322.793 295.147 322.709L323.988 310.965C325.365 310.402 326.837 310.111 328.324 310.107H430.558C430.719 310.104 430.879 310.135 431.028 310.196C431.177 310.257 431.312 310.347 431.426 310.462C431.539 310.577 431.627 310.713 431.686 310.863C431.745 311.013 431.773 311.173 431.769 311.334Z" fill="#F7F3EF" stroke="#070707" stroke-width="2" stroke-linecap="round" stroke-linejoin="round"/>
<path d="M431.769 311.334V314.803C431.772 315.041 431.701 315.275 431.567 315.473C431.433 315.67 431.241 315.821 431.018 315.906L402.176 327.646C400.799 328.211 399.325 328.502 397.837 328.504H295.602C295.442 328.507 295.282 328.476 295.133 328.416C294.984 328.355 294.849 328.265 294.736 328.15C294.623 328.036 294.535 327.9 294.475 327.751C294.416 327.601 294.388 327.442 294.392 327.281V323.813C294.388 323.973 294.416 324.133 294.475 324.282C294.535 324.432 294.623 324.568 294.736 324.682C294.849 324.796 294.984 324.887 295.133 324.947C295.282 325.008 295.442 325.038 295.602 325.036H397.837C399.325 325.034 400.799 324.742 402.176 324.177L428.215 313.579L431.018 312.437C431.241 312.353 431.433 312.202 431.567 312.004C431.701 311.807 431.772 311.573 431.769 311.334Z" fill="#F7F3EF" stroke="#070707" stroke-width="2" stroke-linecap="round" stroke-linejoin="round"/>
<path d="M351.242 312.85L372.803 306.784C372.935 306.748 373.058 306.685 373.166 306.6C373.273 306.516 373.363 306.41 373.429 306.29C373.495 306.17 373.536 306.038 373.55 305.902C373.564 305.765 373.551 305.628 373.511 305.497L372.623 302.492C372.586 302.362 372.525 302.241 372.442 302.136C372.359 302.03 372.256 301.942 372.139 301.876C372.021 301.81 371.892 301.768 371.759 301.752C371.625 301.736 371.49 301.747 371.361 301.784L349.795 307.849C349.664 307.886 349.541 307.95 349.434 308.035C349.327 308.12 349.238 308.225 349.172 308.345C349.107 308.465 349.065 308.596 349.05 308.732C349.036 308.868 349.048 309.006 349.087 309.137L349.975 312.141C350.012 312.271 350.074 312.392 350.157 312.498C350.241 312.604 350.344 312.692 350.462 312.758C350.579 312.824 350.709 312.866 350.843 312.881C350.976 312.897 351.112 312.886 351.242 312.85Z" fill="#F7F3EF" stroke="#070707" stroke-width="2" stroke-linecap="round" stroke-linejoin="round"/>
<path d="M316.623 317.777L348.997 308.669L351.173 316.395C351.173 316.395 330.05 325.809 316.623 317.777Z" fill="#F7F3EF" stroke="#070707" stroke-width="2" stroke-linecap="round" stroke-linejoin="round"/>
<path d="M400.395 317.743C406.135 317.743 410.787 313.496 410.787 308.257C410.787 303.017 406.135 298.77 400.395 298.77C394.656 298.77 390.003 303.017 390.003 308.257C390.003 313.496 394.656 317.743 400.395 317.743Z" fill="#F7F3EF" stroke="#070707" stroke-width="2" stroke-linecap="round" stroke-linejoin="round"/>
<path d="M398.463 317.31C402.965 317.31 406.615 313.572 406.615 308.961C406.615 304.35 402.965 300.612 398.463 300.612C393.962 300.612 390.312 304.35 390.312 308.961C390.312 313.572 393.962 317.31 398.463 317.31Z" fill="#F7F3EF" stroke="#070707" stroke-width="2" stroke-linecap="round" stroke-linejoin="round"/>
<path d="M399.567 306.205C399.567 306.784 398.463 308.351 398.463 308.351C398.463 308.351 397.365 306.776 397.365 306.205C397.382 305.925 397.506 305.662 397.71 305.47C397.915 305.277 398.185 305.17 398.466 305.17C398.746 305.17 399.016 305.277 399.221 305.47C399.425 305.662 399.549 305.925 399.567 306.205Z" fill="#F7F3EF" stroke="#070707" stroke-width="2" stroke-linecap="round" stroke-linejoin="round"/>
<path d="M397.365 311.716C397.365 311.137 398.463 309.57 398.463 309.57C398.463 309.57 399.567 311.141 399.567 311.716C399.549 311.997 399.425 312.259 399.221 312.452C399.016 312.644 398.746 312.751 398.466 312.751C398.185 312.751 397.915 312.644 397.71 312.452C397.506 312.259 397.382 311.997 397.365 311.716Z" fill="#F7F3EF" stroke="#070707" stroke-width="2" stroke-linecap="round" stroke-linejoin="round"/>
<path d="M395.574 307.909C396.18 307.909 397.832 308.961 397.832 308.961C397.832 308.961 396.18 310.012 395.574 310.012C395.295 310.012 395.028 309.902 394.831 309.704C394.633 309.507 394.523 309.24 394.523 308.961C394.523 308.682 394.633 308.414 394.831 308.217C395.028 308.02 395.295 307.909 395.574 307.909Z" fill="#F7F3EF" stroke="#070707" stroke-width="2" stroke-linecap="round" stroke-linejoin="round"/>
<path d="M401.357 310.012C400.747 310.012 399.099 308.961 399.099 308.961C399.099 308.961 400.747 307.909 401.357 307.909C401.636 307.909 401.903 308.02 402.1 308.217C402.298 308.414 402.408 308.682 402.408 308.961C402.408 309.24 402.298 309.507 402.1 309.704C401.903 309.902 401.636 310.012 401.357 310.012Z" fill="#F7F3EF" stroke="#070707" stroke-width="2" stroke-linecap="round" stroke-linejoin="round"/>
<path d="M393.151 316.08C397.644 313.357 399.488 308.183 397.27 304.524C395.052 300.864 389.612 300.105 385.119 302.828C380.627 305.551 378.783 310.725 381.001 314.385C383.219 318.044 388.659 318.803 393.151 316.08Z" fill="#F7F3EF" stroke="#070707" stroke-width="2" stroke-linecap="round" stroke-linejoin="round"/>
<path d="M392.372 315.444C396.178 312.701 397.441 307.949 395.192 304.829C392.944 301.71 388.036 301.404 384.23 304.147C380.424 306.89 379.161 311.643 381.409 314.763C383.657 317.882 388.565 318.187 392.372 315.444Z" fill="#F7F3EF" stroke="#070707" stroke-width="2" stroke-linecap="round" stroke-linejoin="round"/>
<path d="M389.857 307.351C389.754 307.875 388.406 309.291 388.406 309.291C388.406 309.291 387.625 307.875 387.728 307.351C387.803 307.077 387.966 306.835 388.193 306.663C388.42 306.492 388.697 306.4 388.981 306.402C389.106 306.389 389.232 306.404 389.35 306.448C389.468 306.493 389.573 306.564 389.658 306.656C389.744 306.748 389.806 306.859 389.84 306.98C389.875 307.1 389.881 307.228 389.857 307.351Z" fill="#F7F3EF" stroke="#070707" stroke-width="2" stroke-linecap="round" stroke-linejoin="round"/>
<path d="M386.745 312.317C386.848 311.794 388.191 310.377 388.191 310.377C388.191 310.377 388.977 311.794 388.874 312.317C388.798 312.591 388.634 312.832 388.408 313.003C388.181 313.173 387.904 313.264 387.621 313.262C387.496 313.275 387.37 313.259 387.253 313.216C387.136 313.172 387.031 313.101 386.946 313.009C386.86 312.918 386.798 312.807 386.763 312.687C386.728 312.567 386.722 312.44 386.745 312.317Z" fill="#F7F3EF" stroke="#070707" stroke-width="2" stroke-linecap="round" stroke-linejoin="round"/>
<path d="M385.698 308.888C386.286 308.888 387.689 309.832 387.689 309.832C387.689 309.832 385.912 310.781 385.324 310.781C385.201 310.791 385.076 310.773 384.961 310.728C384.846 310.683 384.742 310.611 384.659 310.52C384.576 310.428 384.515 310.318 384.482 310.199C384.448 310.079 384.443 309.954 384.466 309.832C384.54 309.562 384.701 309.324 384.923 309.153C385.146 308.983 385.417 308.89 385.698 308.888Z" fill="#F7F3EF" stroke="#070707" stroke-width="2" stroke-linecap="round" stroke-linejoin="round"/>
<path d="M390.904 310.781C390.316 310.781 388.912 309.832 388.912 309.832C388.912 309.832 390.689 308.888 391.278 308.888C391.401 308.877 391.524 308.895 391.639 308.94C391.754 308.985 391.857 309.056 391.94 309.147C392.023 309.239 392.084 309.348 392.118 309.467C392.152 309.586 392.158 309.71 392.136 309.832C392.062 310.103 391.902 310.342 391.679 310.513C391.457 310.684 391.185 310.778 390.904 310.781Z" fill="#F7F3EF" stroke="#070707" stroke-width="2" stroke-linecap="round" stroke-linejoin="round"/>
<path d="M384.986 317.083C389.522 315.526 392.26 311.525 391.1 308.146C389.94 304.766 385.323 303.289 380.787 304.846C376.251 306.402 373.513 310.403 374.673 313.783C375.832 317.162 380.45 318.639 384.986 317.083Z" fill="#F7F3EF" stroke="#070707" stroke-width="2" stroke-linecap="round" stroke-linejoin="round"/>
<path d="M384.23 316.764C388.186 315.203 390.431 311.5 389.244 308.492C388.058 305.484 383.888 304.31 379.932 305.871C375.976 307.432 373.731 311.136 374.918 314.144C376.104 317.152 380.273 318.325 384.23 316.764Z" fill="#F7F3EF" stroke="#070707" stroke-width="2" stroke-linecap="round" stroke-linejoin="round"/>
<path d="M383.547 309.265C383.448 309.695 382.191 310.849 382.191 310.849C382.191 310.849 381.461 309.695 381.559 309.265C381.647 309.03 381.808 308.828 382.017 308.689C382.227 308.55 382.476 308.481 382.727 308.493C383.277 308.51 383.641 308.84 383.547 309.265Z" fill="#F7F3EF" stroke="#070707" stroke-width="2" stroke-linecap="round" stroke-linejoin="round"/>
<path d="M380.636 313.317C380.735 312.888 381.993 311.734 381.993 311.734C381.993 311.734 382.723 312.888 382.624 313.317C382.536 313.553 382.375 313.754 382.165 313.892C381.956 314.03 381.707 314.098 381.456 314.086C380.907 314.09 380.542 313.742 380.636 313.317Z" fill="#F7F3EF" stroke="#070707" stroke-width="2" stroke-linecap="round" stroke-linejoin="round"/>
<path d="M379.662 310.519C380.207 310.519 381.521 311.291 381.521 311.291C381.521 311.291 379.859 312.064 379.31 312.064C378.761 312.064 378.396 311.716 378.49 311.291C378.579 311.056 378.741 310.854 378.951 310.716C379.161 310.577 379.41 310.508 379.662 310.519Z" fill="#F7F3EF" stroke="#070707" stroke-width="2" stroke-linecap="round" stroke-linejoin="round"/>
<path d="M384.521 312.064C383.976 312.064 382.663 311.291 382.663 311.291C382.663 311.291 384.324 310.519 384.873 310.519C385.423 310.519 385.788 310.866 385.693 311.291C385.604 311.527 385.443 311.729 385.232 311.867C385.022 312.006 384.773 312.075 384.521 312.064Z" fill="#F7F3EF" stroke="#070707" stroke-width="2" stroke-linecap="round" stroke-linejoin="round"/>
<path d="M161.29 213.474H167.467C167.997 213.474 168.504 213.684 168.879 214.059C169.253 214.433 169.463 214.941 169.463 215.47V228.708H159.294V215.47C159.294 214.941 159.505 214.433 159.879 214.059C160.253 213.684 160.761 213.474 161.29 213.474Z" fill="#F7F3EF" stroke="#070707" stroke-width="2" stroke-linecap="round" stroke-linejoin="round"/>
<path d="M166.579 228.708H168.983C172.046 228.708 174.984 229.925 177.15 232.091C179.317 234.258 180.534 237.196 180.534 240.259V304.891C180.534 305.802 180.172 306.675 179.528 307.319C178.884 307.963 178.01 308.325 177.1 308.325H158.483C157.572 308.325 156.699 307.963 156.055 307.319C155.411 306.675 155.049 305.802 155.049 304.891V240.259C155.049 237.199 156.263 234.265 158.425 232.099C160.586 229.933 163.519 228.714 166.579 228.708Z" fill="black"/>
<path d="M160.174 228.708H162.578C165.641 228.708 168.579 229.925 170.746 232.091C172.912 234.258 174.129 237.196 174.129 240.259V304.891C174.129 305.802 173.767 306.675 173.123 307.319C172.479 307.963 171.606 308.325 170.695 308.325H152.096C151.185 308.325 150.311 307.963 149.667 307.319C149.023 306.675 148.662 305.802 148.662 304.891V240.259C148.662 237.202 149.873 234.27 152.031 232.105C154.189 229.94 157.117 228.718 160.174 228.708Z" fill="#F7F3EF" stroke="#070707" stroke-width="2" stroke-linecap="round" stroke-linejoin="round"/>
<path d="M178.988 241.332V303.02C178.988 305.595 177.567 307.025 175.207 307.025H154.173C151.813 307.025 150.396 305.432 150.396 302.852V241.332H178.988Z" fill="black"/>
<path d="M168.755 260.348H153.899C152.604 260.348 151.555 261.397 151.555 262.692V272.449C151.555 273.743 152.604 274.792 153.899 274.792H168.755C170.049 274.792 171.099 273.743 171.099 272.449V262.692C171.099 261.397 170.049 260.348 168.755 260.348Z" fill="#F7F3EF" stroke="#070707" stroke-width="2" stroke-linecap="round" stroke-linejoin="round"/>
<path d="M160.174 228.708H162.578C165.641 228.708 168.579 229.925 170.746 232.091C172.912 234.258 174.129 237.196 174.129 240.259V304.891C174.129 305.802 173.767 306.675 173.123 307.319C172.479 307.963 171.606 308.325 170.695 308.325H152.096C151.185 308.325 150.311 307.963 149.667 307.319C149.023 306.675 148.662 305.802 148.662 304.891V240.259C148.662 237.202 149.873 234.27 152.031 232.105C154.189 229.94 157.117 228.718 160.174 228.708Z" fill="#F7F3EF" stroke="#070707" stroke-width="2" stroke-linecap="round" stroke-linejoin="round"/>
<path d="M73.3368 289.696C74.1388 285.809 71.6383 282.008 67.7516 281.206C63.865 280.404 60.0641 282.905 59.2621 286.791C58.46 290.678 60.9605 294.479 64.8472 295.281C68.7338 296.083 72.5347 293.582 73.3368 289.696Z" fill="#F7F3EF" stroke="#070707" stroke-width="2" stroke-linecap="round" stroke-linejoin="round"/>
<path d="M72.3925 288.504C73.2158 284.5 70.6378 280.588 66.6345 279.765C62.6312 278.941 58.7186 281.519 57.8953 285.523C57.0721 289.526 59.6501 293.438 63.6534 294.262C67.6567 295.085 71.5693 292.507 72.3925 288.504Z" fill="#F7F3EF" stroke="#070707" stroke-width="2" stroke-linecap="round" stroke-linejoin="round"/>
<path d="M64.3143 293.031H71.3969C72.9907 293.031 74.5193 293.664 75.6463 294.791C76.7733 295.918 77.4064 297.447 77.4064 299.041V313.103C77.4064 313.588 77.2138 314.053 76.8708 314.396C76.5279 314.739 76.0628 314.931 75.5778 314.931H60.1163C59.6313 314.931 59.1662 314.739 58.8232 314.396C58.4803 314.053 58.2877 313.588 58.2877 313.103V299.066C58.2843 298.274 58.4378 297.488 58.7393 296.755C59.0409 296.022 59.4845 295.355 60.0447 294.794C60.6049 294.233 61.2706 293.789 62.0033 293.486C62.7361 293.184 63.5215 293.029 64.3143 293.031Z" fill="#F7F3EF" stroke="#070707" stroke-width="2" stroke-linecap="round" stroke-linejoin="round"/>
<path d="M64.1512 293.031H71.251C72.8448 293.031 74.3734 293.664 75.5004 294.791C76.6274 295.918 77.2605 297.447 77.2605 299.041V313.103C77.2605 313.588 77.0678 314.053 76.7249 314.396C76.382 314.739 75.9169 314.931 75.4319 314.931H59.9532C59.4682 314.931 59.0031 314.739 58.6602 314.396C58.3172 314.053 58.1246 313.588 58.1246 313.103V299.066C58.1212 298.274 58.2747 297.488 58.5762 296.755C58.8778 296.022 59.3214 295.355 59.8816 294.794C60.4418 294.233 61.1075 293.789 61.8403 293.486C62.573 293.184 63.3584 293.029 64.1512 293.031Z" fill="black"/>
<path d="M59.0304 293.031H66.1302C67.724 293.031 69.2525 293.664 70.3795 294.791C71.5065 295.918 72.1397 297.447 72.1397 299.041V313.103C72.1397 313.588 71.947 314.053 71.6041 314.396C71.2611 314.739 70.796 314.931 70.3111 314.931H54.8323C54.3473 314.931 53.8822 314.739 53.5393 314.396C53.1964 314.053 53.0037 313.588 53.0037 313.103V299.066C53.0003 298.274 53.1538 297.488 53.4554 296.755C53.7569 296.022 54.2006 295.355 54.7608 294.794C55.321 294.233 55.9866 293.789 56.7194 293.486C57.4522 293.184 58.2376 293.029 59.0304 293.031Z" fill="#F7F3EF" stroke="#070707" stroke-width="2" stroke-linecap="round" stroke-linejoin="round"/>
<path d="M68.2975 301.011H58.957C58.1463 301.011 57.489 301.668 57.489 302.479V307.205C57.489 308.016 58.1463 308.673 58.957 308.673H68.2975C69.1083 308.673 69.7655 308.016 69.7655 307.205V302.479C69.7655 301.668 69.1083 301.011 68.2975 301.011Z" fill="#F7F3EF" stroke="#070707" stroke-width="2" stroke-linecap="round" stroke-linejoin="round"/>
<path d="M67.1432 300.019H57.8027C56.992 300.019 56.3347 300.677 56.3347 301.487V306.213C56.3347 307.024 56.992 307.681 57.8027 307.681H67.1432C67.954 307.681 68.6112 307.024 68.6112 306.213V301.487C68.6112 300.677 67.954 300.019 67.1432 300.019Z" fill="#F7F3EF" stroke="#070707" stroke-width="2" stroke-linecap="round" stroke-linejoin="round"/>
<path d="M103.566 287.592C106.772 285.253 107.474 280.758 105.135 277.552C102.796 274.346 98.3004 273.644 95.0947 275.983C91.889 278.323 91.1867 282.818 93.5261 286.023C95.8654 289.229 100.361 289.931 103.566 287.592Z" fill="#F7F3EF" stroke="#070707" stroke-width="2" stroke-linecap="round" stroke-linejoin="round"/>
<path d="M105.623 281.464C106.217 277.42 103.42 273.661 99.3768 273.066C95.3332 272.472 91.5735 275.268 90.9793 279.312C90.385 283.356 93.1813 287.115 97.2249 287.71C101.269 288.304 105.028 285.507 105.623 281.464Z" fill="#F7F3EF" stroke="#070707" stroke-width="2" stroke-linecap="round" stroke-linejoin="round"/>
<path d="M97.3063 286.425H104.406C106 286.425 107.528 287.058 108.655 288.185C109.782 289.312 110.416 290.841 110.416 292.435V306.497C110.416 306.982 110.223 307.447 109.88 307.79C109.537 308.133 109.072 308.325 108.587 308.325H93.1126C92.6276 308.325 92.1625 308.133 91.8195 307.79C91.4766 307.447 91.2839 306.982 91.2839 306.497V292.435C91.2839 291.644 91.4398 290.862 91.7426 290.132C92.0454 289.402 92.4892 288.739 93.0486 288.181C93.608 287.622 94.272 287.18 95.0026 286.879C95.7332 286.578 96.516 286.423 97.3063 286.425Z" fill="#F7F3EF" stroke="#070707" stroke-width="2" stroke-linecap="round" stroke-linejoin="round"/>
<path d="M97.3063 286.425H104.406C106 286.425 107.528 287.058 108.655 288.185C109.782 289.312 110.416 290.841 110.416 292.435V306.497C110.416 306.982 110.223 307.447 109.88 307.79C109.537 308.133 109.072 308.325 108.587 308.325H93.1126C92.6276 308.325 92.1625 308.133 91.8195 307.79C91.4766 307.447 91.2839 306.982 91.2839 306.497V292.435C91.2839 291.644 91.4398 290.862 91.7426 290.132C92.0454 289.402 92.4892 288.739 93.0486 288.181C93.608 287.622 94.272 287.18 95.0026 286.879C95.7332 286.578 96.516 286.423 97.3063 286.425Z" fill="black"/>
<path d="M92.1895 286.425H99.2979C100.892 286.425 102.42 287.058 103.547 288.185C104.674 289.312 105.307 290.841 105.307 292.435V306.497C105.307 306.982 105.115 307.447 104.772 307.79C104.429 308.133 103.964 308.325 103.479 308.325H87.9914C87.5065 308.325 87.0414 308.133 86.6984 307.79C86.3555 307.447 86.1628 306.982 86.1628 306.497V292.435C86.1628 291.644 86.3189 290.861 86.6219 290.131C86.925 289.401 87.3692 288.737 87.9291 288.179C88.4889 287.621 89.1534 287.179 89.8845 286.878C90.6156 286.577 91.3989 286.423 92.1895 286.425Z" fill="#F7F3EF" stroke="#070707" stroke-width="2" stroke-linecap="round" stroke-linejoin="round"/>
<path d="M101.483 294.495H92.1426C91.3318 294.495 90.6746 295.152 90.6746 295.963V300.689C90.6746 301.5 91.3318 302.157 92.1426 302.157H101.483C102.294 302.157 102.951 301.5 102.951 300.689V295.963C102.951 295.152 102.294 294.495 101.483 294.495Z" fill="#F7F3EF" stroke="#070707" stroke-width="2" stroke-linecap="round" stroke-linejoin="round"/>
<path d="M100.324 293.503H90.9837C90.1729 293.503 89.5156 294.161 89.5156 294.971V299.697C89.5156 300.508 90.1729 301.165 90.9837 301.165H100.324C101.135 301.165 101.792 300.508 101.792 299.697V294.971C101.792 294.161 101.135 293.503 100.324 293.503Z" fill="#F7F3EF" stroke="#070707" stroke-width="2" stroke-linecap="round" stroke-linejoin="round"/>
<path d="M430.605 133.565V187.535H474.217V137.42C474.217 135.273 472.024 133.556 469.311 133.556L430.605 133.565Z" fill="black"/>
<path d="M404.138 116.653H415.208V122.701L404.138 120.833V116.653Z" fill="#F7F3EF" stroke="#070707" stroke-width="2" stroke-linecap="round" stroke-linejoin="round"/>
<path d="M415.045 135.467H591.325" stroke="#070707" stroke-width="2" stroke-linecap="round" stroke-linejoin="round"/>
<path d="M611.199 105.582H395.502V116.657H611.199V105.582Z" fill="#F7F3EF" stroke="#070707" stroke-width="2" stroke-linecap="round" stroke-linejoin="round"/>
<path d="M415.213 116.653H404.138V135.467H415.213V116.653Z" fill="#F7F3EF" stroke="#070707" stroke-width="2" stroke-linecap="round" stroke-linejoin="round"/>
<path d="M591.66 116.653H602.73V122.701L591.66 120.833V116.653Z" fill="#F7F3EF" stroke="#070707" stroke-width="2" stroke-linecap="round" stroke-linejoin="round"/>
<path d="M602.73 116.653H591.656V135.467H602.73V116.653Z" fill="#F7F3EF" stroke="#070707" stroke-width="2" stroke-linecap="round" stroke-linejoin="round"/>
<path d="M469.346 133.565C466.495 133.565 464.195 135.282 464.195 137.428V175.7H423.669V137.42C423.669 135.273 425.974 133.556 428.82 133.556L469.346 133.565Z" fill="#F7F3EF" stroke="#070707" stroke-width="2" stroke-linecap="round" stroke-linejoin="round"/>
<path d="M457.152 95.3717C469.81 82.7138 469.81 62.1913 457.152 49.5334C444.494 36.8754 423.972 36.8754 411.314 49.5334C398.656 62.1913 398.656 82.7138 411.314 95.3717C423.972 108.03 444.494 108.03 457.152 95.3717Z" fill="#F7F3EF" stroke="#070707" stroke-width="2" stroke-linecap="round" stroke-linejoin="round"/>
<path d="M451.216 78.625C454.622 69.2484 449.781 58.8866 440.405 55.4813C431.028 52.0759 420.666 56.9165 417.261 66.293C413.855 75.6696 418.696 86.0315 428.073 89.4369C437.449 92.8422 447.811 88.0016 451.216 78.625Z" fill="#F7F3EF" stroke="#070707" stroke-width="2" stroke-linecap="round" stroke-linejoin="round"/>
<path d="M486.022 83.9438H529.174C529.173 84.8348 528.819 85.689 528.189 86.3191C527.559 86.9492 526.704 87.3036 525.813 87.3048H489.379C488.488 87.3036 487.634 86.949 487.005 86.3188C486.375 85.6887 486.022 84.8344 486.022 83.9438Z" fill="#F7F3EF" stroke="#070707" stroke-width="2" stroke-linecap="round" stroke-linejoin="round"/>
<path d="M482.047 91.4084H533.128C533.128 92.4637 532.708 93.4758 531.962 94.2221C531.216 94.9683 530.204 95.3876 529.148 95.3876H486.026C484.971 95.3876 483.959 94.9683 483.212 94.2221C482.466 93.4758 482.047 92.4637 482.047 91.4084Z" fill="#F7F3EF" stroke="#070707" stroke-width="2" stroke-linecap="round" stroke-linejoin="round"/>
<path d="M476.608 100.041H538.592C538.592 101.32 538.084 102.547 537.179 103.452C536.274 104.357 535.047 104.865 533.767 104.865H481.429C480.15 104.863 478.925 104.354 478.021 103.449C477.118 102.545 476.61 101.319 476.608 100.041Z" fill="#F7F3EF" stroke="#070707" stroke-width="2" stroke-linecap="round" stroke-linejoin="round"/>
<path d="M480.064 80.4669H535.132C535.267 80.4694 535.398 80.519 535.501 80.6072C535.604 80.6953 535.673 80.8165 535.696 80.9499C535.719 81.0834 535.696 81.2208 535.629 81.3387C535.562 81.4565 535.456 81.5474 535.33 81.5958L529.492 83.742H485.708L479.866 81.5958C479.74 81.5474 479.634 81.4565 479.567 81.3387C479.5 81.2208 479.476 81.0834 479.5 80.9499C479.523 80.8165 479.592 80.6953 479.695 80.6072C479.798 80.519 479.928 80.4694 480.064 80.4669Z" fill="#F7F3EF" stroke="#070707" stroke-width="2" stroke-linecap="round" stroke-linejoin="round"/>
<path d="M485.704 83.7248H529.487C529.482 84.6274 529.121 85.4915 528.483 86.1301C527.845 86.7688 526.982 87.1306 526.079 87.1374H489.108C488.66 87.1374 488.216 87.0491 487.803 86.8775C487.389 86.706 487.013 86.4545 486.696 86.1376C486.38 85.8206 486.129 85.4444 485.958 85.0304C485.787 84.6164 485.699 84.1728 485.7 83.7248H485.704Z" fill="#F7F3EF" stroke="#070707" stroke-width="2" stroke-linecap="round" stroke-linejoin="round"/>
<path d="M474.99 87.1717H540.201C540.363 87.1726 540.52 87.2302 540.643 87.3346C540.767 87.4389 540.85 87.5834 540.878 87.7428C540.907 87.9022 540.878 88.0664 540.797 88.2068C540.717 88.3472 540.589 88.4548 540.438 88.511L533.522 91.035H481.669L474.754 88.511C474.602 88.4548 474.475 88.3472 474.394 88.2068C474.314 88.0664 474.285 87.9022 474.313 87.7428C474.341 87.5834 474.424 87.4389 474.548 87.3346C474.672 87.2302 474.828 87.1726 474.99 87.1717Z" fill="#F7F3EF" stroke="#070707" stroke-width="2" stroke-linecap="round" stroke-linejoin="round"/>
<path d="M481.669 91.035H533.522C533.522 92.1051 533.097 93.1314 532.341 93.8881C531.584 94.6448 530.558 95.0699 529.487 95.0699H485.704C485.174 95.0705 484.649 94.9665 484.159 94.764C483.669 94.5615 483.223 94.2644 482.848 93.8896C482.473 93.5149 482.175 93.0699 481.972 92.5801C481.769 92.0903 481.665 91.5652 481.665 91.035H481.669Z" fill="#F7F3EF" stroke="#070707" stroke-width="2" stroke-linecap="round" stroke-linejoin="round"/>
<path d="M468.049 95.1085H547.146C547.344 95.1058 547.536 95.1734 547.688 95.2993C547.841 95.4251 547.943 95.601 547.978 95.7955C548.012 95.99 547.977 96.1904 547.877 96.361C547.777 96.5316 547.62 96.6613 547.434 96.7268L539.047 99.7916H476.149L467.761 96.7268C467.575 96.6613 467.418 96.5316 467.318 96.361C467.219 96.1904 467.183 95.99 467.217 95.7955C467.252 95.601 467.355 95.4251 467.507 95.2993C467.659 95.1734 467.851 95.1058 468.049 95.1085Z" fill="#F7F3EF" stroke="#070707" stroke-width="2" stroke-linecap="round" stroke-linejoin="round"/>
<path d="M476.149 99.7917H539.047C539.047 100.435 538.92 101.071 538.674 101.665C538.428 102.259 538.067 102.799 537.612 103.253C537.157 103.708 536.617 104.068 536.023 104.314C535.429 104.56 534.792 104.686 534.149 104.685H481.047C480.404 104.686 479.767 104.56 479.173 104.314C478.578 104.068 478.039 103.708 477.584 103.253C477.129 102.799 476.768 102.259 476.522 101.665C476.276 101.071 476.149 100.435 476.149 99.7917Z" fill="#F7F3EF" stroke="#070707" stroke-width="2" stroke-linecap="round" stroke-linejoin="round"/>
<path d="M498.2 138.179L512.168 152.19C514.202 154.229 514.095 157.637 511.923 159.796L506.613 165.093C504.445 167.24 501.033 167.356 499.007 165.317L485.035 151.306L498.2 138.179Z" fill="#F7F3EF" stroke="#070707" stroke-width="2" stroke-linecap="round" stroke-linejoin="round"/>
<path d="M501.015 141.004C503.484 138.54 507.36 138.428 509.678 140.751L512.498 143.579C514.811 145.902 514.687 149.778 512.219 152.242" stroke="#070707" stroke-width="2" stroke-linecap="round" stroke-linejoin="round"/>
<path d="M506.922 135.467H505.269V141.115H506.922V135.467Z" fill="#F7F3EF" stroke="#070707" stroke-width="2" stroke-linecap="round" stroke-linejoin="round"/>
<path d="M535.957 138.179L549.929 152.19C551.959 154.229 551.852 157.637 549.684 159.796L544.37 165.093C542.224 167.24 538.79 167.356 536.764 165.317L522.792 151.306L535.957 138.179Z" fill="#F7F3EF" stroke="#070707" stroke-width="2" stroke-linecap="round" stroke-linejoin="round"/>
<path d="M535.957 138.179L549.929 152.19C551.959 154.229 551.852 157.637 549.684 159.796L544.37 165.093C542.224 167.24 538.79 167.356 536.764 165.317L522.792 151.306L535.957 138.179Z" fill="#F7F3EF" stroke="#070707" stroke-width="2" stroke-linecap="round" stroke-linejoin="round"/>
<path d="M538.772 141.004C541.24 138.54 545.121 138.428 547.434 140.751L550.254 143.579C552.568 145.902 552.448 149.778 549.975 152.242" stroke="#070707" stroke-width="2" stroke-linecap="round" stroke-linejoin="round"/>
<path d="M529.466 150.374C529.658 150.567 529.788 150.811 529.841 151.078C529.894 151.344 529.866 151.62 529.762 151.871C529.658 152.122 529.482 152.336 529.256 152.487C529.03 152.638 528.765 152.718 528.493 152.718C528.222 152.718 527.956 152.638 527.731 152.487C527.505 152.336 527.329 152.122 527.225 151.871C527.121 151.62 527.093 151.344 527.146 151.078C527.199 150.811 527.329 150.567 527.521 150.374C527.649 150.247 527.8 150.145 527.967 150.076C528.134 150.007 528.313 149.971 528.493 149.971C528.674 149.971 528.853 150.007 529.02 150.076C529.187 150.145 529.338 150.247 529.466 150.374Z" fill="#F7F3EF" stroke="#070707" stroke-width="2" stroke-linecap="round" stroke-linejoin="round"/>
<path d="M536.909 142.931C537.102 143.124 537.233 143.369 537.286 143.637C537.339 143.904 537.312 144.181 537.208 144.433C537.103 144.685 536.927 144.9 536.7 145.051C536.474 145.203 536.207 145.283 535.935 145.283C535.662 145.283 535.396 145.203 535.169 145.051C534.943 144.9 534.766 144.685 534.662 144.433C534.557 144.181 534.53 143.904 534.583 143.637C534.636 143.369 534.768 143.124 534.96 142.931C535.088 142.803 535.24 142.701 535.407 142.631C535.574 142.562 535.754 142.526 535.935 142.526C536.116 142.526 536.295 142.562 536.462 142.631C536.63 142.701 536.781 142.803 536.909 142.931Z" fill="#F7F3EF" stroke="#070707" stroke-width="2" stroke-linecap="round" stroke-linejoin="round"/>
<path d="M533.188 146.653C533.379 146.845 533.51 147.09 533.563 147.356C533.616 147.623 533.588 147.899 533.484 148.149C533.38 148.4 533.204 148.615 532.978 148.765C532.752 148.916 532.487 148.997 532.215 148.997C531.944 148.997 531.678 148.916 531.453 148.765C531.227 148.615 531.051 148.4 530.947 148.149C530.843 147.899 530.815 147.623 530.868 147.356C530.921 147.09 531.051 146.845 531.243 146.653C531.371 146.525 531.522 146.424 531.689 146.354C531.856 146.285 532.035 146.25 532.215 146.25C532.396 146.25 532.575 146.285 532.742 146.354C532.909 146.424 533.06 146.525 533.188 146.653Z" fill="#F7F3EF" stroke="#070707" stroke-width="2" stroke-linecap="round" stroke-linejoin="round"/>
<path d="M530.312 155.5C530.503 155.692 530.634 155.937 530.687 156.203C530.74 156.469 530.712 156.745 530.608 156.996C530.504 157.247 530.328 157.461 530.102 157.612C529.876 157.763 529.611 157.844 529.339 157.844C529.068 157.844 528.802 157.763 528.577 157.612C528.351 157.461 528.175 157.247 528.071 156.996C527.967 156.745 527.939 156.469 527.992 156.203C528.045 155.937 528.175 155.692 528.367 155.5C528.495 155.372 528.646 155.27 528.813 155.201C528.98 155.132 529.159 155.096 529.339 155.096C529.52 155.096 529.699 155.132 529.866 155.201C530.033 155.27 530.184 155.372 530.312 155.5Z" fill="#F7F3EF" stroke="#070707" stroke-width="2" stroke-linecap="round" stroke-linejoin="round"/>
<path d="M538.128 147.687C538.32 147.88 538.45 148.124 538.503 148.391C538.556 148.657 538.529 148.933 538.425 149.184C538.321 149.435 538.144 149.649 537.919 149.8C537.693 149.951 537.427 150.031 537.156 150.031C536.884 150.031 536.619 149.951 536.393 149.8C536.167 149.649 535.991 149.435 535.887 149.184C535.783 148.933 535.756 148.657 535.808 148.391C535.861 148.124 535.992 147.88 536.184 147.687C536.311 147.559 536.463 147.458 536.63 147.389C536.796 147.32 536.975 147.284 537.156 147.284C537.336 147.284 537.515 147.32 537.682 147.389C537.849 147.458 538 147.559 538.128 147.687Z" fill="#F7F3EF" stroke="#070707" stroke-width="2" stroke-linecap="round" stroke-linejoin="round"/>
<path d="M542.034 143.777C542.226 143.969 542.357 144.214 542.409 144.48C542.462 144.747 542.435 145.023 542.331 145.273C542.227 145.524 542.051 145.739 541.825 145.889C541.599 146.04 541.334 146.121 541.062 146.121C540.791 146.121 540.525 146.04 540.299 145.889C540.073 145.739 539.897 145.524 539.793 145.273C539.689 145.023 539.662 144.747 539.715 144.48C539.767 144.214 539.898 143.969 540.09 143.777C540.217 143.648 540.369 143.547 540.535 143.477C540.702 143.408 540.881 143.372 541.062 143.372C541.243 143.372 541.422 143.408 541.589 143.477C541.756 143.547 541.907 143.648 542.034 143.777Z" fill="#F7F3EF" stroke="#070707" stroke-width="2" stroke-linecap="round" stroke-linejoin="round"/>
<path d="M534.222 151.593C534.414 151.786 534.545 152.03 534.597 152.297C534.65 152.563 534.623 152.839 534.519 153.09C534.415 153.341 534.239 153.555 534.013 153.706C533.787 153.857 533.522 153.937 533.25 153.937C532.978 153.937 532.713 153.857 532.487 153.706C532.261 153.555 532.085 153.341 531.981 153.09C531.877 152.839 531.85 152.563 531.903 152.297C531.955 152.03 532.086 151.786 532.278 151.593C532.405 151.466 532.557 151.364 532.724 151.295C532.891 151.226 533.069 151.19 533.25 151.19C533.431 151.19 533.61 151.226 533.776 151.295C533.943 151.364 534.095 151.466 534.222 151.593Z" fill="#F7F3EF" stroke="#070707" stroke-width="2" stroke-linecap="round" stroke-linejoin="round"/>
<path d="M535.441 156.345C535.633 156.537 535.763 156.782 535.816 157.049C535.869 157.315 535.842 157.591 535.738 157.842C535.634 158.093 535.457 158.307 535.232 158.458C535.006 158.609 534.74 158.689 534.469 158.689C534.197 158.689 533.932 158.609 533.706 158.458C533.48 158.307 533.304 158.093 533.2 157.842C533.096 157.591 533.069 157.315 533.121 157.049C533.174 156.782 533.305 156.537 533.497 156.345C533.624 156.217 533.776 156.116 533.943 156.047C534.109 155.978 534.288 155.942 534.469 155.942C534.649 155.942 534.828 155.978 534.995 156.047C535.162 156.116 535.314 156.217 535.441 156.345Z" fill="#F7F3EF" stroke="#070707" stroke-width="2" stroke-linecap="round" stroke-linejoin="round"/>
<path d="M542.88 148.906C543.072 149.099 543.203 149.343 543.255 149.61C543.308 149.876 543.281 150.152 543.177 150.403C543.073 150.654 542.897 150.868 542.671 151.019C542.445 151.17 542.18 151.25 541.908 151.25C541.636 151.25 541.371 151.17 541.145 151.019C540.919 150.868 540.743 150.654 540.639 150.403C540.535 150.152 540.508 149.876 540.561 149.61C540.613 149.343 540.744 149.099 540.936 148.906C541.063 148.779 541.215 148.677 541.382 148.608C541.549 148.539 541.727 148.503 541.908 148.503C542.089 148.503 542.268 148.539 542.434 148.608C542.601 148.677 542.753 148.779 542.88 148.906Z" fill="#F7F3EF" stroke="#070707" stroke-width="2" stroke-linecap="round" stroke-linejoin="round"/>
<path d="M539.163 152.628C539.355 152.82 539.485 153.065 539.538 153.331C539.591 153.598 539.563 153.874 539.459 154.125C539.355 154.375 539.179 154.59 538.953 154.741C538.728 154.891 538.462 154.972 538.19 154.972C537.919 154.972 537.653 154.891 537.428 154.741C537.202 154.59 537.026 154.375 536.922 154.125C536.818 153.874 536.79 153.598 536.843 153.331C536.896 153.065 537.026 152.82 537.218 152.628C537.346 152.5 537.497 152.399 537.664 152.329C537.831 152.26 538.01 152.225 538.19 152.225C538.371 152.225 538.55 152.26 538.717 152.329C538.884 152.399 539.035 152.5 539.163 152.628Z" fill="#F7F3EF" stroke="#070707" stroke-width="2" stroke-linecap="round" stroke-linejoin="round"/>
<path d="M536.274 161.475C536.466 161.667 536.596 161.912 536.649 162.178C536.702 162.445 536.675 162.721 536.571 162.971C536.467 163.222 536.291 163.437 536.065 163.587C535.839 163.738 535.573 163.819 535.302 163.819C535.03 163.819 534.765 163.738 534.539 163.587C534.313 163.437 534.137 163.222 534.033 162.971C533.929 162.721 533.902 162.445 533.954 162.178C534.007 161.912 534.138 161.667 534.33 161.475C534.457 161.347 534.609 161.246 534.776 161.176C534.942 161.107 535.121 161.072 535.302 161.072C535.482 161.072 535.661 161.107 535.828 161.176C535.995 161.246 536.146 161.347 536.274 161.475Z" fill="#F7F3EF" stroke="#070707" stroke-width="2" stroke-linecap="round" stroke-linejoin="round"/>
<path d="M543.129 156.006C543.888 156.006 544.503 155.391 544.503 154.633C544.503 153.874 543.888 153.259 543.129 153.259C542.371 153.259 541.756 153.874 541.756 154.633C541.756 155.391 542.371 156.006 543.129 156.006Z" fill="#F7F3EF" stroke="#070707" stroke-width="2" stroke-linecap="round" stroke-linejoin="round"/>
<path d="M547.04 152.1C547.798 152.1 548.413 151.485 548.413 150.726C548.413 149.968 547.798 149.353 547.04 149.353C546.281 149.353 545.666 149.968 545.666 150.726C545.666 151.485 546.281 152.1 547.04 152.1Z" fill="#F7F3EF" stroke="#070707" stroke-width="2" stroke-linecap="round" stroke-linejoin="round"/>
<path d="M540.193 157.569C540.385 157.761 540.515 158.006 540.568 158.272C540.621 158.538 540.594 158.814 540.49 159.065C540.385 159.316 540.209 159.53 539.984 159.681C539.758 159.832 539.492 159.913 539.221 159.913C538.949 159.913 538.684 159.832 538.458 159.681C538.232 159.53 538.056 159.316 537.952 159.065C537.848 158.814 537.821 158.538 537.873 158.272C537.926 158.006 538.057 157.761 538.248 157.569C538.376 157.44 538.527 157.338 538.694 157.269C538.861 157.199 539.04 157.164 539.221 157.164C539.402 157.164 539.581 157.199 539.747 157.269C539.914 157.338 540.066 157.44 540.193 157.569Z" fill="#F7F3EF" stroke="#070707" stroke-width="2" stroke-linecap="round" stroke-linejoin="round"/>
<path d="M541.425 162.32C541.617 162.513 541.748 162.757 541.8 163.024C541.853 163.29 541.826 163.566 541.722 163.817C541.618 164.068 541.442 164.282 541.216 164.433C540.99 164.584 540.724 164.664 540.453 164.664C540.181 164.664 539.916 164.584 539.69 164.433C539.464 164.282 539.288 164.068 539.184 163.817C539.08 163.566 539.053 163.29 539.106 163.024C539.158 162.757 539.289 162.513 539.481 162.32C539.608 162.193 539.76 162.091 539.927 162.022C540.093 161.953 540.272 161.917 540.453 161.917C540.634 161.917 540.812 161.953 540.979 162.022C541.146 162.091 541.298 162.193 541.425 162.32Z" fill="#F7F3EF" stroke="#070707" stroke-width="2" stroke-linecap="round" stroke-linejoin="round"/>
<path d="M548.855 154.882C549.047 155.074 549.178 155.319 549.231 155.585C549.283 155.851 549.256 156.127 549.152 156.378C549.048 156.629 548.872 156.843 548.646 156.994C548.42 157.145 548.155 157.225 547.883 157.225C547.612 157.225 547.346 157.145 547.12 156.994C546.894 156.843 546.718 156.629 546.614 156.378C546.51 156.127 546.483 155.851 546.536 155.585C546.588 155.319 546.719 155.074 546.911 154.882C547.038 154.754 547.19 154.652 547.357 154.583C547.524 154.514 547.703 154.478 547.883 154.478C548.064 154.478 548.243 154.514 548.409 154.583C548.576 154.652 548.728 154.754 548.855 154.882Z" fill="#F7F3EF" stroke="#070707" stroke-width="2" stroke-linecap="round" stroke-linejoin="round"/>
<path d="M545.138 158.603C545.331 158.796 545.462 159.041 545.515 159.309C545.568 159.576 545.541 159.853 545.436 160.105C545.332 160.356 545.156 160.572 544.929 160.723C544.702 160.874 544.436 160.955 544.164 160.955C543.891 160.955 543.625 160.874 543.398 160.723C543.171 160.572 542.995 160.356 542.891 160.105C542.786 159.853 542.759 159.576 542.812 159.309C542.865 159.041 542.996 158.796 543.189 158.603C543.317 158.475 543.469 158.373 543.636 158.303C543.803 158.234 543.982 158.198 544.164 158.198C544.345 158.198 544.524 158.234 544.691 158.303C544.858 158.373 545.01 158.475 545.138 158.603Z" fill="#F7F3EF" stroke="#070707" stroke-width="2" stroke-linecap="round" stroke-linejoin="round"/>
<path d="M544.215 135.467H542.562V141.115H544.215V135.467Z" fill="#F7F3EF" stroke="#070707" stroke-width="2" stroke-linecap="round" stroke-linejoin="round"/>
<path d="M573.713 138.179L587.685 152.19C589.716 154.229 589.608 157.637 587.441 159.796L582.126 165.093C579.98 167.24 576.546 167.356 574.52 165.317L560.548 151.306L573.713 138.179Z" fill="#F7F3EF" stroke="#070707" stroke-width="2" stroke-linecap="round" stroke-linejoin="round"/>
<path d="M576.529 141.004C578.997 138.54 582.878 138.428 585.191 140.751L588.011 143.579C590.329 145.902 590.205 149.778 587.737 152.242" stroke="#070707" stroke-width="2" stroke-linecap="round" stroke-linejoin="round"/>
<path d="M581.839 135.467H580.186V141.115H581.839V135.467Z" fill="#F7F3EF" stroke="#070707" stroke-width="2" stroke-linecap="round" stroke-linejoin="round"/>
<path d="M592.742 46.8223H588.81C588.108 46.8285 587.411 46.6961 586.761 46.4326C586.11 46.1691 585.517 45.7798 585.017 45.2869C584.517 44.794 584.119 44.2073 583.846 43.5603C583.574 42.9133 583.431 42.2189 583.427 41.5168V40.3749C583.426 39.6869 583.562 39.0056 583.826 38.3704C583.948 38.069 584.1 37.7813 584.281 37.5119C584.544 36.876 584.679 36.1951 584.681 35.5073V34.7561C584.659 33.3466 584.081 32.0028 583.073 31.0177C582.064 30.0326 580.707 29.4863 579.298 29.4978H578.534C577.833 29.4915 577.138 29.6234 576.488 29.8858C575.839 30.1482 575.247 30.536 574.747 31.0271C574.247 31.5181 573.849 32.1029 573.575 32.7478C573.301 33.3928 573.157 34.0854 573.151 34.7861V35.5373C573.15 36.2253 573.286 36.9067 573.55 37.5419C573.73 37.8123 573.882 38.0999 574.005 38.4004C574.27 39.0356 574.405 39.717 574.404 40.405V41.5168C574.404 44.4356 571.996 47.6636 569.022 47.6636H565.085C561.368 47.6636 558.355 49.7626 558.355 53.4198V98.5597C558.372 100.328 559.09 102.018 560.352 103.258C561.614 104.497 563.317 105.185 565.085 105.17H592.742C594.511 105.185 596.213 104.497 597.475 103.258C598.737 102.018 599.456 100.328 599.473 98.5597V53.437C599.465 52.5606 599.285 51.6943 598.943 50.8875C598.601 50.0807 598.103 49.3493 597.478 48.735C596.853 48.1207 596.113 47.6356 595.3 47.3074C594.488 46.9792 593.618 46.8143 592.742 46.8223ZM578.911 33.9233C579.205 33.9284 579.49 34.0201 579.732 34.1868C579.973 34.3535 580.16 34.5879 580.269 34.8604C580.378 35.133 580.404 35.4317 580.343 35.7189C580.283 36.0061 580.139 36.2691 579.93 36.4748C579.721 36.6806 579.455 36.8199 579.167 36.8753C578.879 36.9307 578.581 36.8998 578.31 36.7863C578.039 36.6729 577.808 36.482 577.646 36.2376C577.483 35.9932 577.396 35.7063 577.396 35.4128C577.398 35.2155 577.438 35.0205 577.516 34.8389C577.593 34.6572 577.705 34.4926 577.845 34.3542C577.986 34.2159 578.153 34.1067 578.336 34.0328C578.519 33.9588 578.714 33.9216 578.911 33.9233Z" fill="#F7F3EF" stroke="#070707" stroke-width="2" stroke-linecap="round" stroke-linejoin="round"/>
<path d="M590.741 46.1312H586.809C585.382 46.1312 584.013 45.5641 583.003 44.5546C581.994 43.5452 581.427 42.176 581.427 40.7484V39.5852C581.428 38.8862 581.563 38.1941 581.826 37.5462C581.95 37.2464 582.102 36.9589 582.281 36.6877C582.545 36.039 582.681 35.345 582.68 34.6445V33.8847C582.681 33.1777 582.542 32.4775 582.271 31.8242C582.001 31.1708 581.605 30.5772 581.105 30.0773C580.605 29.5773 580.011 29.1808 579.358 28.9105C578.704 28.6402 578.004 28.5014 577.297 28.5019H576.537C575.83 28.5014 575.13 28.6402 574.477 28.9105C573.824 29.1808 573.23 29.5773 572.73 30.0773C572.23 30.5772 571.834 31.1708 571.563 31.8242C571.293 32.4775 571.154 33.1777 571.155 33.8847V34.6488C571.154 35.3493 571.289 36.0433 571.554 36.692C571.725 36.9633 571.869 37.2509 571.983 37.5505C572.249 38.1975 572.386 38.89 572.387 39.5895V40.7527C572.385 42.18 571.818 43.5484 570.809 44.5577C569.8 45.5669 568.431 46.1344 567.004 46.1355H563.068C562.184 46.1349 561.308 46.3087 560.491 46.6467C559.674 46.9847 558.932 47.4805 558.307 48.1056C557.682 48.7307 557.186 49.4729 556.848 50.2898C556.51 51.1066 556.336 51.9821 556.337 52.8661V98.7958C556.337 99.6797 556.511 100.555 556.849 101.372C557.188 102.188 557.683 102.93 558.308 103.555C558.933 104.18 559.675 104.676 560.492 105.014C561.308 105.352 562.184 105.526 563.068 105.526H590.72C591.604 105.527 592.48 105.353 593.297 105.015C594.114 104.677 594.856 104.182 595.482 103.557C596.107 102.932 596.603 102.189 596.942 101.373C597.28 100.556 597.455 99.6801 597.455 98.7958V52.8661C597.456 51.0833 596.75 49.3728 595.491 48.1101C594.232 46.8475 592.524 46.1358 590.741 46.1312ZM576.915 36.0353C576.614 36.0353 576.32 35.946 576.07 35.7789C575.821 35.6117 575.626 35.3741 575.511 35.0962C575.396 34.8183 575.366 34.5126 575.425 34.2177C575.484 33.9228 575.629 33.6521 575.842 33.4397C576.055 33.2274 576.326 33.083 576.621 33.0249C576.916 32.9667 577.222 32.9974 577.5 33.1131C577.777 33.2288 578.014 33.4242 578.181 33.6746C578.347 33.9251 578.436 34.2193 578.435 34.52C578.435 34.7194 578.395 34.9168 578.319 35.1009C578.242 35.285 578.13 35.4522 577.989 35.593C577.848 35.7337 577.681 35.8453 577.496 35.9212C577.312 35.9971 577.115 36.0358 576.915 36.0353Z" fill="#F7F3EF" stroke="#070707" stroke-width="2" stroke-linecap="round" stroke-linejoin="round"/>
<path d="M79.9133 56.1843H92.8294V73.6848C92.8294 75.3924 92.1511 77.0302 90.9436 78.2377C89.7361 79.4452 88.0984 80.1235 86.3907 80.1235C84.683 80.1235 83.0453 79.4452 81.8378 78.2377C80.6303 77.0302 79.952 75.3924 79.952 73.6848V56.1843H79.9133Z" fill="#F7F3EF" stroke="#070707" stroke-width="2" stroke-linecap="round" stroke-linejoin="round"/>
<path d="M86.3733 80.1106V100.732" stroke="#070707" stroke-width="2" stroke-linecap="round" stroke-linejoin="round"/>
<path d="M93.1984 105.582L86.3733 100.839L79.5439 105.582H93.1984Z" fill="#F7F3EF" stroke="#070707" stroke-width="2" stroke-linecap="round" stroke-linejoin="round"/>
<path d="M101.904 56.1843H114.82V73.6848C114.82 75.3924 114.141 77.0302 112.934 78.2377C111.726 79.4452 110.089 80.1235 108.381 80.1235C106.673 80.1235 105.036 79.4452 103.828 78.2377C102.621 77.0302 101.942 75.3924 101.942 73.6848V56.1843H101.904Z" fill="#F7F3EF" stroke="#070707" stroke-width="2" stroke-linecap="round" stroke-linejoin="round"/>
<path d="M108.364 80.1106V100.732" stroke="#070707" stroke-width="2" stroke-linecap="round" stroke-linejoin="round"/>
<path d="M115.189 105.582L108.364 100.839L101.539 105.582H115.189Z" fill="#F7F3EF" stroke="#070707" stroke-width="2" stroke-linecap="round" stroke-linejoin="round"/>
<path d="M123.898 56.1843H136.815V73.6848C136.815 75.3924 136.136 77.0302 134.929 78.2377C133.721 79.4452 132.083 80.1235 130.376 80.1235C128.668 80.1235 127.03 79.4452 125.823 78.2377C124.615 77.0302 123.937 75.3924 123.937 73.6848V56.1843H123.898Z" fill="#F7F3EF" stroke="#070707" stroke-width="2" stroke-linecap="round" stroke-linejoin="round"/>
<path d="M130.354 80.1106V100.732" stroke="#070707" stroke-width="2" stroke-linecap="round" stroke-linejoin="round"/>
<path d="M137.184 105.582L130.359 100.839L123.529 105.582H137.184Z" fill="#F7F3EF" stroke="#070707" stroke-width="2" stroke-linecap="round" stroke-linejoin="round"/>
<path d="M31.468 135.467H150.387" stroke="#070707" stroke-width="2" stroke-linecap="round" stroke-linejoin="round"/>
<path d="M150.276 116.653H161.351V122.701L150.276 120.834V116.653Z" fill="#F7F3EF" stroke="#070707" stroke-width="2" stroke-linecap="round" stroke-linejoin="round"/>
<path d="M20.4106 116.653H31.4853V122.701L20.4106 120.834V116.653Z" fill="#F7F3EF" stroke="#070707" stroke-width="2" stroke-linecap="round" stroke-linejoin="round"/>
<path d="M176.752 105.582H5.01343V116.657H176.752V105.582Z" fill="#F7F3EF" stroke="#070707" stroke-width="2" stroke-linecap="round" stroke-linejoin="round"/>
<path d="M31.4853 116.653H20.4106V135.467H31.4853V116.653Z" fill="#F7F3EF" stroke="#070707" stroke-width="2" stroke-linecap="round" stroke-linejoin="round"/>
<path d="M161.351 116.653H150.276V135.467H161.351V116.653Z" fill="#F7F3EF" stroke="#070707" stroke-width="2" stroke-linecap="round" stroke-linejoin="round"/>
<path d="M21.8059 81.0678H60.8676V85.5663C60.8676 90.7439 58.8108 95.7095 55.1497 99.3707C51.4885 103.032 46.523 105.089 41.3453 105.089C36.1677 105.089 31.2021 103.032 27.541 99.3707C23.8799 95.7095 21.8231 90.7439 21.8231 85.5663V81.0678H21.8059Z" fill="#647CB8" stroke="#070707" stroke-width="2" stroke-linecap="round" stroke-linejoin="round"/>
<path d="M39.3491 81.0678C39.3491 81.0678 40.9202 53.1966 50.3637 40.0401L39.3491 81.0678Z" fill="#F7F3EF"/>
<path d="M39.3491 81.0678C39.3491 81.0678 40.9202 53.1966 50.3637 40.0401" stroke="#070707" stroke-width="2" stroke-linecap="round" stroke-linejoin="round"/>
<path d="M42.7229 58.8155C42.7229 58.8155 44.2982 46.6892 56.0296 45.981C56.0382 45.981 57.6951 59.0602 42.7229 58.8155Z" fill="#2D3F6B" stroke="black" stroke-width="2" stroke-linecap="round" stroke-linejoin="round"/>
<path d="M44.7235 51.3895C44.7235 51.3895 51.3726 38.336 41.3281 33.2451C41.3496 33.2494 35.3873 45.4873 44.7235 51.3895Z" fill="#2D3F6B" stroke="black" stroke-width="2" stroke-linecap="round" stroke-linejoin="round"/>
<path d="M19.1143 61.5369C19.1143 61.5369 18.5133 46.9038 7.2627 47.3717C7.2627 47.3846 8.08257 60.966 19.1143 61.5369Z" fill="#2D3F6B" stroke="black" stroke-width="2" stroke-linecap="round" stroke-linejoin="round"/>
<path d="M40.392 71.1865C40.392 71.1865 45.0064 56.3774 34.6787 51.3938C34.6787 51.3895 29.4118 66.1213 40.392 71.1865Z" fill="#2D3F6B" stroke="black" stroke-width="2" stroke-linecap="round" stroke-linejoin="round"/>
<path d="M39.9199 76.9813C39.9199 76.9813 38.396 63.3012 50.4021 61.288C50.4021 61.288 53.0678 74.9982 39.9199 76.9813Z" fill="#2D3F6B" stroke="black" stroke-width="2" stroke-linecap="round" stroke-linejoin="round"/>
<path d="M50.0373 40.4651C50.0373 40.4651 48.5135 26.7892 60.5196 24.776C60.5196 24.776 63.1852 38.4648 50.0373 40.4651Z" fill="#2D3F6B" stroke="black" stroke-width="2" stroke-linecap="round" stroke-linejoin="round"/>
<path d="M18.8352 61.288L33.4168 81.0678" stroke="#070707" stroke-width="2" stroke-linecap="round" stroke-linejoin="round"/>
<path d="M25.7893 70.7057C25.7893 70.7057 18.9771 61.919 22.7845 52.3853C22.7974 52.3982 31.1849 58.8241 25.7893 70.7057Z" fill="#2D3F6B" stroke="black" stroke-width="2" stroke-linecap="round" stroke-linejoin="round"/>
<path d="M26.8966 72.2253C26.8966 72.2253 18.8353 77.6681 11.199 67.6237C11.199 67.6237 20.3806 63.4085 26.8966 72.2253Z" fill="#2D3F6B" stroke="black" stroke-width="2" stroke-linecap="round" stroke-linejoin="round"/>
<path d="M33.4169 81.0077C33.4169 81.0077 27.0125 87.0515 18.7151 79.2005C18.7151 79.2048 26.2956 74.071 33.4169 81.0077Z" fill="#2D3F6B" stroke="black" stroke-width="2" stroke-linecap="round" stroke-linejoin="round"/>
<path d="M33.4171 81.0678C33.4171 81.0678 27.4634 74.2728 31.7001 67.3318C31.7087 67.3404 38.5209 74.1397 33.4171 81.0678Z" fill="#2D3F6B" stroke="black" stroke-width="2" stroke-linecap="round" stroke-linejoin="round"/>
<path d="M50.3638 81.0506C50.3638 81.0506 52.0808 71.0191 61.1336 69.7914C61.1508 69.7914 62.6875 81.0506 50.3638 81.0506Z" fill="#2D3F6B" stroke="black" stroke-width="2" stroke-linecap="round" stroke-linejoin="round"/>
<path d="M87.9918 153.911H86.5667V193.948H87.9918V153.911Z" fill="#F7F3EF" stroke="#070707" stroke-width="2" stroke-linecap="round" stroke-linejoin="round"/>
<path d="M92.456 213.174H82.1025C81.7251 213.166 81.3539 213.077 81.0139 212.913C80.6739 212.749 80.373 212.514 80.1317 212.224C79.8904 211.934 79.7142 211.595 79.615 211.231C79.5159 210.867 79.4961 210.486 79.557 210.113L80.3039 195.768C80.3854 195.147 80.6876 194.578 81.155 194.162C81.6225 193.747 82.224 193.514 82.8494 193.505H91.7048C92.3306 193.513 92.9327 193.746 93.4009 194.162C93.8691 194.577 94.1721 195.147 94.2545 195.768L95.0057 210.113C95.0667 210.486 95.0468 210.867 94.9474 211.232C94.848 211.596 94.6715 211.935 94.4297 212.226C94.1878 212.516 93.8865 212.751 93.5459 212.914C93.2054 213.078 92.8337 213.166 92.456 213.174Z" fill="#F7F3EF" stroke="#070707" stroke-width="2" stroke-linecap="round" stroke-linejoin="round"/>
<path d="M87.2788 197.549V209.74" stroke="#070707" stroke-width="2" stroke-linecap="round" stroke-linejoin="round"/>
<path d="M90.4468 198.566V208.727" stroke="#070707" stroke-width="2" stroke-linecap="round" stroke-linejoin="round"/>
<path d="M84.1116 198.566V208.727" stroke="#070707" stroke-width="2" stroke-linecap="round" stroke-linejoin="round"/>
<path d="M89.1509 136.669L88.5199 153.238C88.5044 153.555 88.3666 153.855 88.1354 154.073C87.9042 154.291 87.5974 154.412 87.2794 154.409C86.9618 154.41 86.6565 154.287 86.4276 154.067C86.1986 153.847 86.0639 153.546 86.0517 153.229L85.425 138.347C85.425 137.857 85.3285 137.372 85.1411 136.919C84.9536 136.467 84.6788 136.056 84.3325 135.709C83.9861 135.363 83.5749 135.088 83.1223 134.901C82.6697 134.713 82.1847 134.617 81.6948 134.617C81.7071 134.169 81.8941 133.743 82.2157 133.432C82.5373 133.12 82.9681 132.946 83.4161 132.947H85.4465C86.4298 132.954 87.3707 133.349 88.0645 134.046C88.7582 134.742 89.1486 135.685 89.1509 136.669Z" fill="#F7F3EF" stroke="#070707" stroke-width="2" stroke-linecap="round" stroke-linejoin="round"/>
<path d="M42.7318 153.911H41.3066V195.712H42.7318V153.911Z" fill="#F7F3EF" stroke="#070707" stroke-width="2" stroke-linecap="round" stroke-linejoin="round"/>
<path d="M25.5833 208.066C29.0859 213.084 35.5848 214.221 40.4482 210.598C45.3116 206.98 45.6979 199.974 42.1909 194.952L25.5833 208.066Z" fill="#F7F3EF" stroke="#070707" stroke-width="2" stroke-linecap="round" stroke-linejoin="round"/>
<path d="M43.8393 136.669L43.2083 153.238C43.1961 153.556 43.0609 153.857 42.8312 154.078C42.6015 154.299 42.2951 154.423 41.9764 154.422C41.6584 154.423 41.3526 154.3 41.123 154.08C40.8934 153.86 40.7577 153.56 40.7444 153.242L40.1177 138.36C40.1177 137.371 39.7253 136.423 39.0267 135.724C38.3281 135.024 37.3804 134.631 36.3918 134.63C36.3918 134.181 36.57 133.751 36.8872 133.434C37.2044 133.117 37.6345 132.938 38.0831 132.938H40.1091C41.0984 132.938 42.0472 133.331 42.7468 134.031C43.4463 134.73 43.8393 135.679 43.8393 136.669Z" fill="#F7F3EF" stroke="#070707" stroke-width="2" stroke-linecap="round" stroke-linejoin="round"/>
<path d="M112.339 153.911H110.914V193.948H112.339V153.911Z" fill="#F7F3EF" stroke="#070707" stroke-width="2" stroke-linecap="round" stroke-linejoin="round"/>
<path d="M116.854 198.996L115.996 213.384H115.828L114.541 199.996C114.474 199.261 114.139 198.577 113.601 198.073C113.074 197.577 112.379 197.301 111.656 197.3C110.93 197.31 110.234 197.588 109.701 198.081C109.168 198.574 108.837 199.247 108.772 199.97L107.402 213.384H107.346L106.488 198.996C106.466 197.601 106.999 196.255 107.968 195.253C108.938 194.251 110.266 193.675 111.66 193.651C112.344 193.652 113.021 193.791 113.65 194.059C114.28 194.328 114.848 194.72 115.322 195.214C116.303 196.228 116.853 197.584 116.854 198.996Z" fill="#F7F3EF" stroke="#070707" stroke-width="2" stroke-linecap="round" stroke-linejoin="round"/>
<path d="M113.498 136.669L112.867 153.238C112.854 153.556 112.719 153.857 112.49 154.078C112.26 154.299 111.953 154.423 111.635 154.422C111.317 154.423 111.012 154.3 110.783 154.08C110.554 153.859 110.419 153.559 110.407 153.242L109.78 138.36C109.78 137.371 109.388 136.423 108.689 135.724C107.991 135.024 107.043 134.631 106.054 134.63C106.054 134.182 106.232 133.752 106.548 133.435C106.865 133.118 107.294 132.939 107.741 132.938H109.772C110.76 132.939 111.708 133.333 112.407 134.032C113.105 134.732 113.498 135.68 113.498 136.669Z" fill="#F7F3EF" stroke="#070707" stroke-width="2" stroke-linecap="round" stroke-linejoin="round"/>
<path d="M64.7864 153.911H63.3613V185.491H64.7864V153.911Z" fill="#F7F3EF" stroke="#070707" stroke-width="2" stroke-linecap="round" stroke-linejoin="round"/>
<path d="M70.8086 202.597C71.2378 209.25 68.2074 213.38 64.078 213.38C60.4122 213.38 56.8194 208.632 57.3431 202.597C57.8581 196.665 61.2921 185.049 64.078 185.049C66.8638 185.049 70.4266 196.652 70.8086 202.597Z" fill="#F7F3EF" stroke="#070707" stroke-width="2" stroke-linecap="round" stroke-linejoin="round"/>
<path d="M68.2804 203.125C68.5465 209.452 66.0311 213.38 64.0737 213.38C62.4984 213.38 59.5452 208.864 59.8714 203.125C60.1933 197.48 62.3353 185.431 64.0737 185.431C65.8122 185.431 68.04 197.472 68.2804 203.125Z" fill="#F7F3EF" stroke="#070707" stroke-width="2" stroke-linecap="round" stroke-linejoin="round"/>
<path d="M65.6494 136.669L65.0184 153.238C65.0062 153.556 64.871 153.857 64.6413 154.078C64.4115 154.299 64.1051 154.423 63.7864 154.422C63.4684 154.423 63.1626 154.3 62.933 154.08C62.7034 153.86 62.5678 153.56 62.5545 153.242L61.9278 138.36C61.9283 137.87 61.8324 137.385 61.6454 136.933C61.4584 136.48 61.184 136.069 60.838 135.722C60.492 135.376 60.0811 135.101 59.6287 134.914C59.1764 134.726 58.6916 134.63 58.2019 134.63C58.2108 134.185 58.392 133.76 58.7076 133.447C59.0231 133.133 59.4481 132.954 59.8931 132.947H61.9235C62.9106 132.948 63.857 133.34 64.5553 134.038C65.2537 134.736 65.6471 135.681 65.6494 136.669Z" fill="#F7F3EF" stroke="#070707" stroke-width="2" stroke-linecap="round" stroke-linejoin="round"/>
<path d="M64.0735 185.431V213.38" stroke="#070707" stroke-width="2" stroke-linecap="round" stroke-linejoin="round"/>
<path d="M162.913 149.567C162.383 148.968 161.679 148.549 160.899 148.37L148.151 145.648L145.395 142.644L127.925 158.655L143.575 175.73C148.881 181.521 157.075 182.954 161.968 178.756C164.544 176.541 165.729 173.249 165.54 169.742C165.271 166.051 163.74 162.565 161.204 159.869L158.689 157.126C158.032 156.405 158.178 155.362 158.976 155.13L162.621 154.062C162.867 153.973 163.094 153.836 163.286 153.658C164.273 152.782 164.179 150.945 162.913 149.567Z" fill="#F7F3EF" stroke="#070707" stroke-width="2" stroke-linecap="round" stroke-linejoin="round"/>
<path d="M161.333 150.396C160.803 149.797 160.1 149.378 159.32 149.198L146.571 146.477L143.816 143.472L126.341 159.483L141.991 176.559C147.297 182.349 155.491 183.783 160.389 179.563C162.964 177.348 164.145 174.056 163.956 170.549C163.688 166.858 162.157 163.372 159.621 160.676L157.109 157.933C156.448 157.212 156.594 156.169 157.393 155.937L161.037 154.864C161.284 154.779 161.511 154.643 161.702 154.465C162.694 153.611 162.6 151.774 161.333 150.396Z" fill="#647CB8" stroke="#070707" stroke-width="2" stroke-linecap="round" stroke-linejoin="round"/>
<path d="M140.378 136.535C140.425 137.54 142.386 140.613 142.386 140.613C142.386 140.613 144.065 137.381 144.022 136.372C143.992 135.895 143.775 135.449 143.42 135.13C143.064 134.811 142.597 134.644 142.12 134.666C141.642 134.687 141.192 134.895 140.866 135.244C140.541 135.594 140.365 136.058 140.378 136.535Z" fill="#F7F3EF" stroke="#070707" stroke-width="2" stroke-linecap="round" stroke-linejoin="round"/>
<path d="M141.996 141.103L123.821 157.757C123.746 157.826 123.685 157.91 123.642 158.002C123.598 158.095 123.574 158.195 123.57 158.297C123.565 158.399 123.581 158.501 123.616 158.597C123.651 158.693 123.705 158.781 123.774 158.856L125.062 160.26C125.131 160.335 125.214 160.396 125.306 160.439C125.399 160.483 125.499 160.507 125.601 160.511C125.703 160.516 125.805 160.5 125.901 160.465C125.997 160.43 126.085 160.376 126.161 160.307L144.369 143.652C144.522 143.512 144.612 143.317 144.621 143.11C144.63 142.904 144.556 142.702 144.416 142.549L143.129 141.15C143.059 141.07 142.973 141.006 142.878 140.96C142.782 140.915 142.678 140.889 142.572 140.884C142.466 140.88 142.361 140.897 142.262 140.935C142.162 140.972 142.072 141.029 141.996 141.103Z" fill="#647CB8" stroke="#070707" stroke-width="2" stroke-linecap="round" stroke-linejoin="round"/>
<path d="M231.202 3.78152H168.377V66.6065H231.202V3.78152Z" fill="black"/>
<path d="M228.416 1H165.591V63.8249H228.416V1Z" fill="#F7F3EF" stroke="#070707" stroke-width="2" stroke-linecap="round" stroke-linejoin="round"/>
<path d="M218.41 11.0058H175.597V53.8191H218.41V11.0058Z" fill="#F7F3EF" stroke="#070707" stroke-width="2" stroke-linecap="round" stroke-linejoin="round"/>
<path d="M197.236 22.8402C197.236 22.8402 198.412 18.9426 195.673 17.7579L197.236 22.8402Z" fill="#F7F3EF"/>
<path d="M197.236 22.8402C197.236 22.8402 198.412 18.9426 195.673 17.7579" stroke="#070707" stroke-width="2" stroke-linecap="round" stroke-linejoin="round"/>
<path d="M203.035 28.9613C203.284 30.4265 203.835 31.8239 204.653 33.0649C205.573 34.4447 206.103 36.0476 206.186 37.7039C206.269 39.3602 205.903 41.0082 205.126 42.4734C204.349 43.9385 203.19 45.1662 201.773 46.0265C200.355 46.8868 198.731 47.3476 197.072 47.3601C195.414 47.3726 193.783 46.9363 192.353 46.0975C190.922 45.2587 189.745 44.0486 188.946 42.5953C188.147 41.1421 187.756 39.4998 187.814 37.8424C187.873 36.185 188.378 34.5743 189.277 33.1808C190.128 31.9046 190.713 30.4693 190.994 28.9613L191.05 28.6394C191.119 28.2573 191.157 27.871 191.192 27.4804C191.313 26.1668 191.92 24.9457 192.894 24.0564C193.868 23.1671 195.139 22.6737 196.459 22.6728H197.588C198.907 22.6727 200.179 23.1658 201.153 24.0553C202.128 24.9448 202.734 26.1664 202.854 27.4804C202.889 27.871 202.927 28.2573 202.996 28.6394L203.035 28.9613Z" fill="#2D3F6B" stroke="black" stroke-width="2" stroke-linecap="round" stroke-linejoin="round"/>
<path d="M197.738 22.6299C197.738 22.6299 197.45 19.0585 202.584 17.4446C202.584 17.4489 203.296 23.8704 197.738 22.6299Z" fill="#F7F3EF" stroke="#070707" stroke-width="2" stroke-linecap="round" stroke-linejoin="round"/>
</g>
</svg>
