<svg width="40" height="40" viewBox="0 0 40 40" fill="none" xmlns="http://www.w3.org/2000/svg">
<circle cx="20" cy="20" r="20" fill="white"/>
<path d="M23.2932 18.0974H23.9437C24.4036 18.0986 24.8592 18.0087 25.2841 17.8326C25.709 17.6566 26.0948 17.398 26.4191 17.0719L30 13.4625L29.0279 12.4825L25.3713 16.1391L24.6113 15.3792L28.268 11.7221L27.2617 10.7461L23.6187 14.3887L22.8609 13.6287L26.5175 9.97169L25.5375 9L21.9282 12.5809C21.602 12.9053 21.3434 13.2911 21.1674 13.7161C20.9913 14.1411 20.9014 14.5968 20.9027 15.0567V15.7069L19.0157 17.5938L10.4 9C8.46278 11.4006 9.60684 15.8123 11.7878 17.9937L15.5284 21.7343C16.69 22.8959 16.9205 22.9996 18.2383 22.4693C18.5222 22.3551 18.6255 22.3678 18.8902 22.6321L19.4589 23.1627C19.5871 23.294 19.5902 23.3325 19.5902 23.5836V23.826C19.5902 24.7482 20.1799 25.2785 20.5684 25.674L25.1 30L28.25 26.85L21.4062 19.9843L23.2932 18.0974Z" fill="#2D3F6B"/>
<path d="M18.2474 23.8133C16.9428 24.0806 16.1426 24.3269 14.6127 22.797C14.5882 22.7725 14.5628 22.7488 14.5383 22.7243L13.6852 21.8712L9 26.5L12.5 30L18.8 23.7L18.2474 23.8133Z" fill="#2D3F6B"/>
</svg>
