<svg width="1026" height="604" viewBox="0 0 1026 604" fill="none" xmlns="http://www.w3.org/2000/svg">
<g opacity="0.08" clip-path="url(#clip0_208_16)">
<path d="M89.4289 407.711H242.068L242.068 290.039H89.4289L89.4289 407.711Z" fill="#F5F5F5"/>
<path d="M127.68 406.876C127.885 406.876 128.061 380.64 128.061 348.297C128.061 315.953 127.885 289.717 127.68 289.717C127.475 289.717 127.299 315.938 127.299 348.297C127.299 380.655 127.475 406.876 127.68 406.876Z" fill="#EBEBEB"/>
<path d="M102.385 394.161H114.08V380.933H102.385V394.161Z" fill="#FAFAFA"/>
<path d="M195.507 290.333H178.169V315.44H195.507V290.333Z" fill="#EBEBEB"/>
<path d="M195.507 382.252H178.169V407.359H195.507V382.252Z" fill="#EBEBEB"/>
<path d="M300.251 409.366H48.2611V603.619H300.251V409.366Z" fill="#EBEBEB"/>
<path d="M237.114 602.257C236.836 602.257 236.616 558.956 236.616 505.562C236.616 452.169 236.836 408.853 237.114 408.853C237.393 408.853 237.612 452.14 237.612 505.562C237.612 558.985 237.393 602.257 237.114 602.257Z" fill="#E0E0E0"/>
<path d="M278.868 559.41H259.552V581.236H278.868V559.41Z" fill="#FAFAFA"/>
<path d="M153.753 409.864H125.13V451.319H153.753V409.864Z" fill="#E0E0E0"/>
<path d="M153.753 561.593H125.13V603.048H153.753V561.593Z" fill="#E0E0E0"/>
<path d="M497.121 67.1779C497.121 67.3829 495.479 67.5587 493.457 67.5587C491.434 67.5587 489.793 67.3829 489.793 67.1779C489.793 66.9728 491.434 66.797 493.457 66.797C495.479 66.797 497.121 66.9728 497.121 67.1779Z" fill="#EBEBEB"/>
<path d="M511.776 67.1779C511.776 67.3829 510.135 67.5587 508.112 67.5587C506.09 67.5587 504.448 67.3829 504.448 67.1779C504.448 66.9728 506.09 66.797 508.112 66.797C510.135 66.797 511.776 66.9728 511.776 67.1779Z" fill="#EBEBEB"/>
<path d="M526.432 67.1779C526.432 67.3829 524.79 67.5587 522.768 67.5587C520.746 67.5587 519.104 67.3829 519.104 67.1779C519.104 66.9728 520.746 66.797 522.768 66.797C524.79 66.797 526.432 66.9728 526.432 67.1779Z" fill="#EBEBEB"/>
<path d="M541.088 67.1779C541.088 67.3829 539.446 67.5587 537.424 67.5587C535.401 67.5587 533.76 67.3829 533.76 67.1779C533.76 66.9728 535.401 66.797 537.424 66.797C539.446 66.797 541.088 66.9728 541.088 67.1779Z" fill="#EBEBEB"/>
<path d="M555.743 67.1779C555.743 67.3829 554.102 67.5587 552.079 67.5587C550.057 67.5587 548.415 67.3829 548.415 67.1779C548.415 66.9728 550.057 66.797 552.079 66.797C554.102 66.797 555.743 66.9728 555.743 67.1779Z" fill="#EBEBEB"/>
<path d="M570.399 67.1779C570.399 67.3829 568.758 67.5587 566.735 67.5587C564.713 67.5587 563.071 67.3829 563.071 67.1779C563.071 66.9728 564.713 66.797 566.735 66.797C568.758 66.797 570.399 66.9728 570.399 67.1779Z" fill="#EBEBEB"/>
<path d="M585.055 67.1779C585.055 67.3829 583.413 67.5587 581.391 67.5587C579.368 67.5587 577.727 67.3829 577.727 67.1779C577.727 66.9728 579.368 66.797 581.391 66.797C583.413 66.797 585.055 66.9728 585.055 67.1779Z" fill="#EBEBEB"/>
<path d="M599.71 67.1779C599.71 67.3829 598.069 67.5587 596.046 67.5587C594.024 67.5587 592.382 67.3829 592.382 67.1779C592.382 66.9728 594.024 66.797 596.046 66.797C598.069 66.797 599.71 66.9728 599.71 67.1779Z" fill="#EBEBEB"/>
<path d="M614.366 67.1779C614.366 67.3829 612.725 67.5587 610.702 67.5587C608.68 67.5587 607.038 67.3829 607.038 67.1779C607.038 66.9728 608.68 66.797 610.702 66.797C612.725 66.797 614.366 66.9728 614.366 67.1779Z" fill="#EBEBEB"/>
<path d="M629.022 67.1779C629.022 67.3829 627.38 67.5587 625.358 67.5587C623.335 67.5587 621.694 67.3829 621.694 67.1779C621.694 66.9728 623.335 66.797 625.358 66.797C627.38 66.797 629.022 66.9728 629.022 67.1779Z" fill="#EBEBEB"/>
<path d="M643.677 67.1779C643.677 67.3829 642.036 67.5587 640.013 67.5587C637.991 67.5587 636.35 67.3829 636.35 67.1779C636.35 66.9728 637.991 66.797 640.013 66.797C642.036 66.797 643.677 66.9728 643.677 67.1779Z" fill="#EBEBEB"/>
<path d="M658.333 67.1779C658.333 67.3829 656.692 67.5587 654.669 67.5587C652.647 67.5587 651.005 67.3829 651.005 67.1779C651.005 66.9728 652.647 66.797 654.669 66.797C656.692 66.797 658.333 66.9728 658.333 67.1779Z" fill="#EBEBEB"/>
<path d="M672.989 67.1779C672.989 67.3829 671.347 67.5587 669.325 67.5587C667.302 67.5587 665.661 67.3829 665.661 67.1779C665.661 66.9728 667.302 66.797 669.325 66.797C671.347 66.797 672.989 66.9728 672.989 67.1779Z" fill="#EBEBEB"/>
<path d="M687.644 67.1779C687.644 67.3829 686.003 67.5587 683.98 67.5587C681.958 67.5587 680.317 67.3829 680.317 67.1779C680.317 66.9728 681.958 66.797 683.98 66.797C686.003 66.797 687.644 66.9728 687.644 67.1779Z" fill="#EBEBEB"/>
<path d="M702.3 67.1779C702.3 67.3829 700.659 67.5587 698.636 67.5587C696.614 67.5587 694.972 67.3829 694.972 67.1779C694.972 66.9728 696.614 66.797 698.636 66.797C700.659 66.797 702.3 66.9728 702.3 67.1779Z" fill="#EBEBEB"/>
<path d="M716.956 67.1779C716.956 67.3829 715.314 67.5587 713.292 67.5587C711.269 67.5587 709.628 67.3829 709.628 67.1779C709.628 66.9728 711.269 66.797 713.292 66.797C715.314 66.797 716.956 66.9728 716.956 67.1779Z" fill="#EBEBEB"/>
<path d="M731.611 67.1779C731.611 67.3829 729.97 67.5587 727.947 67.5587C725.925 67.5587 724.284 67.3829 724.284 67.1779C724.284 66.9728 725.925 66.797 727.947 66.797C729.97 66.797 731.611 66.9728 731.611 67.1779Z" fill="#EBEBEB"/>
<path d="M746.267 67.1779C746.267 67.3829 744.626 67.5587 742.603 67.5587C740.581 67.5587 738.939 67.3829 738.939 67.1779C738.939 66.9728 740.581 66.797 742.603 66.797C744.626 66.797 746.267 66.9728 746.267 67.1779Z" fill="#EBEBEB"/>
<path d="M760.923 67.1779C760.923 67.3829 759.281 67.5587 757.259 67.5587C755.236 67.5587 753.595 67.3829 753.595 67.1779C753.595 66.9728 755.236 66.797 757.259 66.797C759.281 66.797 760.923 66.9728 760.923 67.1779Z" fill="#EBEBEB"/>
<path d="M775.578 67.1779C775.578 67.3829 773.937 67.5587 771.915 67.5587C769.892 67.5587 768.251 67.3829 768.251 67.1779C768.251 66.9728 769.892 66.797 771.915 66.797C773.937 66.797 775.578 66.9728 775.578 67.1779Z" fill="#EBEBEB"/>
<path d="M790.234 67.1779C790.234 67.3829 788.593 67.5587 786.57 67.5587C784.548 67.5587 782.906 67.3829 782.906 67.1779C782.906 66.9728 784.548 66.797 786.57 66.797C788.593 66.797 790.234 66.9728 790.234 67.1779Z" fill="#EBEBEB"/>
<path d="M804.89 67.1779C804.89 67.3829 803.248 67.5587 801.226 67.5587C799.203 67.5587 797.562 67.3829 797.562 67.1779C797.562 66.9728 799.203 66.797 801.226 66.797C803.248 66.797 804.89 66.9728 804.89 67.1779Z" fill="#EBEBEB"/>
<path d="M819.545 67.1779C819.545 67.3829 817.904 67.5587 815.882 67.5587C813.859 67.5587 812.218 67.3829 812.218 67.1779C812.218 66.9728 813.859 66.797 815.882 66.797C817.904 66.797 819.545 66.9728 819.545 67.1779Z" fill="#EBEBEB"/>
<path d="M823.297 78.0617C823.092 78.0617 822.916 76.421 822.916 74.3995C822.916 72.3781 823.092 70.7374 823.297 70.7374C823.503 70.7374 823.678 72.3781 823.678 74.3995C823.678 76.421 823.503 78.0617 823.297 78.0617Z" fill="#EBEBEB"/>
<path d="M823.297 92.7102C823.092 92.7102 822.916 91.0695 822.916 89.048C822.916 87.0266 823.092 85.3859 823.297 85.3859C823.503 85.3859 823.678 87.0266 823.678 89.048C823.678 91.0695 823.503 92.7102 823.297 92.7102Z" fill="#EBEBEB"/>
<path d="M823.297 107.359C823.092 107.359 822.916 105.718 822.916 103.696C822.916 101.675 823.092 100.034 823.297 100.034C823.503 100.034 823.678 101.675 823.678 103.696C823.678 105.718 823.503 107.359 823.297 107.359Z" fill="#EBEBEB"/>
<path d="M823.297 122.007C823.092 122.007 822.916 120.366 822.916 118.345C822.916 116.323 823.092 114.683 823.297 114.683C823.503 114.683 823.678 116.323 823.678 118.345C823.678 120.366 823.503 122.007 823.297 122.007Z" fill="#EBEBEB"/>
<path d="M823.297 136.656C823.092 136.656 822.916 135.015 822.916 132.993C822.916 130.972 823.092 129.331 823.297 129.331C823.503 129.331 823.678 130.972 823.678 132.993C823.678 135.015 823.503 136.656 823.297 136.656Z" fill="#EBEBEB"/>
<path d="M826.155 148.448C826.155 148.623 824.939 148.784 823.297 148.814H822.931V148.448C822.931 148.169 822.931 147.906 822.931 147.642C822.931 145.62 823.107 143.98 823.312 143.98C823.517 143.98 823.693 145.62 823.693 147.642C823.693 147.906 823.693 148.169 823.693 148.448L823.327 148.081C824.968 148.125 826.184 148.272 826.184 148.448H826.155Z" fill="#EBEBEB"/>
<path d="M840.811 148.448C840.811 148.653 839.169 148.828 837.147 148.828C835.124 148.828 833.483 148.653 833.483 148.448C833.483 148.242 835.124 148.067 837.147 148.067C839.169 148.067 840.811 148.242 840.811 148.448Z" fill="#EBEBEB"/>
<path d="M855.467 148.448C855.467 148.653 853.825 148.828 851.803 148.828C849.78 148.828 848.139 148.653 848.139 148.448C848.139 148.242 849.78 148.067 851.803 148.067C853.825 148.067 855.467 148.242 855.467 148.448Z" fill="#EBEBEB"/>
<path d="M870.122 148.448C870.122 148.653 868.481 148.828 866.458 148.828C864.436 148.828 862.794 148.653 862.794 148.448C862.794 148.242 864.436 148.067 866.458 148.067C868.481 148.067 870.122 148.242 870.122 148.448Z" fill="#EBEBEB"/>
<path d="M884.778 148.448C884.778 148.653 883.136 148.828 881.114 148.828C879.092 148.828 877.45 148.653 877.45 148.448C877.45 148.242 879.092 148.067 881.114 148.067C883.136 148.067 884.778 148.242 884.778 148.448Z" fill="#EBEBEB"/>
<path d="M899.434 148.448C899.434 148.653 897.792 148.828 895.77 148.828C893.747 148.828 892.106 148.653 892.106 148.448C892.106 148.242 893.747 148.067 895.77 148.067C897.792 148.067 899.434 148.242 899.434 148.448Z" fill="#EBEBEB"/>
<path d="M914.089 148.448C914.089 148.653 912.448 148.828 910.425 148.828C908.403 148.828 906.761 148.653 906.761 148.448C906.761 148.242 908.403 148.067 910.425 148.067C912.448 148.067 914.089 148.242 914.089 148.448Z" fill="#EBEBEB"/>
<path d="M928.745 148.448C928.745 148.653 927.104 148.828 925.081 148.828C923.059 148.828 921.417 148.653 921.417 148.448C921.417 148.242 923.059 148.067 925.081 148.067C927.104 148.067 928.745 148.242 928.745 148.448Z" fill="#EBEBEB"/>
<path d="M943.401 148.448C943.401 148.653 941.759 148.828 939.737 148.828C937.714 148.828 936.073 148.653 936.073 148.448C936.073 148.242 937.714 148.067 939.737 148.067C941.759 148.067 943.401 148.242 943.401 148.448Z" fill="#EBEBEB"/>
<path d="M949.102 157.412C948.896 157.412 948.721 155.772 948.721 153.75C948.721 151.729 948.896 150.088 949.102 150.088C949.307 150.088 949.483 151.729 949.483 153.75C949.483 155.772 949.307 157.412 949.102 157.412Z" fill="#EBEBEB"/>
<path d="M949.102 172.061C948.896 172.061 948.721 170.42 948.721 168.399C948.721 166.377 948.896 164.737 949.102 164.737C949.307 164.737 949.483 166.377 949.483 168.399C949.483 170.42 949.307 172.061 949.102 172.061Z" fill="#EBEBEB"/>
<path d="M949.102 186.709C948.896 186.709 948.721 185.069 948.721 183.047C948.721 181.026 948.896 179.385 949.102 179.385C949.307 179.385 949.483 181.026 949.483 183.047C949.483 185.069 949.307 186.709 949.102 186.709Z" fill="#EBEBEB"/>
<path d="M949.102 201.358C948.896 201.358 948.721 199.717 948.721 197.696C948.721 195.674 948.896 194.034 949.102 194.034C949.307 194.034 949.483 195.674 949.483 197.696C949.483 199.717 949.307 201.358 949.102 201.358Z" fill="#EBEBEB"/>
<path d="M949.102 216.006C948.896 216.006 948.721 214.366 948.721 212.344C948.721 210.323 948.896 208.682 949.102 208.682C949.307 208.682 949.483 210.323 949.483 212.344C949.483 214.366 949.307 216.006 949.102 216.006Z" fill="#EBEBEB"/>
<path d="M949.102 230.655C948.896 230.655 948.721 229.014 948.721 226.993C948.721 224.971 948.896 223.33 949.102 223.33C949.307 223.33 949.483 224.971 949.483 226.993C949.483 229.014 949.307 230.655 949.102 230.655Z" fill="#EBEBEB"/>
<path d="M949.102 245.303C948.896 245.303 948.721 243.663 948.721 241.641C948.721 239.62 948.896 237.979 949.102 237.979C949.307 237.979 949.483 239.62 949.483 241.641C949.483 243.663 949.307 245.303 949.102 245.303Z" fill="#EBEBEB"/>
<path d="M949.102 259.952C948.896 259.952 948.721 258.311 948.721 256.29C948.721 254.268 948.896 252.627 949.102 252.627C949.307 252.627 949.483 254.268 949.483 256.29C949.483 258.311 949.307 259.952 949.102 259.952Z" fill="#EBEBEB"/>
<path d="M949.102 274.6C948.896 274.6 948.721 272.959 948.721 270.938C948.721 268.917 948.896 267.276 949.102 267.276C949.307 267.276 949.483 268.917 949.483 270.938C949.483 272.959 949.307 274.6 949.102 274.6Z" fill="#EBEBEB"/>
<path d="M949.102 289.249C948.896 289.249 948.721 287.608 948.721 285.586C948.721 283.565 948.896 281.924 949.102 281.924C949.307 281.924 949.483 283.565 949.483 285.586C949.483 287.608 949.307 289.249 949.102 289.249Z" fill="#EBEBEB"/>
<path d="M949.102 303.897C948.896 303.897 948.721 302.256 948.721 300.235C948.721 298.213 948.896 296.573 949.102 296.573C949.307 296.573 949.483 298.213 949.483 300.235C949.483 302.256 949.307 303.897 949.102 303.897Z" fill="#EBEBEB"/>
<path d="M574.019 92.1681C574.019 92.1681 562.646 85.8693 551.493 112.764C540.34 139.658 536.515 154.951 536.515 154.951C536.515 154.951 533.452 160.635 529.451 157.398C525.45 154.146 519.558 144.507 513.374 146.807C506.955 149.195 505.372 156.695 507.467 167.344C509.563 178.008 513.3 201.519 513.637 203.658C513.96 205.752 513.007 208.931 509.915 207.159C506.837 205.386 488.547 187.984 480.809 197.154C473.071 206.324 483.799 235.049 484.912 238.213C486.026 241.377 485.499 242.813 484.033 243.721C482.567 244.644 476.969 238.213 471.561 233.482C466.153 228.75 459.06 224.209 455.044 229.864C451.028 235.533 451.336 257.696 475.152 291.871L487.228 306.988L506.486 304.395C547.375 296.338 562.998 280.606 564.038 273.736C565.079 266.866 556.813 265.21 549.647 264.873C542.465 264.537 533.98 265.269 533.555 263.584C533.13 261.9 533.745 260.508 536.749 258.999C539.754 257.491 567.424 244.263 568.23 232.295C569.036 220.327 543.784 220.152 540.34 219.287C536.896 218.423 538.42 215.464 540.106 214.19C541.82 212.886 560.858 198.56 569.769 192.349C578.679 186.138 582.754 179.649 579.793 173.467C576.95 167.52 566.002 170.362 560.873 169.922C555.743 169.483 557.487 163.272 557.487 163.272C557.487 163.272 565.372 149.605 576.027 122.52C586.681 95.4347 573.799 92.0509 573.799 92.0509" fill="#EBEBEB"/>
<path d="M487.887 302.989C495.787 283.125 506.94 255.777 519.353 225.601C531.767 195.44 542.978 168.12 550.995 148.301C554.981 138.413 558.22 130.401 560.462 124.82C561.576 122.066 562.441 119.927 563.042 118.433C563.335 117.73 563.569 117.173 563.731 116.778C563.892 116.411 563.98 116.221 563.98 116.221C563.98 116.221 563.921 116.426 563.789 116.807C563.643 117.217 563.438 117.774 563.159 118.491C562.587 119.986 561.752 122.154 560.697 124.922C558.542 130.503 555.377 138.545 551.42 148.477C543.52 168.34 532.367 195.689 519.954 225.85C507.541 256.026 496.315 283.345 488.313 303.165" fill="#E0E0E0"/>
<path d="M521.083 160.635C521.083 160.635 521.332 161.074 521.683 161.895C522.035 162.73 522.504 163.931 523.061 165.44C524.175 168.457 525.626 172.647 527.121 177.32C528.572 181.919 529.891 186.065 530.902 189.273C531.356 190.694 531.752 191.895 532.06 192.891C532.338 193.741 532.47 194.224 532.426 194.239C532.382 194.253 532.162 193.799 531.811 192.979C531.459 192.144 530.99 190.928 530.448 189.419C529.348 186.402 527.971 182.183 526.476 177.51C524.996 172.925 523.647 168.794 522.607 165.586C522.138 164.165 521.742 162.964 521.42 161.968C521.141 161.118 521.024 160.635 521.068 160.62L521.083 160.635Z" fill="#E0E0E0"/>
<path d="M534.243 194.458C534.185 194.283 542.714 190.928 553.296 186.973C563.892 183.003 572.524 179.942 572.583 180.103C572.641 180.279 564.112 183.633 553.53 187.588C542.949 191.558 534.302 194.619 534.243 194.458Z" fill="#E0E0E0"/>
<path d="M513.081 239.927C513.081 239.927 513.579 239.81 514.502 239.737C515.557 239.649 516.847 239.561 518.371 239.444C521.64 239.195 526.153 238.814 531.107 238.243C536.075 237.671 540.545 236.997 543.784 236.485C545.294 236.25 546.569 236.045 547.624 235.884C548.533 235.752 549.031 235.694 549.046 235.738C549.046 235.782 548.562 235.928 547.668 236.133C546.774 236.338 545.47 236.631 543.858 236.939C540.633 237.569 536.149 238.316 531.18 238.887C526.197 239.473 521.669 239.766 518.386 239.898C516.745 239.956 515.411 240 514.502 239.986C513.579 239.986 513.081 239.956 513.081 239.913V239.927Z" fill="#E0E0E0"/>
<path d="M494.439 211.949C494.439 211.949 494.776 212.286 495.289 212.959C495.802 213.633 496.52 214.629 497.399 215.86C499.158 218.321 501.561 221.763 504.17 225.572C506.779 229.38 509.124 232.867 510.78 235.401C511.615 236.661 512.275 237.701 512.714 238.418C513.154 239.136 513.388 239.546 513.344 239.576C513.3 239.605 513.007 239.239 512.494 238.565C511.981 237.891 511.263 236.895 510.384 235.664C508.625 233.204 506.222 229.761 503.613 225.953C501.004 222.144 498.659 218.672 497.003 216.138C496.168 214.878 495.508 213.838 495.069 213.12C494.629 212.403 494.395 211.993 494.439 211.963V211.949Z" fill="#E0E0E0"/>
<path d="M470.667 249.712C470.667 249.712 471.077 250.152 471.737 251.016C472.455 251.998 473.364 253.243 474.463 254.722C476.734 257.872 479.842 262.251 483.242 267.1C486.642 271.963 489.675 276.373 491.859 279.595C492.885 281.133 493.735 282.408 494.409 283.418C494.995 284.327 495.303 284.854 495.274 284.869C495.23 284.898 494.864 284.429 494.204 283.565C493.486 282.583 492.577 281.338 491.478 279.859C489.206 276.709 486.099 272.33 482.699 267.481C479.299 262.632 476.266 258.208 474.082 254.986C473.056 253.448 472.206 252.173 471.532 251.163C470.945 250.254 470.638 249.727 470.667 249.712Z" fill="#E0E0E0"/>
<path d="M494.908 283.887C494.908 283.887 495.538 283.741 496.696 283.609C497.971 283.462 499.627 283.272 501.591 283.052C505.723 282.584 511.424 281.91 517.712 281.001C523.999 280.093 529.656 279.141 533.745 278.409C535.694 278.072 537.321 277.779 538.596 277.559C539.739 277.369 540.384 277.281 540.399 277.325C540.399 277.369 539.783 277.544 538.655 277.808C537.526 278.086 535.885 278.453 533.833 278.863C529.759 279.698 524.087 280.738 517.8 281.646C511.512 282.554 505.782 283.155 501.635 283.506C499.553 283.682 497.883 283.799 496.71 283.858C495.552 283.917 494.908 283.931 494.893 283.887H494.908Z" fill="#E0E0E0"/>
<path d="M1000.59 339.742C1000.59 308.057 971.935 283.052 939.106 289.204C918.457 293.072 902.013 309.932 898.393 330.616C896.136 343.55 898.803 355.709 904.695 365.743H904.666L904.812 365.933C906.791 369.258 909.267 371.631 911.759 375.132L941.657 414.713C945.379 419.634 952.78 419.634 956.503 414.713L985.902 375.777C985.902 375.777 991.383 369.229 993.376 365.875L993.479 365.728H993.464C997.949 358.096 1000.57 349.219 1000.57 339.727L1000.59 339.742ZM949.087 362.154C936.571 362.154 926.429 352.017 926.429 339.507C926.429 326.998 936.571 316.861 949.087 316.861C961.603 316.861 971.745 326.998 971.745 339.507C971.745 352.017 961.603 362.154 949.087 362.154Z" fill="#F5F5F5"/>
<path d="M757.464 110.889V171.416C757.464 172.72 758.519 173.775 759.824 173.775H886.8C888.119 173.775 889.175 172.705 889.16 171.387L888.867 149.224C888.867 148.726 888.691 148.242 888.398 147.847L870.181 123.516C869.741 122.93 869.052 122.578 868.305 122.564L847.318 122.403C846.028 122.403 844.973 121.333 844.973 120.044V110.889C844.973 109.585 843.918 108.53 842.613 108.53H759.809C758.505 108.53 757.449 109.585 757.449 110.889H757.464Z" fill="#F5F5F5"/>
<path d="M850.894 127.676V147.1C850.894 147.862 851.51 148.462 852.272 148.447L880.308 147.949C881.378 147.935 882.008 146.734 881.407 145.84L868.305 126.519C868.041 126.138 867.616 125.918 867.147 125.933L852.228 126.328C851.495 126.343 850.909 126.944 850.909 127.676H850.894Z" fill="#EBEBEB"/>
<path d="M891.681 175.62H754.899V179.839H891.681V175.62Z" fill="#F5F5F5"/>
<path d="M796.177 186.788C801.46 181.508 801.46 172.948 796.177 167.667C790.894 162.387 782.329 162.387 777.046 167.668C771.764 172.948 771.764 181.508 777.046 186.788C782.329 192.069 790.894 192.069 796.177 186.788Z" fill="#EBEBEB"/>
<path d="M794.572 177.232C794.572 181.626 791.011 185.186 786.614 185.186C782.217 185.186 778.656 181.626 778.656 177.232C778.656 172.837 782.217 169.278 786.614 169.278C791.011 169.278 794.572 172.837 794.572 177.232Z" fill="#FAFAFA"/>
<path d="M844.885 173.775C844.548 173.775 844.27 159.17 844.27 141.153C844.27 123.135 844.548 108.53 844.885 108.53C845.222 108.53 845.501 123.135 845.501 141.153C845.501 159.17 845.222 173.775 844.885 173.775Z" fill="#EBEBEB"/>
<path d="M869.891 186.792C875.174 181.512 875.174 172.951 869.891 167.671C864.608 162.391 856.044 162.391 850.761 167.671C845.478 172.951 845.478 181.512 850.761 186.792C856.043 192.072 864.608 192.072 869.891 186.792Z" fill="#EBEBEB"/>
<path d="M868.305 177.232C868.305 181.626 864.744 185.186 860.347 185.186C855.95 185.186 852.389 181.626 852.389 177.232C852.389 172.837 855.95 169.278 860.347 169.278C864.744 169.278 868.305 172.837 868.305 177.232Z" fill="#FAFAFA"/>
<path d="M860.376 152.285C860.376 152.622 858.442 152.901 856.053 152.901C853.664 152.901 851.729 152.622 851.729 152.285C851.729 151.948 853.664 151.67 856.053 151.67C858.442 151.67 860.376 151.948 860.376 152.285Z" fill="#EBEBEB"/>
<path d="M1026 603.619C1026 603.824 796.302 604 513.022 604C229.742 604 0 603.824 0 603.619C0 603.414 229.654 603.238 513.022 603.238C796.389 603.238 1026 603.414 1026 603.619Z" fill="#263238"/>
<path d="M204.886 597.174C224.628 583.492 229.185 557.975 228.497 535.02C228.379 531.183 228.819 527.154 227.002 523.785C225.184 520.416 220.949 518.101 217.505 519.713C214.647 521.046 213.401 524.342 211.804 527.081C209.679 530.714 206.498 533.717 202.791 535.636C200.343 536.895 197.324 537.657 194.921 536.324C191.623 534.493 191.242 529.923 191.286 526.114C191.359 519.01 191.418 511.905 191.491 504.815C191.535 501.007 191.55 497.11 190.377 493.492C189.205 489.874 186.596 486.505 182.976 485.479C179.356 484.454 174.857 486.519 174.08 490.255C173.758 491.807 174.08 493.419 173.948 495.001C173.831 496.583 173.098 498.326 171.589 498.765C170.064 499.205 168.54 498.121 167.412 497.008C163.484 493.14 160.831 488.175 158.355 483.238C155.878 478.302 153.474 473.248 149.913 469.044C146.352 464.84 141.427 461.485 135.975 461.163C130.509 460.841 124.691 464.18 123.284 469.542C121.877 474.903 124.998 480.367 128.398 484.732C133.44 491.207 139.405 496.934 146.058 501.681C147.26 502.53 148.55 503.468 149.004 504.874C149.825 507.423 147.407 509.928 144.901 510.763C142.057 511.7 138.98 511.392 136.005 511.729C133.03 512.066 129.805 513.37 128.677 516.168C127.109 520.064 130.348 524.151 133.543 526.832C139.947 532.208 147.26 536.471 155.072 539.356C157.871 540.396 160.817 541.305 163.074 543.282C165.331 545.26 166.679 548.687 165.301 551.368C163.924 554.049 160.421 554.898 157.475 554.342C154.544 553.785 151.921 552.188 149.122 551.119C143.889 549.127 137.119 549.464 133.748 553.976C131.535 556.949 131.33 561.08 132.429 564.64C133.528 568.185 135.785 571.246 138.174 574.073C146.542 583.946 157.255 591.915 169.405 596.163C181.54 600.411 192.795 601.598 204.901 597.218" fill="#2D3F6B"/>
<path d="M203.582 603.634C202.776 594.537 202.366 594.347 199.009 582.76C195.668 571.158 190.949 558.766 185.585 545.948C184.222 542.755 182.888 539.591 181.569 536.485C180.25 533.38 178.931 530.304 177.451 527.374C174.534 521.5 171.281 516.065 168.027 511.012C164.774 505.958 161.506 501.27 158.428 496.92C155.336 492.569 152.36 488.57 149.503 485.04C143.802 477.95 138.555 472.794 134.788 469.395C132.912 467.696 131.417 466.422 130.392 465.557C129.893 465.147 129.512 464.84 129.219 464.591C128.955 464.371 128.809 464.268 128.809 464.283C128.809 464.283 128.926 464.415 129.175 464.649C129.454 464.898 129.835 465.235 130.304 465.66C131.3 466.539 132.766 467.857 134.612 469.586C138.306 473.043 143.494 478.243 149.122 485.347C151.95 488.892 154.881 492.891 157.944 497.257C161.007 501.622 164.261 506.309 167.485 511.363C170.709 516.417 173.934 521.837 176.835 527.682C178.301 530.597 179.591 533.658 180.924 536.764C182.243 539.869 183.577 543.033 184.94 546.227C190.319 559.029 195.038 571.393 198.394 582.936C201.779 594.479 202.234 594.61 203.084 603.663" fill="#263238"/>
<path d="M177.246 527.345C177.246 527.345 177.422 526.773 177.627 525.719C177.832 524.664 178.081 523.14 178.345 521.236C178.902 517.442 179.488 512.183 180.104 506.383C180.719 500.567 181.379 495.338 181.994 491.558C182.287 489.669 182.551 488.145 182.742 487.091C182.932 486.036 183.005 485.45 182.961 485.435C182.918 485.435 182.742 485.992 182.478 487.032C182.199 488.072 181.877 489.581 181.511 491.47C180.778 495.235 180.03 500.494 179.415 506.295C178.814 512.022 178.272 517.208 177.861 521.163C177.656 522.95 177.495 524.459 177.363 525.66C177.246 526.729 177.202 527.315 177.26 527.33L177.246 527.345Z" fill="#263238"/>
<path d="M128.266 518.014C128.266 518.014 128.955 518.145 130.216 518.248C131.476 518.365 133.293 518.526 135.536 518.79C140.02 519.288 146.205 520.196 152.961 521.5C159.732 522.818 165.8 524.254 170.167 525.44C172.351 526.012 174.109 526.524 175.326 526.861C176.542 527.213 177.216 527.389 177.231 527.33C177.246 527.286 176.601 527.022 175.399 526.598C174.212 526.173 172.468 525.587 170.284 524.957C165.946 523.653 159.864 522.13 153.079 520.811C146.293 519.508 140.079 518.673 135.565 518.306C133.308 518.101 131.476 518.014 130.216 517.984C128.955 517.955 128.252 517.97 128.252 518.014H128.266Z" fill="#263238"/>
<path d="M198.409 581.866C198.409 581.866 198.54 581.676 198.746 581.266C198.98 580.782 199.259 580.196 199.596 579.493C200.328 577.955 201.31 575.699 202.512 572.901C204.901 567.291 207.949 559.454 211.188 550.753C214.442 542.052 217.417 534.185 219.674 528.546C220.788 525.807 221.696 523.551 222.371 521.866C222.664 521.134 222.898 520.533 223.089 520.05C223.25 519.625 223.323 519.405 223.294 519.391C223.265 519.391 223.162 519.581 222.957 519.991C222.722 520.474 222.444 521.046 222.107 521.764C221.374 523.302 220.392 525.557 219.19 528.355C216.801 533.966 213.753 541.803 210.499 550.504C207.246 559.205 204.271 567.071 202.014 572.711C200.9 575.45 199.991 577.706 199.317 579.391C199.024 580.123 198.79 580.724 198.599 581.207C198.438 581.632 198.365 581.852 198.394 581.866H198.409Z" fill="#263238"/>
<path d="M133.352 560.655C133.352 560.655 133.572 560.772 133.997 560.919C134.51 561.095 135.125 561.3 135.887 561.563C137.631 562.135 139.991 562.911 142.849 563.849C148.726 565.782 156.83 568.536 165.77 571.598C174.71 574.659 182.844 577.34 188.765 579.156C191.726 580.064 194.129 580.768 195.8 581.222C196.577 581.427 197.207 581.603 197.72 581.734C198.159 581.837 198.394 581.896 198.409 581.866C198.409 581.837 198.189 581.749 197.764 581.603C197.251 581.427 196.635 581.222 195.873 580.958C194.129 580.387 191.77 579.61 188.912 578.673C183.035 576.739 174.93 573.985 165.99 570.924C157.05 567.862 148.931 565.182 142.995 563.365C140.035 562.457 137.631 561.754 135.961 561.3C135.184 561.095 134.554 560.919 134.026 560.787C133.586 560.67 133.352 560.626 133.337 560.655H133.352Z" fill="#263238"/>
<path d="M442.865 603.619H238.902C214.251 603.502 193.426 582.496 193.528 557.872L195.697 44.4288C195.8 19.7754 215.878 -0.117161 240.544 2.68359e-05L445.445 0.952177C470.096 1.06936 489.983 21.1231 489.866 45.7472L487.697 559.19C487.594 583.829 467.516 603.722 442.851 603.619H442.865Z" fill="#263238"/>
<path d="M445.152 20.4639L405.42 20.2881C400.1 20.2588 395.747 24.7559 395.733 30.3223L395.703 37.5294C395.689 43.0958 391.336 47.5929 386.016 47.5636L308.575 47.212C303.255 47.1827 298.947 42.6563 298.976 37.0899L299.005 29.8829C299.034 24.3165 294.726 19.7754 289.406 19.7608L275.439 19.7022L240.661 19.5411C223.397 19.4678 209.327 33.3985 209.254 50.6544L207.129 551.822C207.055 569.078 220.978 583.126 238.243 583.199L442.733 584.137C459.998 584.21 474.067 570.279 474.14 553.023L476.266 51.8556C476.339 34.5997 462.416 20.5665 445.152 20.4786V20.4639Z" fill="#F5F5F5"/>
<path d="M358.361 489.405C358.126 495.455 357.906 501.139 357.716 505.855H387.086L383.495 487.823L358.361 489.42V489.405Z" fill="#F5F5F5"/>
<path d="M238.99 496.949L239.239 505.841H354.799C354.99 500.845 355.21 495.294 355.429 489.581L238.99 496.949Z" fill="#F5F5F5"/>
<path d="M384.975 487.72L388.595 505.855H442.748L442.103 484.117L384.975 487.72Z" fill="#F5F5F5"/>
<path d="M361.306 234.317L371.536 174.976L344.716 172.984V234.317H361.306Z" fill="#F5F5F5"/>
<path d="M236.572 464.005L207.466 475.401L207.378 496.011L237.437 494.107L236.572 464.005Z" fill="#F5F5F5"/>
<path d="M236.44 459.376L234.843 404.107H234.828V384.61L207.832 387.466L207.48 470.684L236.425 459.346L236.44 459.376Z" fill="#F5F5F5"/>
<path d="M234.828 341.104L208.037 337.574L207.847 383.057L234.828 380.201V341.104Z" fill="#F5F5F5"/>
<path d="M434.409 385.43L433.28 401.28L401.653 404.678L404.101 417.217L440.007 414.508L439.465 396.534L442.338 384.639L434.409 385.43Z" fill="#F5F5F5"/>
<path d="M377.413 419.224L402.635 417.335L397.14 389.195L375.127 391.421L377.413 419.224Z" fill="#F5F5F5"/>
<path d="M377.647 422.154L379.582 445.606L382.997 477.774L384.404 484.82L442.015 481.187L440.095 417.437L377.647 422.154Z" fill="#F5F5F5"/>
<path d="M278.502 311.397L280.715 315.191L236.293 341.089V402.525L283.177 399.214L373.544 390.103L370.232 349.835L283.895 338.555L284.467 334.205L369.865 345.352L364.267 277.193L279.748 285.323L279.469 282.408L364.032 274.278L361.116 238.711H279.806L208.404 251.704L208.052 333.15L235.092 336.709L278.502 311.412V311.397ZM240.837 396.666C240.837 396.666 241.174 346.011 240.837 344.107L277.095 324.83L281.799 394.073L240.851 396.666H240.837Z" fill="#F5F5F5"/>
<path d="M431.448 385.738L398.605 389.048L401.097 401.793L430.54 398.629L431.448 385.738Z" fill="#F5F5F5"/>
<path d="M358.786 478.551C358.683 481.217 358.58 483.853 358.478 486.461L382.924 484.908L381.663 478.609L358.771 478.551H358.786Z" fill="#F5F5F5"/>
<path d="M306.128 234.317L310.437 214.805H343.251V172.881L240.632 165.279V204.639L208.58 211.89L208.418 247.222L279.41 234.317H306.128Z" fill="#F5F5F5"/>
<path d="M374.599 117.671L373.72 114.082L412.909 98.5841L387.423 47.4463C386.969 47.5196 386.5 47.5635 386.016 47.5635L342.708 47.3585L343.881 118.931L374.599 117.671Z" fill="#F5F5F5"/>
<path d="M433.999 90.2345L433.955 20.4053L405.435 20.2735C400.115 20.2442 395.762 24.7412 395.747 30.3077L395.718 37.5147C395.718 40.9571 394.047 43.9747 391.526 45.7764L417.027 96.9582L433.999 90.2492V90.2345Z" fill="#F5F5F5"/>
<path d="M286.68 93.2374L283.382 19.7168L275.439 19.6729L244.442 19.5264L231.237 85.2833L286.68 93.2374ZM279.616 27.1582L280.671 87.0411L239.474 81.0206L248.502 27.1729H279.616V27.1582Z" fill="#F5F5F5"/>
<path d="M288.175 93.4571V94.087C288.248 99.8292 288.365 110.156 288.453 121.201L342.43 119.004L341.257 47.3584L308.59 47.212C303.27 47.1827 298.961 42.6563 298.99 37.0899L299.02 29.8828C299.049 24.3164 294.74 19.79 289.42 19.7607H284.848L288.16 93.4718H288.175V93.4571Z" fill="#F5F5F5"/>
<path d="M226.87 84.6534L239.943 19.541C223.001 19.8486 209.327 33.6035 209.254 50.625L209.122 83.086L209.254 82.1339L226.87 84.6681V84.6534Z" fill="#F5F5F5"/>
<path d="M236.235 164.956L208.785 162.92L208.594 207.378L236.235 201.123V164.956Z" fill="#F5F5F5"/>
<path d="M226.577 86.089L209.122 83.5841L208.814 155.581L212.566 155.86L226.577 86.089Z" fill="#F5F5F5"/>
<path d="M282.034 458.541L282.488 400.738L236.308 404.005L237.935 460.621L282.034 458.541Z" fill="#F5F5F5"/>
<path d="M290.519 445.196L355.928 476.515C356.705 456.051 357.408 436.92 357.335 435.689L358.756 435.616L359.445 434.239C360.061 434.552 360.207 439.356 359.885 448.653C359.606 456.432 359.225 466.788 358.83 477.159H381.443L378.102 445.753L373.646 391.568L288.189 400.181L290.505 445.196H290.519Z" fill="#F5F5F5"/>
<path d="M450.838 349.278L450.105 341.646L371.712 349.805L375.009 389.957L442.689 383.131L450.838 349.278Z" fill="#F5F5F5"/>
<path d="M343.251 219.2H313.969L310.627 234.317H343.251V219.2Z" fill="#F5F5F5"/>
<path d="M438.732 224.297L365.381 219.229L362.391 236.543L365.483 274.131L442.836 266.69L438.732 224.283V224.297ZM368.092 236.514L372.034 225.586L435.743 229.615L439.436 260.889L370.261 269.092L368.107 236.529L368.092 236.514Z" fill="#F5F5F5"/>
<path d="M446.339 302.857L443.129 269.62L365.732 277.046L368.634 312.437L446.339 302.857Z" fill="#F5F5F5"/>
<path d="M237.525 497.052L207.495 498.941L207.363 496.993L207.334 505.855H237.774L237.525 497.052Z" fill="#F5F5F5"/>
<path d="M475.738 73.7257L476.178 74.839L476.28 51.8262C476.353 34.5703 462.431 20.5371 445.166 20.4492L435.42 20.4053L435.464 89.6486L475.738 73.7257Z" fill="#F5F5F5"/>
<path d="M355.869 478.111L289.113 446.148L286.753 400.342L283.954 400.621L283.485 459.932L237.979 462.086L238.023 463.404V463.433L238.902 494.019L355.547 486.651C355.649 483.809 355.767 480.953 355.869 478.111ZM240.837 465.865L304.53 461.397L345.962 480.616L240.837 486.3V465.865Z" fill="#F5F5F5"/>
<path d="M456.759 150.645L459.485 134.458C435.537 125.918 433.881 100.972 433.955 93.4132L418.332 99.5949L441.869 146.807L456.759 150.659V150.645Z" fill="#F5F5F5"/>
<path d="M371.346 345.425L403.896 342.042L397.477 313.301L369.001 316.817L371.346 345.425Z" fill="#F5F5F5"/>
<path d="M438.85 175.459H378.058L373.016 175.078L366.143 214.878L438.307 219.859L436.637 202.559L443.73 177.012L438.85 175.459Z" fill="#F5F5F5"/>
<path d="M437.369 168.135L438.131 149.136L414.243 101.192L377.193 115.84L389.929 168.12H437.369V168.135ZM412.792 107.036L434.687 148.667L431.522 161.646L394.062 160.24L384.697 120.864L412.792 107.051V107.036Z" fill="#F5F5F5"/>
<path d="M446.822 397.296L447.936 434.605L474.287 433.126L474.36 434.591L447.98 436.07L449.328 480.719L474.228 479.137L474.419 482.066L449.416 483.648L450.076 505.855H474.346L474.873 381.358L450.061 383.863L446.822 397.296Z" fill="#F5F5F5"/>
<path d="M286.724 94.7169L230.944 86.7189L216.992 156.182L286.958 161.367C287.237 150.674 286.987 117.861 286.709 94.7316L286.724 94.7169Z" fill="#F5F5F5"/>
<path d="M378.468 168.135H386.895L374.951 119.121L343.91 120.396L344.658 165.645L378.468 168.135Z" fill="#F5F5F5"/>
<path d="M207.187 541.51L207.143 551.793C207.143 552.115 207.173 552.423 207.187 552.73V541.51Z" fill="#F5F5F5"/>
<path d="M288.394 161.47L343.192 165.528L342.445 120.454L288.453 122.666C288.57 137.915 288.614 154.175 288.38 161.485L288.394 161.47Z" fill="#F5F5F5"/>
<path d="M446.764 307.237L398.942 313.125L405.361 341.88L449.68 337.281L446.764 307.237Z" fill="#F5F5F5"/>
<path d="M459.734 132.979L462.797 114.815L476.002 115.84L476.163 76.714L435.435 92.8273C434.599 120.366 451.908 130.049 459.734 132.993V132.979Z" fill="#F5F5F5"/>
<path d="M444.052 203.218L445.723 220.371L475.547 222.437L475.694 187.09L450.721 179.209L444.052 203.218Z" fill="#F5F5F5"/>
<path d="M458.254 349.791L450.413 382.354L474.873 379.893L475.02 345.748C467.516 343.77 460.965 342.159 457.433 341.485L458.239 349.805L458.254 349.791Z" fill="#F5F5F5"/>
<path d="M441.737 168.692L475.738 179.429L475.811 160.108L442.426 151.48L441.737 168.692Z" fill="#F5F5F5"/>
<path d="M457.008 337.002C459.749 337.413 464.937 338.511 475.034 341.177L475.357 266.514L450.413 268.916L457.008 337.002Z" fill="#F5F5F5"/>
<path d="M450.134 266.001L475.372 263.57L475.533 226.846L446.148 224.81L450.134 266.001Z" fill="#F5F5F5"/>
<path d="M462.548 133.916C467.326 135.366 471.781 136.494 475.899 137.315L475.972 118.784L465.23 117.949L462.533 133.916H462.548Z" fill="#F5F5F5"/>
<path d="M459.602 151.377L475.826 155.567L475.899 138.809C471.708 137.974 467.179 136.831 462.299 135.352L459.602 151.363V151.377Z" fill="#F5F5F5"/>
<path d="M237.525 497.052L237.774 505.855H239.239L238.99 496.964L355.429 489.596C355.21 495.308 354.99 500.86 354.799 505.855H357.73C357.921 501.139 358.141 495.455 358.375 489.405L383.51 487.808L387.1 505.841H388.595L384.975 487.706L442.089 484.088L442.748 505.826H450.076L449.402 483.619L474.404 482.037L474.214 479.107L449.314 480.675L447.98 436.026L474.36 434.547L474.272 433.082L447.936 434.561L446.822 397.252L450.061 383.804L474.888 381.299V379.82L450.428 382.281L458.268 349.717L457.462 341.397C460.98 342.071 467.531 343.682 475.049 345.66V341.089C464.966 338.438 459.778 337.339 457.037 336.915L450.442 268.829L475.386 266.426V263.482L450.164 265.914L446.177 224.722L475.562 226.758V222.349L445.752 220.284L444.096 203.116L450.765 179.121L475.738 187.002L475.767 179.326L441.781 168.604L442.47 151.392L475.855 160.02V155.493L459.646 151.304L462.343 135.293C467.208 136.773 471.737 137.915 475.943 138.75V137.241C471.825 136.421 467.37 135.293 462.592 133.843L465.288 117.876L476.031 118.711V115.767L462.841 114.741L459.778 132.905C451.966 129.961 434.658 120.279 435.479 92.7394L476.207 76.6261V74.7657L475.767 73.6525L435.493 89.5753L435.449 20.3321H433.984L434.028 90.1613L417.057 96.8703L391.556 45.6885C390.354 46.5528 388.976 47.1241 387.467 47.3438L412.953 98.4816L373.764 113.98L374.643 117.569L343.925 118.828L342.752 47.2559H341.287L342.459 118.902L288.482 121.099C288.394 110.054 288.277 99.7267 288.204 93.9845V93.3546H288.175L284.862 19.6143H283.397L286.694 93.1349L231.252 85.1808L244.457 19.4239H240.676C240.441 19.4092 240.207 19.4239 239.957 19.4385L226.885 84.5509L209.268 82.0167L209.137 82.9689V83.4669L226.606 85.9718L212.595 155.728L208.829 155.449L208.799 162.788L236.25 164.824V201.006L208.609 207.261V211.773L240.646 204.522V165.161L343.265 172.764V214.688H310.451L306.142 234.2H279.425L208.448 247.105V251.573L279.836 238.579H361.145L364.062 274.146L279.498 282.276L279.777 285.191L364.296 277.061L369.895 345.22L284.496 334.073L283.924 338.423L370.261 349.703L373.573 389.971L283.206 399.083L236.323 402.393V340.958L280.744 315.059L278.531 311.265L235.121 336.563L208.081 333.003V337.427L234.843 340.958V380.054L207.876 382.911V387.335L234.843 384.478V403.975H234.857L236.455 459.244V459.215L207.495 470.553V475.284L236.587 463.887L237.451 493.99L207.392 495.894V496.876L207.51 498.824L237.539 496.92L237.525 497.052ZM358.493 486.475C358.595 483.868 358.698 481.217 358.8 478.565L381.692 478.624L382.953 484.923L358.507 486.475H358.493ZM384.418 484.835L383.011 477.789L379.597 445.621L377.677 422.169L440.125 417.467L442.045 481.202L384.433 484.849L384.418 484.835ZM398.62 389.063L431.463 385.753L430.54 398.643L401.097 401.822L398.605 389.078L398.62 389.063ZM397.154 389.21L402.65 417.335L377.428 419.239L375.141 391.422L397.154 389.195V389.21ZM440.022 414.522L404.116 417.232L401.668 404.693L433.295 401.28L434.424 385.445L442.338 384.639L439.48 396.548L440.022 414.522ZM397.491 313.316L403.91 342.042L371.36 345.425L369.015 316.817L397.506 313.301L397.491 313.316ZM405.376 341.895L398.957 313.14L446.778 307.251L449.695 337.295L405.376 341.91V341.895ZM438.322 219.873L366.157 214.878L373.031 175.093L378.073 175.474H438.864L443.745 177.027L436.637 202.588L438.307 219.888L438.322 219.873ZM433.984 93.4132C433.911 100.972 435.567 125.918 459.514 134.458L456.788 150.645L441.898 146.792L418.361 99.5802L433.984 93.3986V93.4132ZM414.257 101.221L438.146 149.165L437.384 168.164H389.944L377.208 115.884L414.257 101.236V101.221ZM374.98 119.136L386.925 168.15H378.483L344.687 165.645L343.939 120.396L374.98 119.121V119.136ZM342.474 120.469L343.221 165.542L288.424 161.485C288.658 154.175 288.6 137.915 288.497 122.666L342.489 120.454L342.474 120.469ZM230.959 86.7335L286.738 94.7316C287.017 117.876 287.266 150.674 286.987 161.367L217.021 156.182L230.973 86.7189L230.959 86.7335ZM371.551 174.991L361.306 234.331H344.731V172.998L371.551 174.991ZM313.983 219.214H343.265V234.331H310.642L313.983 219.214ZM362.42 236.573L365.41 219.258L438.762 224.327L442.865 266.734L365.513 274.175L362.42 236.587V236.573ZM443.144 269.649L446.368 302.901L368.664 312.466L365.762 277.09L443.158 269.649H443.144ZM371.727 349.835L450.12 341.69L450.853 349.307L442.704 383.16L375.009 389.986L371.712 349.835H371.727ZM378.131 445.782L381.473 477.188H358.859C359.255 466.832 359.636 456.475 359.914 448.682C360.237 439.385 360.09 434.581 359.474 434.268L358.786 435.645L357.364 435.719C357.423 436.934 356.734 456.08 355.957 476.544L290.549 445.225L288.233 400.211L373.69 391.597L378.146 445.782H378.131ZM282.503 400.767L282.049 458.57L237.964 460.665L236.337 404.049L282.518 400.782L282.503 400.767ZM238.038 463.477V463.448L237.994 462.13L283.499 459.976L283.968 400.665L286.768 400.386L289.127 446.192L355.884 478.155C355.781 480.997 355.664 483.853 355.561 486.695L238.917 494.063L238.038 463.477Z" fill="white"/>
<path d="M304.53 461.397L240.837 465.865V486.3L345.962 480.601L304.53 461.397Z" fill="#EBEBEB"/>
<path d="M435.728 229.615L372.02 225.586L368.092 236.514L370.246 269.078L439.421 260.874L435.728 229.615Z" fill="#EBEBEB"/>
<path d="M238.257 583.17L442.748 584.107C460.012 584.181 474.082 570.25 474.155 552.994L474.36 505.841H207.334L207.187 541.495V552.716C207.612 569.532 221.315 583.082 238.257 583.155V583.17Z" fill="#EBEBEB"/>
<path d="M280.671 87.0412L279.601 27.1583H248.487L239.459 81.0207L280.671 87.0412Z" fill="#EBEBEB"/>
<path d="M431.522 161.646L434.687 148.667L412.792 107.036L384.682 120.864L394.062 160.24L431.522 161.646Z" fill="#EBEBEB"/>
<path d="M240.837 344.122C241.174 346.011 240.837 396.68 240.837 396.68L281.785 394.088L277.08 324.844L240.822 344.122H240.837Z" fill="#EBEBEB"/>
<path d="M377.413 385.254L375.259 353.863L445.489 344.839V350.259L437.003 379.131L377.413 385.254Z" fill="#EBEBEB"/>
<path d="M325.459 124.907C325.459 129.624 321.634 133.462 316.9 133.462C312.166 133.462 308.341 129.639 308.341 124.907C308.341 120.176 312.166 116.353 316.9 116.353C321.634 116.353 325.459 120.176 325.459 124.907Z" fill="#E8505B"/>
<g opacity="0.6">
<path opacity="0.6" d="M325.459 124.541C325.664 129.258 322 133.242 317.281 133.448C312.562 133.653 308.575 129.99 308.37 125.274C308.165 120.557 311.829 116.572 316.548 116.367C321.267 116.162 325.253 119.824 325.459 124.541Z" fill="white"/>
</g>
<path d="M316.914 130.298C320.055 130.298 322.601 127.753 322.601 124.614C322.601 121.475 320.055 118.931 316.914 118.931C313.774 118.931 311.228 121.475 311.228 124.614C311.228 127.753 313.774 130.298 316.914 130.298Z" fill="#2D3F6B"/>
<path d="M449.138 466.436C449.138 468.458 447.496 470.084 445.489 470.084C443.481 470.084 441.839 468.443 441.839 466.436C441.839 464.429 443.481 462.789 445.489 462.789C447.496 462.789 449.138 464.429 449.138 466.436Z" fill="#2D3F6B"/>
<path d="M443.29 465.25L442.411 444.771L380.667 447.774C379.054 447.862 377.442 447.51 376.006 446.778L288.438 402.569C286.416 401.544 285.082 399.507 284.965 397.237L273.05 166.172C272.991 165.059 273.416 163.99 274.208 163.213C274.999 162.437 276.098 162.041 277.197 162.115L314.731 164.898V123.882H319.127V165.454C319.127 166.524 318.673 167.564 317.896 168.282C317.105 169.014 316.05 169.38 314.98 169.307L277.476 166.524L289.362 396.988C289.391 397.676 289.801 398.306 290.432 398.629L377.999 442.838C378.761 443.218 379.611 443.409 380.476 443.365L442.733 440.333C443.789 440.289 444.77 440.64 445.547 441.343C446.324 442.047 446.764 442.999 446.808 444.053L447.716 465.045L443.32 465.235L443.29 465.25Z" fill="#2D3F6B"/>
<path d="M280.202 277.574C286.321 277.574 291.282 272.616 291.282 266.499C291.282 260.383 286.321 255.425 280.202 255.425C274.083 255.425 269.122 260.383 269.122 266.499C269.122 272.616 274.083 277.574 280.202 277.574Z" fill="#2D3F6B"/>
<path d="M280.202 274.19C284.451 274.19 287.896 270.747 287.896 266.499C287.896 262.252 284.451 258.809 280.202 258.809C275.952 258.809 272.508 262.252 272.508 266.499C272.508 270.747 275.952 274.19 280.202 274.19Z" fill="white"/>
<path d="M280.202 274.747C275.659 274.747 271.951 271.055 271.951 266.499C271.951 261.944 275.644 258.252 280.202 258.252C284.76 258.252 288.453 261.944 288.453 266.499C288.453 271.055 284.76 274.747 280.202 274.747ZM280.202 259.366C276.26 259.366 273.05 262.574 273.05 266.514C273.05 270.455 276.26 273.663 280.202 273.663C284.144 273.663 287.354 270.455 287.354 266.514C287.354 262.574 284.144 259.366 280.202 259.366Z" fill="white"/>
<path d="M345.478 220.049H292.718C290.153 220.049 288.072 222.129 288.072 224.693V243.794C288.072 246.358 290.153 248.438 292.718 248.438H293.333V252.994L298.609 248.438H345.478C348.043 248.438 350.124 246.358 350.124 243.794V224.693C350.124 222.129 348.043 220.049 345.478 220.049Z" fill="#2D3F6B"/>
<g opacity="0.49">
<path opacity="0.49" d="M345.478 220.049H292.718C290.153 220.049 288.072 222.129 288.072 224.693V243.794C288.072 246.358 290.153 248.438 292.718 248.438H293.333V252.994L298.609 248.438H345.478C348.043 248.438 350.124 246.358 350.124 243.794V224.693C350.124 222.129 348.043 220.049 345.478 220.049Z" fill="white"/>
</g>
<path d="M299.928 233.936C299.928 232.193 301.277 230.889 303.109 230.889C304.941 230.889 306.274 232.178 306.274 233.936C306.274 235.694 304.926 236.983 303.109 236.983C301.291 236.983 299.928 235.679 299.928 233.936ZM305.41 233.936C305.41 232.618 304.428 231.651 303.094 231.651C301.76 231.651 300.764 232.618 300.764 233.936C300.764 235.254 301.746 236.221 303.094 236.221C304.442 236.221 305.41 235.254 305.41 233.936Z" fill="white"/>
<path d="M312.137 234.668C312.137 236.045 311.169 236.983 309.85 236.983C309.191 236.983 308.605 236.734 308.238 236.221V236.939H307.447V230.625H308.268V233.116C308.649 232.632 309.205 232.398 309.85 232.398C311.169 232.398 312.137 233.321 312.137 234.698V234.668ZM311.316 234.668C311.316 233.702 310.656 233.086 309.792 233.086C308.927 233.086 308.282 233.702 308.282 234.668C308.282 235.635 308.942 236.265 309.792 236.265C310.642 236.265 311.316 235.635 311.316 234.668Z" fill="white"/>
<path d="M311.712 238.345L311.975 237.715C312.137 237.847 312.371 237.935 312.635 237.935C313.075 237.935 313.309 237.657 313.309 237.144V232.412H314.13V237.129C314.13 238.052 313.617 238.623 312.694 238.623C312.312 238.623 311.946 238.536 311.712 238.345ZM313.162 231.006C313.162 230.713 313.397 230.464 313.719 230.464C314.042 230.464 314.276 230.699 314.276 230.977C314.276 231.285 314.042 231.519 313.719 231.519C313.397 231.519 313.162 231.285 313.162 230.992V231.006Z" fill="white"/>
<path d="M319.758 234.932H316.094C316.196 235.723 316.841 236.25 317.735 236.25C318.263 236.25 318.702 236.075 319.039 235.708L319.494 236.236C319.083 236.719 318.468 236.968 317.706 236.968C316.255 236.968 315.273 236.001 315.273 234.654C315.273 233.306 316.24 232.354 317.545 232.354C318.849 232.354 319.772 233.291 319.772 234.683C319.772 234.756 319.772 234.859 319.758 234.932ZM316.094 234.346H318.995C318.908 233.584 318.336 233.057 317.545 233.057C316.753 233.057 316.182 233.584 316.094 234.346Z" fill="white"/>
<path d="M320.49 234.668C320.49 233.321 321.487 232.369 322.879 232.369C323.685 232.369 324.359 232.705 324.726 233.335L324.11 233.731C323.817 233.291 323.378 233.086 322.879 233.086C322 233.086 321.326 233.702 321.326 234.668C321.326 235.635 321.985 236.265 322.879 236.265C323.378 236.265 323.817 236.06 324.11 235.62L324.726 236.016C324.374 236.646 323.7 236.983 322.879 236.983C321.487 236.983 320.49 236.016 320.49 234.668Z" fill="white"/>
<path d="M328.36 236.661C328.111 236.88 327.745 236.968 327.379 236.968C326.47 236.968 325.942 236.47 325.942 235.562V233.086H325.18V232.412H325.942V231.431H326.763V232.412H328.053V233.086H326.763V235.533C326.763 236.016 327.012 236.294 327.466 236.294C327.701 236.294 327.935 236.221 328.111 236.075L328.36 236.661Z" fill="white"/>
<path d="M329.21 231.006C329.21 230.713 329.445 230.464 329.767 230.464C330.09 230.464 330.324 230.699 330.324 230.977C330.324 231.285 330.09 231.519 329.767 231.519C329.445 231.519 329.21 231.285 329.21 230.992V231.006ZM329.357 232.398H330.178V236.91H329.357V232.398Z" fill="white"/>
<path d="M335.732 232.412L333.754 236.924H332.918L330.94 232.412H331.79L333.343 236.031L334.926 232.412H335.732Z" fill="white"/>
<path d="M340.437 234.932H336.773C336.875 235.723 337.52 236.25 338.414 236.25C338.942 236.25 339.382 236.075 339.719 235.708L340.173 236.236C339.763 236.719 339.147 236.968 338.385 236.968C336.934 236.968 335.952 236.001 335.952 234.654C335.952 233.306 336.919 232.354 338.224 232.354C339.528 232.354 340.451 233.291 340.451 234.683C340.451 234.756 340.451 234.859 340.437 234.932ZM336.773 234.346H339.675C339.587 233.584 339.015 233.057 338.224 233.057C337.432 233.057 336.861 233.584 336.773 234.346Z" fill="white"/>
<path d="M328.053 96.1818C328.053 89.4289 321.956 84.1115 314.965 85.4152C310.568 86.2355 307.066 89.8244 306.289 94.2336C305.805 96.9875 306.377 99.5803 307.637 101.719L307.667 101.763C308.092 102.466 308.619 102.979 309.147 103.726L315.522 112.163C316.313 113.218 317.896 113.218 318.688 112.163L324.946 103.872C324.946 103.872 326.118 102.481 326.543 101.763L326.572 101.734C327.525 100.108 328.082 98.2179 328.082 96.1965L328.053 96.1818ZM317.09 100.957C314.423 100.957 312.269 98.8039 312.269 96.1379C312.269 93.4718 314.423 91.3185 317.09 91.3185C319.758 91.3185 321.912 93.4718 321.912 96.1379C321.912 98.8039 319.758 100.957 317.09 100.957Z" fill="#2D3F6B"/>
<path d="M257.031 528.121H254.994V527.374H259.933V528.121H257.896V533.336H257.046V528.121H257.031Z" fill="#263238"/>
<path d="M259.845 531.08C259.845 529.732 260.842 528.78 262.19 528.78C263.538 528.78 264.535 529.732 264.535 531.08C264.535 532.428 263.553 533.395 262.19 533.395C260.827 533.395 259.845 532.428 259.845 531.08ZM263.714 531.08C263.714 530.113 263.069 529.498 262.205 529.498C261.34 529.498 260.681 530.113 260.681 531.08C260.681 532.047 261.34 532.677 262.205 532.677C263.069 532.677 263.714 532.047 263.714 531.08Z" fill="#263238"/>
<path d="M268.214 533.072C267.964 533.292 267.598 533.395 267.232 533.395C266.323 533.395 265.795 532.897 265.795 531.974V529.498H265.033V528.824H265.795V527.843H266.616V528.824H267.906V529.498H266.616V531.944C266.616 532.428 266.865 532.706 267.32 532.706C267.554 532.706 267.789 532.633 267.964 532.486L268.214 533.072Z" fill="#263238"/>
<path d="M272.771 530.611V533.336H271.995V532.735C271.716 533.146 271.218 533.38 270.514 533.38C269.489 533.38 268.844 532.838 268.844 532.047C268.844 531.329 269.313 530.729 270.661 530.729H271.951V530.567C271.951 529.879 271.555 529.483 270.734 529.483C270.192 529.483 269.65 529.674 269.298 529.967L268.961 529.352C269.43 528.971 270.104 528.766 270.822 528.766C272.053 528.766 272.757 529.366 272.757 530.597L272.771 530.611ZM271.951 531.959V531.329H270.69C269.884 531.329 269.65 531.637 269.65 532.032C269.65 532.486 270.031 532.765 270.646 532.765C271.262 532.765 271.746 532.486 271.951 531.959Z" fill="#263238"/>
<path d="M274.296 527.022H275.116V533.336H274.296V527.022Z" fill="#263238"/>
<path d="M283.221 527.022V533.336H282.43V532.618C282.063 533.131 281.492 533.38 280.817 533.38C279.498 533.38 278.531 532.457 278.531 531.065C278.531 529.674 279.498 528.766 280.817 528.766C281.462 528.766 282.019 529 282.4 529.483V526.993H283.221V527.022ZM282.415 531.08C282.415 530.113 281.755 529.498 280.905 529.498C280.055 529.498 279.381 530.113 279.381 531.08C279.381 532.047 280.041 532.677 280.905 532.677C281.77 532.677 282.415 532.047 282.415 531.08Z" fill="#263238"/>
<path d="M284.628 527.433C284.628 527.14 284.862 526.891 285.185 526.891C285.507 526.891 285.742 527.125 285.742 527.418C285.742 527.726 285.507 527.96 285.185 527.96C284.862 527.96 284.628 527.726 284.628 527.433ZM284.774 528.824H285.595V533.336H284.774V528.824Z" fill="#263238"/>
<path d="M286.577 532.867L286.914 532.223C287.295 532.501 287.911 532.691 288.497 532.691C289.259 532.691 289.567 532.457 289.567 532.076C289.567 531.065 286.709 531.944 286.709 530.143C286.709 529.337 287.427 528.795 288.585 528.795C289.171 528.795 289.831 528.941 290.226 529.205L289.875 529.85C289.464 529.586 289.01 529.498 288.57 529.498C287.852 529.498 287.5 529.762 287.5 530.113C287.5 531.183 290.358 530.304 290.358 532.062C290.358 532.882 289.611 533.395 288.409 533.395C287.662 533.395 286.914 533.16 286.548 532.867H286.577Z" fill="#263238"/>
<path d="M293.964 533.072C293.714 533.292 293.348 533.395 292.982 533.395C292.073 533.395 291.545 532.897 291.545 531.974V529.498H290.783V528.824H291.545V527.843H292.366V528.824H293.656V529.498H292.366V531.944C292.366 532.428 292.615 532.706 293.07 532.706C293.304 532.706 293.539 532.633 293.714 532.486L293.964 533.072Z" fill="#263238"/>
<path d="M298.521 530.611V533.336H297.745V532.735C297.466 533.146 296.968 533.38 296.265 533.38C295.239 533.38 294.594 532.838 294.594 532.047C294.594 531.329 295.063 530.729 296.411 530.729H297.701V530.567C297.701 529.879 297.305 529.483 296.484 529.483C295.942 529.483 295.4 529.674 295.048 529.967L294.711 529.352C295.18 528.971 295.854 528.766 296.572 528.766C297.803 528.766 298.507 529.366 298.507 530.597L298.521 530.611ZM297.701 531.959V531.329H296.44C295.634 531.329 295.4 531.637 295.4 532.032C295.4 532.486 295.781 532.765 296.396 532.765C297.012 532.765 297.496 532.486 297.701 531.959Z" fill="#263238"/>
<path d="M304.325 530.743V533.336H303.504V530.831C303.504 529.952 303.065 529.513 302.288 529.513C301.423 529.513 300.852 530.025 300.852 531.007V533.336H300.031V528.824H300.822V529.498C301.16 529.044 301.731 528.78 302.449 528.78C303.548 528.78 304.325 529.41 304.325 530.743Z" fill="#263238"/>
<path d="M305.454 531.08C305.454 529.732 306.45 528.78 307.843 528.78C308.649 528.78 309.323 529.117 309.689 529.747L309.074 530.143C308.78 529.703 308.341 529.498 307.843 529.498C306.963 529.498 306.289 530.113 306.289 531.08C306.289 532.047 306.949 532.677 307.843 532.677C308.341 532.677 308.78 532.472 309.074 532.032L309.689 532.428C309.337 533.058 308.663 533.395 307.843 533.395C306.45 533.395 305.454 532.428 305.454 531.08Z" fill="#263238"/>
<path d="M314.731 531.358H311.067C311.169 532.149 311.814 532.677 312.708 532.677C313.236 532.677 313.675 532.501 314.013 532.135L314.467 532.662C314.057 533.146 313.441 533.395 312.679 533.395C311.228 533.395 310.246 532.428 310.246 531.08C310.246 529.732 311.213 528.78 312.518 528.78C313.822 528.78 314.745 529.718 314.745 531.109C314.745 531.183 314.745 531.285 314.731 531.358ZM311.067 530.772H313.969C313.881 530.011 313.309 529.483 312.518 529.483C311.726 529.483 311.155 530.011 311.067 530.772Z" fill="#263238"/>
<path d="M262.381 540.03V554.254H259.083V542.667H256.24V540.03H262.381Z" fill="#263238"/>
<path d="M268.712 552.423C268.712 552.95 268.624 553.331 268.17 554.459L267.012 557.389H265.004L265.898 554.166C265.224 553.902 264.799 553.272 264.799 552.437C264.799 551.266 265.649 550.489 266.777 550.489C267.906 550.489 268.727 551.28 268.727 552.437L268.712 552.423Z" fill="#263238"/>
<path d="M275.351 540.03V554.254H272.053V542.667H269.21V540.03H275.351Z" fill="#263238"/>
<path d="M277.828 547.135C277.828 542.447 280.436 539.781 283.924 539.781C287.412 539.781 290.021 542.447 290.021 547.135C290.021 551.822 287.442 554.488 283.924 554.488C280.407 554.488 277.828 551.822 277.828 547.135ZM286.709 547.135C286.709 543.897 285.566 542.564 283.924 542.564C282.283 542.564 281.155 543.912 281.155 547.135C281.155 550.357 282.298 551.705 283.924 551.705C285.551 551.705 286.709 550.357 286.709 547.135Z" fill="#263238"/>
<path d="M291.633 547.135C291.633 542.447 294.242 539.781 297.73 539.781C301.218 539.781 303.827 542.447 303.827 547.135C303.827 551.822 301.247 554.488 297.73 554.488C294.213 554.488 291.633 551.822 291.633 547.135ZM300.515 547.135C300.515 543.897 299.372 542.564 297.73 542.564C296.089 542.564 294.96 543.912 294.96 547.135C294.96 550.357 296.103 551.705 297.73 551.705C299.357 551.705 300.515 550.357 300.515 547.135Z" fill="#263238"/>
<path d="M330.339 547.984V554.239H327.173V548.468C327.173 546.695 326.382 545.89 325.107 545.89C323.685 545.89 322.689 546.798 322.689 548.761V554.254H319.523V548.482C319.523 546.71 318.776 545.904 317.457 545.904C316.05 545.904 315.053 546.812 315.053 548.775V554.268H311.887V543.341H314.921V544.6C315.727 543.663 316.958 543.18 318.351 543.18C319.875 543.18 321.179 543.766 321.941 544.967C322.821 543.853 324.242 543.18 325.884 543.18C328.492 543.18 330.354 544.688 330.354 548.014L330.339 547.984Z" fill="#263238"/>
<path d="M247.506 541.685C249.056 535.093 244.967 528.493 238.372 526.943C231.777 525.394 225.174 529.481 223.623 536.073C222.073 542.665 226.162 549.264 232.757 550.814C239.352 552.364 245.955 548.277 247.506 541.685Z" fill="#2D3F6B"/>
<path d="M230.622 541.143C230.622 541.143 231.765 541.012 233.773 540.953C235.781 540.894 238.638 540.85 242.068 540.821L241.819 541.363C240.851 540.25 239.796 539.019 238.682 537.745L238.492 537.511L238.682 537.276C239.664 536.046 240.705 534.757 241.775 533.409L242.068 534.024C241.628 534.024 241.145 534.024 240.676 534.024C237.056 534.024 233.641 533.995 230.622 533.98L230.959 533.643C230.93 537.364 230.886 540.499 230.827 542.696C230.768 544.893 230.695 546.168 230.622 546.168C230.548 546.168 230.475 544.893 230.417 542.696C230.358 540.499 230.314 537.364 230.285 533.643V533.307H230.622C233.641 533.307 237.056 533.277 240.676 533.263C241.159 533.263 241.628 533.263 242.068 533.263H242.859L242.361 533.878C241.276 535.211 240.236 536.5 239.239 537.716V537.247C240.324 538.536 241.364 539.781 242.317 540.909L242.786 541.466H242.068C238.638 541.422 235.766 541.378 233.773 541.319C231.765 541.261 230.622 541.202 230.622 541.129V541.143Z" fill="#FAFAFA"/>
<path d="M434.043 517.984H396.949C393.036 517.984 389.856 521.163 389.856 525.074V554.254C389.856 558.165 393.036 561.344 396.949 561.344H397.887V568.302L405.962 561.344H434.043C437.956 561.344 441.136 558.165 441.136 554.254V525.074C441.136 521.163 437.956 517.984 434.043 517.984Z" fill="#2D3F6B"/>
<path d="M400.481 531.373V546.344C400.481 546.666 400.745 546.93 401.067 546.93H432.46C432.782 546.93 433.046 546.666 433.046 546.344L432.973 540.865C432.973 540.748 432.929 540.616 432.855 540.528L428.356 534.508C428.254 534.361 428.078 534.273 427.887 534.273L422.699 534.229C422.377 534.229 422.127 533.966 422.127 533.643V531.388C422.127 531.065 421.864 530.802 421.541 530.802H401.067C400.745 530.802 400.481 531.065 400.481 531.388V531.373Z" fill="#FAFAFA"/>
<path d="M423.578 535.533V540.338C423.578 540.528 423.725 540.675 423.915 540.675L430.848 540.558C431.111 540.558 431.273 540.25 431.111 540.03L427.872 535.255C427.814 535.167 427.697 535.108 427.579 535.108L423.886 535.211C423.71 535.211 423.564 535.357 423.564 535.548L423.578 535.533Z" fill="#2D3F6B"/>
<path d="M433.661 547.384H399.851V548.424H433.661V547.384Z" fill="#FAFAFA"/>
<path d="M411.033 547.779C411.033 549.625 409.538 551.119 407.692 551.119C405.845 551.119 404.35 549.625 404.35 547.779C404.35 545.934 405.845 544.439 407.692 544.439C409.538 544.439 411.033 545.934 411.033 547.779Z" fill="#2D3F6B"/>
<path d="M409.67 547.779C409.67 548.863 408.791 549.742 407.706 549.742C406.622 549.742 405.742 548.863 405.742 547.779C405.742 546.695 406.622 545.816 407.706 545.816C408.791 545.816 409.67 546.695 409.67 547.779Z" fill="#FAFAFA"/>
<path d="M422.098 546.93C422.01 546.93 421.952 543.311 421.952 538.858C421.952 534.405 422.025 530.787 422.098 530.787C422.171 530.787 422.245 534.39 422.245 538.858C422.245 543.326 422.171 546.93 422.098 546.93Z" fill="#2D3F6B"/>
<path d="M429.265 547.779C429.265 549.625 427.77 551.119 425.923 551.119C424.077 551.119 422.582 549.625 422.582 547.779C422.582 545.934 424.077 544.439 425.923 544.439C427.77 544.439 429.265 545.934 429.265 547.779Z" fill="#2D3F6B"/>
<path d="M427.887 547.779C427.887 548.863 427.008 549.742 425.923 549.742C424.839 549.742 423.959 548.863 423.959 547.779C423.959 546.695 424.839 545.816 425.923 545.816C427.008 545.816 427.887 546.695 427.887 547.779Z" fill="#FAFAFA"/>
<path d="M425.923 541.612C425.923 541.7 425.44 541.759 424.853 541.759C424.267 541.759 423.784 541.686 423.784 541.612C423.784 541.539 424.267 541.466 424.853 541.466C425.44 541.466 425.923 541.539 425.923 541.612Z" fill="#2D3F6B"/>
<path d="M775.681 295.914C775.681 295.914 799.321 299.913 801.226 300.411C803.131 300.923 810.62 304.468 811.001 306.753C811.382 309.039 811.001 315.762 811.001 315.762C811.001 315.762 809.653 316.861 808.803 314.664C807.953 312.466 808.085 308.116 808.085 308.116L803.893 306.504L806.179 310.562L806.561 320.069C806.561 320.069 803.629 319.805 803.072 317.52C802.501 315.25 802.516 312.701 802.516 312.701L799.467 310.108L801.753 313.199L802.53 320.054C802.53 320.054 800.303 320.772 799.599 319.249C798.896 317.725 798.837 313.199 798.837 313.199L790.219 310.196L784.518 313.375L773.864 307.354L775.71 295.899L775.681 295.914Z" fill="#FFBE9D"/>
<path d="M692.92 237.51C693.023 237.979 721.411 277.032 721.411 277.032L778.422 294.756L775.828 316.158L705.949 302.095L681.152 273.648L692.92 237.51Z" fill="#2D3F6B"/>
<g opacity="0.56">
<path opacity="0.56" d="M691.836 237.686C691.938 238.155 720.327 277.207 720.327 277.207L777.337 294.932L774.743 316.334L704.865 302.271L680.067 273.824L691.836 237.686Z" fill="black"/>
</g>
<path d="M593.614 291.255H477.13C474.662 291.255 472.66 293.256 472.66 295.723V309.478C472.66 311.946 474.662 313.946 477.13 313.946H593.614C596.082 313.946 598.084 311.946 598.084 309.478V295.723C598.084 293.256 596.082 291.255 593.614 291.255Z" fill="#F5F5F5"/>
<path d="M593.614 313.946C593.614 313.946 593.863 313.946 594.346 313.843C594.815 313.741 595.548 313.55 596.295 312.95C597.028 312.378 597.79 311.368 597.937 309.991C597.996 308.614 597.937 306.973 597.937 305.157C597.937 303.326 597.922 301.304 597.908 299.078C597.908 297.964 597.908 296.807 597.893 295.606C597.864 294.449 597.336 293.277 596.383 292.471C595.914 292.061 595.343 291.768 594.727 291.607C594.112 291.431 593.452 291.46 592.749 291.46C591.357 291.46 589.935 291.46 588.469 291.46C585.524 291.46 582.417 291.475 579.163 291.49C553.032 291.519 516.964 291.563 477.145 291.607C476.002 291.607 474.873 292.105 474.126 292.94C473.349 293.79 472.983 294.903 473.056 296.089C473.056 298.55 473.056 300.997 473.056 303.414C473.056 304.629 473.056 305.831 473.056 307.032V308.834C473.056 309.449 473.056 309.976 473.202 310.518C473.481 311.573 474.214 312.496 475.166 313.023C475.635 313.287 476.163 313.448 476.705 313.506C477.218 313.55 477.848 313.521 478.435 313.536C487.829 313.536 496.886 313.55 505.518 313.565C522.768 313.594 538.318 313.624 551.391 313.653C564.419 313.697 574.971 313.741 582.314 313.77C585.934 313.799 588.762 313.829 590.726 313.843L592.91 313.887C593.408 313.887 593.657 313.931 593.657 313.931C593.657 313.931 593.408 313.961 592.91 313.975L590.726 314.019C588.777 314.034 585.949 314.063 582.314 314.092C574.986 314.122 564.419 314.166 551.391 314.21C538.332 314.239 522.783 314.253 505.518 314.297C496.886 314.297 487.829 314.297 478.435 314.327C477.834 314.327 477.291 314.356 476.632 314.297C476.002 314.224 475.372 314.034 474.815 313.726C473.686 313.111 472.821 312.012 472.484 310.767C472.308 310.152 472.308 309.463 472.308 308.892V307.09C472.308 305.889 472.308 304.673 472.308 303.472C472.308 301.041 472.308 298.609 472.308 296.148C472.221 294.888 472.66 293.453 473.569 292.486C474.463 291.49 475.811 290.889 477.159 290.904C516.979 290.948 553.047 290.992 579.178 291.021C582.446 291.021 585.553 291.036 588.484 291.05C589.95 291.05 591.386 291.05 592.763 291.05C593.438 291.05 594.17 291.021 594.845 291.226C595.519 291.417 596.149 291.739 596.662 292.193C597.702 293.086 598.274 294.376 598.289 295.635C598.289 296.836 598.289 297.994 598.289 299.107C598.289 301.319 598.259 303.355 598.259 305.186C598.23 307.017 598.259 308.614 598.186 310.049C597.996 311.5 597.19 312.525 596.413 313.111C595.621 313.711 594.874 313.873 594.39 313.961C593.892 314.034 593.643 313.99 593.643 313.99L593.614 313.946Z" fill="#263238"/>
<path d="M909.911 603.886C942.97 602.299 968.482 574.226 966.894 541.183C965.306 508.141 937.219 482.641 904.161 484.229C871.102 485.816 845.59 513.888 847.178 546.931C848.766 579.973 876.852 605.473 909.911 603.886Z" fill="#263238"/>
<path d="M847.113 543.048C847.113 543.048 847.113 543.15 847.113 543.209C846.629 576.285 873.068 603.487 906.16 603.956C939.253 604.439 966.469 578.014 966.938 544.937C966.938 544.879 966.938 544.835 966.938 544.776L847.113 543.048Z" fill="#263238"/>
<path d="M864.963 543.458C864.626 566.676 883.195 585.777 906.424 586.114C929.654 586.451 948.765 567.891 949.102 544.674C949.439 521.456 930.87 502.354 907.641 502.017C884.411 501.68 865.3 520.24 864.963 543.458Z" fill="#FAFAFA"/>
<path d="M907.626 502.017C884.397 501.68 865.286 520.24 864.949 543.458L949.087 544.674C949.424 521.456 930.855 502.354 907.626 502.017Z" fill="#E0E0E0"/>
<path d="M881.407 543.707C881.202 557.857 892.516 569.488 906.659 569.693C920.816 569.898 932.453 558.59 932.658 544.454C932.863 530.304 921.549 518.673 907.406 518.468C893.249 518.263 881.612 529.571 881.407 543.707Z" fill="#263238"/>
<path d="M878.579 456.241C878.579 456.241 939.927 437.696 965.311 504.317L836.927 544.059L878.593 456.241H878.579Z" fill="#2D3F6B"/>
<path d="M540.164 603.892C573.223 602.305 598.735 574.232 597.147 541.19C595.559 508.148 567.472 482.648 534.413 484.235C501.355 485.822 475.843 513.895 477.431 546.937C479.018 579.98 507.105 605.479 540.164 603.892Z" fill="#263238"/>
<path d="M477.379 543.048C477.379 543.048 477.379 543.15 477.379 543.209C476.896 576.285 503.335 603.487 536.427 603.956C569.52 604.439 596.735 578.014 597.204 544.937C597.204 544.879 597.204 544.835 597.204 544.776L477.379 543.048Z" fill="#263238"/>
<path d="M495.215 543.458C494.878 566.676 513.447 585.777 536.676 586.114C559.905 586.451 579.016 567.892 579.354 544.674C579.691 521.456 561.122 502.354 537.893 502.017C514.663 501.681 495.552 520.24 495.215 543.458Z" fill="#FAFAFA"/>
<path d="M537.893 502.017C514.663 501.681 495.552 520.24 495.215 543.458L579.354 544.674C579.691 521.456 561.122 502.354 537.893 502.017Z" fill="#E0E0E0"/>
<path d="M511.659 543.707C511.454 557.857 522.768 569.488 536.911 569.693C551.068 569.898 562.705 558.59 562.91 544.454C563.115 530.304 551.801 518.673 537.658 518.468C523.501 518.263 511.864 529.571 511.659 543.707Z" fill="#263238"/>
<path d="M622.515 520.02C622.177 520.196 590.976 515.201 590.976 515.201C587.561 519.654 582.343 522.379 576.745 522.642C563.262 523.287 550.086 523.888 538.669 524.386C528.029 524.854 519.778 533.863 520.218 544.498C520.643 554.576 528.718 562.618 538.787 563.014L605.148 565.621C616.066 566.046 630.56 559.425 637.375 550.885L622.5 519.991L622.515 520.02Z" fill="#455A64"/>
<path d="M459.485 493.521C459.485 493.521 456.627 435.147 511.512 422.989V415.504H703.78V433.345C703.78 433.345 675.553 467.315 684.772 495.514C693.99 523.727 696.863 526.598 696.863 526.598H806.282C806.282 526.598 819.531 509.898 820.102 485.157C820.674 460.401 810.386 418.082 802.706 391.026C795.715 366.431 791.304 345.85 791.304 345.85L824.133 334.908C824.133 334.908 884.88 414.288 887.357 418.756C889.834 423.223 898.276 433.638 896.283 456.446C894.289 479.254 839.712 549.698 825.32 557.623C810.928 565.563 798.031 566.061 785.119 568.038C773.922 569.767 691.074 568.624 669.413 568.287C661.88 568.17 654.449 566.251 648.015 562.355C641.538 558.429 636.657 551.925 631.279 541.261L619.862 518.936L459.441 493.507L459.485 493.521Z" fill="#2D3F6B"/>
<path d="M474.199 489.464L449.973 527.374C446.866 532.223 451.893 538.331 457.169 536.046C459.734 534.933 462.489 533.204 465.288 530.538C476.368 520.006 496.109 492.262 496.109 492.262L474.184 489.464H474.199Z" fill="#455A64"/>
<path d="M647.854 496.29C647.854 496.29 647.883 496.099 648.001 495.733C648.118 495.338 648.279 494.81 648.484 494.137C648.895 492.73 649.393 490.636 649.759 487.882C650.375 482.418 650.097 474.083 646.008 465.001C644.014 460.474 641.069 455.845 637.082 451.597C633.081 447.379 628.142 443.482 622.368 440.377C616.623 437.257 610.116 434.796 603.169 433.228C596.208 431.661 588.806 430.958 581.229 430.958C573.653 430.958 566.266 431.632 559.173 432.569C552.079 433.521 545.279 434.693 538.86 436.158C526.036 439.044 514.883 443.306 506.251 448.214C497.59 453.092 491.449 458.424 487.609 462.423C485.674 464.415 484.282 466.07 483.359 467.213C482.919 467.755 482.582 468.194 482.318 468.516C482.084 468.809 481.952 468.956 481.937 468.941C481.937 468.941 483.579 466.304 487.389 462.218C491.17 458.131 497.296 452.711 505.973 447.745C514.619 442.735 525.831 438.399 538.699 435.469C545.133 433.99 551.947 432.789 559.07 431.822C566.178 430.87 573.609 430.181 581.229 430.181C588.85 430.181 596.31 430.899 603.33 432.481C610.35 434.063 616.901 436.553 622.705 439.732C628.523 442.882 633.521 446.851 637.551 451.143C641.567 455.465 644.527 460.167 646.506 464.766C650.566 473.98 650.771 482.418 650.053 487.896C649.642 490.665 649.1 492.774 648.631 494.166C648.396 494.825 648.206 495.352 648.074 495.733C647.942 496.085 647.869 496.261 647.854 496.261V496.29Z" fill="#263238"/>
<path d="M636.774 483.179C636.687 483.15 637.097 482.257 637.493 480.587C637.947 478.917 638.137 476.383 637.712 473.336C637.287 470.274 636.115 466.744 634.136 463.155C633.169 461.353 631.982 459.566 630.59 457.823C629.227 456.065 627.629 454.395 625.827 452.886C622.207 449.854 618.191 447.716 614.395 446.207C610.57 444.727 606.965 443.848 603.902 443.336C600.839 442.823 598.318 442.603 596.589 442.501C594.845 442.398 593.892 442.354 593.892 442.296C593.892 442.266 594.126 442.252 594.595 442.222C595.05 442.222 595.739 442.178 596.603 442.193C598.347 442.193 600.883 442.34 603.99 442.794C607.097 443.233 610.761 444.068 614.659 445.533C618.528 447.042 622.632 449.195 626.325 452.286C628.172 453.839 629.798 455.538 631.191 457.34C632.598 459.112 633.799 460.958 634.767 462.803C636.745 466.466 637.888 470.098 638.255 473.248C638.621 476.383 638.343 478.975 637.786 480.645C637.61 481.51 637.243 482.11 637.082 482.55C636.892 482.974 636.789 483.194 636.76 483.179H636.774Z" fill="#F5F5F5"/>
<g opacity="0.4">
<path opacity="0.4" d="M599.124 432.042C609.867 434.093 619.261 437.945 628.069 443.819C636.877 449.693 643.633 458.028 647.459 467.901C651.284 477.774 650.727 490.855 646.682 499.029L660.268 500.157C664.84 484.908 659.857 466.202 648.865 454.263C635.968 440.26 618.235 432.042 599.109 432.042" fill="black"/>
</g>
<path d="M594.786 312.803H475.943C468.998 312.803 463.369 318.43 463.369 325.372V402.935C463.369 409.877 468.998 415.504 475.943 415.504H594.786C601.731 415.504 607.361 409.877 607.361 402.935V325.372C607.361 318.43 601.731 312.803 594.786 312.803Z" fill="#455A64"/>
<path d="M607.375 335.713C607.375 335.918 575.001 336.094 535.079 336.094C495.157 336.094 462.768 335.918 462.768 335.713C462.768 335.508 495.142 335.333 535.079 335.333C575.015 335.333 607.375 335.508 607.375 335.713Z" fill="#263238"/>
<path d="M703.692 422.301C703.692 422.506 660.487 422.681 607.185 422.681C553.882 422.681 510.677 422.506 510.677 422.301C510.677 422.095 553.882 421.92 607.185 421.92C660.487 421.92 703.692 422.095 703.692 422.301Z" fill="#263238"/>
<path d="M703.78 415.504C703.78 415.504 706.946 411.724 707.254 406.89C707.561 402.056 705.348 396.036 700.16 396.036H633.77C623.013 396.036 614.293 404.752 614.293 415.504H703.78Z" fill="#455A64"/>
<path d="M791.319 345.85L779.77 321.783C776.619 314.942 779.125 306.812 785.603 302.96L820.132 282.378C821.934 281.309 824.001 280.738 826.097 280.738H833.556L836.546 329.385L825.041 333.78L832.325 345.616L791.319 345.85Z" fill="#2D3F6B"/>
<path d="M833.674 282.496C833.674 282.496 845.486 285.206 846.966 303.399C848.446 321.607 836.546 327.261 836.546 327.261L833.659 282.481L833.674 282.496Z" fill="#EBEBEB"/>
<path d="M795.349 312.349C795.349 312.349 771.475 323.658 768.558 325.518C766.536 326.807 764.806 329.063 766.389 333.033C769.101 339.8 780.254 333.428 780.254 333.428L802.472 322.325C802.472 322.325 811.016 318.296 807.865 313.243C804.333 307.588 795.349 312.349 795.349 312.349Z" fill="#263238"/>
<path d="M761.553 308.233C761.553 308.233 783.976 312.071 785.881 312.583C787.787 313.096 795.276 316.641 795.657 318.926C796.038 321.211 795.657 327.935 795.657 327.935C795.657 327.935 794.308 329.034 793.458 326.836C792.608 324.639 792.74 320.289 792.74 320.289L788.549 318.677L790.835 322.735L791.216 332.242C791.216 332.242 788.285 331.978 787.728 329.693C787.156 327.422 787.171 324.874 787.171 324.874L784.123 322.281L786.409 325.372L787.186 332.227C787.186 332.227 784.958 332.945 784.255 331.421C783.551 329.898 783.492 325.372 783.492 325.372L774.875 322.369L769.174 325.547L760.205 320.64L761.582 308.218L761.553 308.233Z" fill="#FFBE9D"/>
<path d="M796.492 277.002C796.492 286.084 792.315 293.438 787.171 293.438C782.027 293.438 777.85 286.084 777.85 277.002C777.85 267.92 782.027 260.567 787.171 260.567C792.315 260.567 796.492 267.92 796.492 277.002Z" fill="#263238"/>
<path d="M788.695 288.296L793.81 306.036C796.096 304.878 796.58 302.593 796.199 300.792C794.909 294.712 794.191 290.391 792.77 285.059C792.594 284.517 788.681 288.282 788.681 288.282" fill="#263238"/>
<g opacity="0.4">
<path opacity="0.4" d="M687.307 503.101C686.794 501.637 686.281 500.142 685.798 498.604C685.343 497.169 684.801 495.689 684.42 494.268C683.717 491.72 683.306 489.098 683.145 487.589C674.498 522.774 687.703 547.545 710.361 549.288C743.468 551.837 783.844 553.683 800.171 549.405C829.936 541.598 840.855 516.798 843.464 512.696C846.072 508.609 869.741 465.352 855.232 423.707C840.723 382.061 815.427 337.838 815.427 337.838L791.319 345.865C791.319 345.865 795.73 366.431 802.721 391.041C810.4 418.096 820.689 460.416 820.117 485.172C819.546 509.928 806.297 526.612 806.297 526.612H696.877C696.877 526.612 694.533 524.269 687.307 503.101Z" fill="black"/>
</g>
<path d="M455.117 484.366L455.894 476.016L655.622 499.014C666.892 500.333 674.733 510.865 672.754 522.042L671.86 527.096L465.142 497.066C458.957 496.173 454.546 490.577 455.117 484.351V484.366Z" fill="#2D3F6B"/>
<g opacity="0.6">
<path opacity="0.6" d="M455.044 484.82L455.821 476.471L655.548 499.469C666.819 500.787 674.659 511.319 672.681 522.496L671.787 527.55L465.069 497.52C458.884 496.627 454.473 491.031 455.044 484.806V484.82Z" fill="black"/>
</g>
<g opacity="0.3">
<path opacity="0.3" d="M843.449 540.206C843.449 540.206 887.416 491.866 896.488 453.868C899.536 453.839 906.63 454.146 910.103 454.879C910.103 454.879 884.104 525.528 843.449 540.206Z" fill="black"/>
</g>
<path d="M895.858 436.846C895.858 436.846 895.96 437.257 896.092 438.062C896.209 438.868 896.444 440.054 896.59 441.593C896.869 444.669 897.059 449.21 896.253 454.718C895.462 460.225 893.571 466.641 890.45 473.292C887.401 479.972 883.18 486.871 878.813 494.093C870.005 508.58 860.2 520.416 853.078 528.883C849.502 533.101 846.541 536.471 844.489 538.8C843.493 539.913 842.701 540.792 842.115 541.451C841.558 542.052 841.265 542.359 841.251 542.345C841.236 542.33 841.485 541.993 841.998 541.349C842.555 540.675 843.317 539.752 844.27 538.595C846.307 536.163 849.15 532.735 852.667 528.531C859.687 519.991 869.389 508.111 878.168 493.697C882.55 486.475 886.756 479.62 889.819 472.999C892.956 466.407 894.876 460.079 895.726 454.644C896.605 449.195 896.502 444.713 896.297 441.636C896.195 440.098 896.004 438.912 895.946 438.092C895.858 437.286 895.828 436.846 895.858 436.846Z" fill="#263238"/>
<path d="M819.839 539.854C819.692 540.001 816.541 537.159 812.804 533.497C809.067 529.835 806.15 526.744 806.297 526.597C806.443 526.451 809.594 529.293 813.346 532.955C817.083 536.617 820 539.708 819.853 539.854H819.839Z" fill="#263238"/>
<path d="M689.359 538.375C689.183 538.287 690.385 535.343 692.583 532.12C694.767 528.883 697.068 526.671 697.2 526.817C697.361 526.964 695.353 529.366 693.213 532.559C691.044 535.738 689.55 538.477 689.359 538.39V538.375Z" fill="#263238"/>
<path d="M604.884 566.28C604.708 566.134 608.035 564.01 610.878 558.663C612.3 556.026 613.457 552.584 613.809 548.629C614.175 544.703 613.604 540.25 611.669 536.119C609.661 532.018 606.569 528.78 603.286 526.583C599.989 524.371 596.589 523.111 593.643 522.555C587.693 521.397 583.955 522.657 583.955 522.423C583.955 522.394 584.175 522.335 584.615 522.232C585.055 522.144 585.685 521.939 586.535 521.866C588.22 521.602 590.726 521.529 593.745 522.042C596.764 522.54 600.282 523.785 603.682 526.012C607.082 528.224 610.292 531.549 612.358 535.797C614.351 540.074 614.908 544.659 614.498 548.702C614.102 552.745 612.842 556.261 611.332 558.927C609.837 561.593 608.196 563.497 606.921 564.64C606.32 565.255 605.763 565.606 605.411 565.899C605.06 566.178 604.869 566.31 604.84 566.28H604.884Z" fill="#263238"/>
<path d="M531.942 550.973C531.737 550.973 531.415 547.823 531.224 543.927C531.034 540.03 531.063 536.866 531.268 536.852C531.473 536.852 531.796 539.986 531.986 543.897C532.177 547.794 532.148 550.958 531.942 550.973Z" fill="#263238"/>
<path d="M537.248 550.987C537.043 551.016 536.471 547.867 535.973 543.971C535.474 540.059 535.24 536.881 535.445 536.851C535.65 536.822 536.222 539.972 536.72 543.883C537.219 547.794 537.453 550.973 537.248 551.002V550.987Z" fill="#263238"/>
<path d="M619.613 415.504C619.613 415.709 595.328 415.885 565.387 415.885C535.445 415.885 511.146 415.709 511.146 415.504C511.146 415.299 535.43 415.123 565.387 415.123C595.343 415.123 619.613 415.299 619.613 415.504Z" fill="#263238"/>
<path d="M540.97 415.43C540.765 415.43 540.589 387.628 540.589 353.35C540.589 319.073 540.765 291.255 540.97 291.255C541.175 291.255 541.351 319.043 541.351 353.35C541.351 387.657 541.175 415.43 540.97 415.43Z" fill="#263238"/>
<path d="M526.11 415.328C525.904 415.328 526.945 387.54 528.425 353.277C529.92 319.014 531.298 291.241 531.503 291.255C531.708 291.255 530.667 319.044 529.187 353.306C527.692 387.569 526.315 415.328 526.11 415.328Z" fill="#263238"/>
<path d="M492.475 584.737C492.475 584.737 492.24 584.532 491.83 584.093C491.434 583.639 490.819 583.009 490.115 582.115C488.664 580.372 486.73 577.706 484.707 574.176C480.662 567.189 476.647 556.261 476.691 543.766C476.749 531.256 480.853 520.372 484.956 513.414C487.008 509.898 488.972 507.247 490.423 505.519C491.126 504.625 491.757 504.01 492.152 503.556C492.563 503.116 492.783 502.896 492.797 502.911C492.812 502.926 492.636 503.189 492.27 503.658C491.918 504.142 491.317 504.786 490.657 505.694C489.28 507.481 487.389 510.162 485.425 513.678C481.468 520.65 477.497 531.417 477.453 543.766C477.409 556.1 481.278 566.91 485.176 573.912C487.111 577.442 488.972 580.138 490.35 581.94C491.009 582.862 491.595 583.522 491.947 583.99C492.314 584.459 492.489 584.723 492.475 584.737Z" fill="#455A64"/>
<path d="M702.432 473.131L701.978 473.995L693.155 490.592L680.785 502.501L705.51 535.401L726.116 531.988C726.116 531.988 723.8 527.286 713.468 526.378L709.511 506.72L724.034 484.22" fill="#455A64"/>
<path d="M680.785 502.486L705.495 535.387L726.101 531.974L723.272 529.264L706.36 531.109L683.409 499.952L680.785 502.486Z" fill="#E0E0E0"/>
<path d="M711.812 517.325C711.694 517.56 710.39 517.091 708.807 517.398C707.21 517.662 706.169 518.57 705.964 518.38C705.744 518.263 706.697 516.827 708.631 516.49C710.566 516.124 711.958 517.135 711.797 517.325H711.812Z" fill="#263238"/>
<path d="M710.668 512.476C710.493 512.652 709.364 511.597 707.679 511.554C705.979 511.495 704.792 512.476 704.63 512.286C704.542 512.198 704.718 511.817 705.246 511.407C705.759 510.997 706.653 510.601 707.708 510.631C708.763 510.66 709.628 511.114 710.112 511.568C710.61 512.008 710.756 512.403 710.668 512.491V512.476Z" fill="#263238"/>
<path d="M709.745 506.163C709.54 506.309 708.631 505.24 707.122 504.976C705.612 504.698 704.396 505.401 704.249 505.182C704.176 505.094 704.396 504.757 704.923 504.449C705.451 504.141 706.316 503.892 707.283 504.068C708.236 504.244 708.968 504.757 709.364 505.225C709.76 505.694 709.848 506.075 709.745 506.148V506.163Z" fill="#263238"/>
<path d="M714.45 500.362C714.215 500.494 713.438 499.41 712.031 498.795C710.639 498.136 709.32 498.267 709.261 498.018C709.159 497.799 710.683 497.169 712.412 497.96C714.142 498.736 714.699 500.289 714.45 500.362Z" fill="#263238"/>
<path d="M716.428 495.689C716.34 495.777 715.519 495.059 714.274 493.829C713.57 493.111 712.852 492.379 712.119 491.646C711.738 491.207 711.255 490.855 710.888 490.138C710.712 489.771 710.654 489.317 710.8 488.863C710.932 488.394 711.474 488.013 711.929 488.013C712.852 487.999 713.424 488.38 714.025 488.687C714.596 489.039 715.094 489.464 715.519 489.903C716.355 490.811 716.839 491.822 717.088 492.701C717.586 494.488 717.176 495.631 717.088 495.587C716.926 495.587 717.088 494.473 716.472 492.906C716.164 492.13 715.666 491.265 714.904 490.489C714.523 490.108 714.069 489.757 713.57 489.464C713.087 489.185 712.456 488.892 712.017 488.922C711.812 488.951 711.724 489.024 711.665 489.171C711.606 489.332 711.621 489.566 711.709 489.757C711.9 490.181 712.368 490.621 712.75 491.06C713.438 491.851 714.098 492.613 714.757 493.375C715.886 494.708 716.531 495.587 716.443 495.675L716.428 495.689Z" fill="#263238"/>
<path d="M717.278 496.173C717.176 496.173 717.073 495.089 717.982 493.668C718.876 492.32 721.045 490.665 723.903 491.558C724.122 491.69 724.313 491.954 724.342 492.247C724.371 492.54 724.298 492.76 724.196 492.935C724.005 493.302 723.756 493.492 723.565 493.712C723.14 494.122 722.701 494.488 722.246 494.781C721.352 495.382 720.444 495.763 719.667 495.982C718.099 496.422 717.073 496.275 717.088 496.173C717.088 496.026 718.055 495.938 719.462 495.367C720.165 495.089 720.971 494.679 721.763 494.078C722.159 493.785 722.554 493.448 722.935 493.067C723.126 492.862 723.316 492.672 723.39 492.511C723.463 492.32 723.448 492.364 723.39 492.32C723.316 492.262 723.023 492.218 722.759 492.203C722.496 492.188 722.232 492.188 721.983 492.203C721.47 492.247 720.986 492.379 720.532 492.555C719.638 492.906 718.964 493.477 718.495 494.049C717.557 495.206 717.41 496.202 717.264 496.173H717.278Z" fill="#263238"/>
<path d="M697.112 499.132C697.332 500.479 696.423 501.754 695.075 501.988C693.726 502.208 692.451 501.3 692.217 499.952C691.997 498.604 692.906 497.33 694.254 497.096C695.602 496.876 696.877 497.784 697.112 499.132Z" fill="#E0E0E0"/>
<path d="M777.469 488.951L784.079 531.842L837.513 523.902C836.444 518.848 807.264 512.711 807.264 512.711L804.157 485.054L777.454 488.951H777.469Z" fill="#455A64"/>
<path d="M790.41 512.857C789.413 513.297 788.871 514.556 789.267 515.567C789.663 516.578 790.952 517.135 791.949 516.724C792.945 516.3 793.649 514.806 793.136 513.839C792.623 512.872 791.084 512.301 790.219 512.945" fill="#E0E0E0"/>
<path d="M784.079 531.842L783.58 527.491L835.007 521.5C835.007 521.5 837.543 522.174 837.528 523.902L784.093 531.842H784.079Z" fill="#E0E0E0"/>
<path d="M808.099 512.315C808.129 512.579 806.839 512.887 805.681 513.927C804.494 514.923 803.996 516.153 803.747 516.08C803.498 516.065 803.659 514.454 805.08 513.223C806.487 511.993 808.114 512.066 808.099 512.315Z" fill="#263238"/>
<path d="M814.05 513.795C814.152 514.044 813.082 514.644 812.364 515.889C811.602 517.105 811.558 518.336 811.294 518.35C811.06 518.424 810.649 516.93 811.573 515.406C812.481 513.883 814.006 513.546 814.05 513.795Z" fill="#263238"/>
<path d="M818.226 520.02C817.992 520.108 817.435 518.863 817.904 517.34C818.344 515.802 819.501 515.055 819.633 515.26C819.809 515.45 819.135 516.329 818.783 517.603C818.402 518.849 818.49 519.962 818.226 520.035V520.02Z" fill="#263238"/>
<path d="M806.692 506.09C806.619 506.339 805.373 506.163 803.908 506.485C802.442 506.778 801.372 507.437 801.197 507.232C801.021 507.071 801.988 505.929 803.717 505.577C805.432 505.211 806.78 505.855 806.692 506.09Z" fill="#263238"/>
<path d="M804.479 499.937C804.494 500.04 803.498 500.362 801.798 500.318C800.962 500.304 799.951 500.172 798.866 499.879C798.324 499.732 797.767 499.542 797.21 499.293C796.946 499.176 796.624 499.058 796.302 498.78C795.979 498.546 795.701 497.887 795.979 497.418C796.199 496.964 796.653 496.715 797.034 496.656C797.43 496.583 797.752 496.612 798.06 496.656C798.676 496.715 799.262 496.832 799.804 496.978C800.889 497.286 801.812 497.755 802.516 498.223C803.923 499.19 804.494 500.098 804.406 500.157C804.304 500.26 803.571 499.527 802.178 498.78C801.475 498.399 800.596 498.033 799.584 497.784C799.072 497.667 798.544 497.579 797.972 497.535C797.386 497.476 796.902 497.535 796.8 497.813C796.756 497.916 796.756 497.96 796.902 498.106C797.049 498.238 797.298 498.355 797.562 498.473C798.075 498.707 798.603 498.912 799.101 499.073C800.097 499.395 801.035 499.586 801.841 499.674C803.439 499.879 804.45 499.791 804.465 499.937H804.479Z" fill="#263238"/>
<path d="M804.186 500.362C804.098 500.421 803.439 499.556 803.102 497.887C802.926 497.052 802.867 496.026 803.028 494.898C803.116 494.342 803.248 493.756 803.468 493.17C803.703 492.598 803.981 491.837 804.978 491.558C805.505 491.456 806.004 491.807 806.209 492.144C806.443 492.481 806.517 492.789 806.634 493.082C806.824 493.697 806.898 494.298 806.898 494.884C806.898 496.041 806.575 497.066 806.165 497.813C805.329 499.351 804.289 499.82 804.245 499.747C804.142 499.63 804.978 498.985 805.579 497.535C805.872 496.817 806.092 495.909 806.048 494.898C806.033 494.4 805.945 493.873 805.769 493.36C805.608 492.803 805.315 492.379 805.11 492.467C804.846 492.496 804.45 492.994 804.304 493.477C804.098 493.99 803.952 494.517 803.849 495.03C803.659 496.041 803.644 496.993 803.732 497.769C803.893 499.351 804.318 500.289 804.186 500.347V500.362Z" fill="#263238"/>
<path d="M735.422 388.199L689.579 488.013L719.857 506.178L783.214 386.075" fill="#263238"/>
<path d="M810.987 508.448L778.099 513.722L758.417 396.329L661.176 403.375C658.597 403.536 656.003 403.316 653.511 402.628C626.193 395.142 629.901 360.352 632.524 354.771L767.078 350.904C781.675 350.479 794.25 361.099 796.272 375.557L810.972 508.433L810.987 508.448Z" fill="#263238"/>
<path d="M631.205 360.294L631.689 310.665C631.689 310.665 625.284 278.394 623.379 265.708C620.433 246.006 616.403 236.661 648.675 222.657L655.724 219.932L666.643 220.079C679.672 221.06 693.389 232.823 693.697 240.63L706.257 352.471L631.176 360.308L631.205 360.294Z" fill="#2D3F6B"/>
<path d="M633.228 234.2C633.228 234.2 624.127 253.799 625.944 271.656L659.901 304.234C667.522 312.701 677.034 316.304 689.212 317.037L759.472 324.712L761.421 306.343L694.576 287.417C691.924 286.934 690.59 284.151 688.553 282.378L633.228 234.214" fill="#2D3F6B"/>
<path d="M627.747 239.854C627.747 239.854 628.128 239.429 629.095 238.946C630.062 238.477 631.586 237.994 633.638 237.671C635.675 237.378 638.255 237.159 641.23 237.686C641.963 237.862 642.739 238.037 643.457 238.448C644.161 238.858 644.835 239.341 645.524 239.854C646.887 240.909 648.25 242.11 649.628 243.443C652.441 246.065 655.109 249.39 658.23 252.759C661.337 256.143 664.767 259.747 668.489 263.54C672.197 267.334 676.198 271.304 680.492 275.406C682.647 277.442 684.86 279.522 687.205 281.558C688.392 282.54 689.564 283.682 690.693 284.751C691.836 285.806 693.14 286.788 694.635 287.066H694.664C714.537 292.691 737.342 299.136 761.509 305.962L761.817 306.05L761.787 306.373C761.655 307.676 761.494 309.083 761.348 310.489C760.835 315.367 760.322 320.201 759.838 324.742L759.794 325.123L759.413 325.079C749.198 323.951 739.247 322.867 729.677 321.812C724.884 321.285 720.195 320.772 715.607 320.259C711.005 319.791 706.521 319.336 702.139 318.897C697.757 318.414 693.507 317.916 689.388 317.315C685.27 316.714 681.269 315.953 677.591 314.576C673.897 313.228 670.6 311.294 667.639 309.244C664.664 307.178 661.968 305.025 659.432 302.901C649.393 294.332 642.021 286.685 636.906 281.47C634.371 278.848 632.422 276.783 631.117 275.376C630.487 274.688 630.004 274.146 629.652 273.765C629.329 273.399 629.168 273.194 629.168 273.194C629.168 273.194 629.359 273.355 629.696 273.707C630.062 274.073 630.56 274.6 631.22 275.274C632.583 276.665 634.561 278.687 637.097 281.28C642.27 286.436 649.701 294.024 659.755 302.52C662.29 304.615 665.001 306.753 667.962 308.79C670.908 310.826 674.161 312.715 677.796 314.019C681.43 315.367 685.373 316.099 689.491 316.685C693.595 317.271 697.845 317.769 702.227 318.238C706.609 318.677 711.093 319.117 715.695 319.571C720.283 320.069 724.987 320.582 729.765 321.094C739.335 322.134 749.286 323.218 759.516 324.332L759.091 324.668C759.574 320.127 760.087 315.293 760.6 310.416C760.747 309.009 760.893 307.603 761.04 306.299L761.318 306.709C737.151 299.854 714.362 293.379 694.489 287.74H694.518C692.788 287.417 691.411 286.333 690.238 285.264C689.051 284.136 687.981 283.082 686.765 282.071C684.42 280.02 682.192 277.925 680.038 275.874C675.759 271.758 671.772 267.759 668.064 263.951C664.371 260.142 660.956 256.524 657.849 253.111C654.728 249.712 652.104 246.387 649.334 243.765C647.971 242.432 646.623 241.231 645.289 240.176C644.615 239.663 643.956 239.165 643.282 238.77C642.622 238.374 641.86 238.199 641.157 238.023C638.255 237.466 635.675 237.657 633.653 237.906C631.616 238.184 630.091 238.623 629.124 239.063C628.157 239.502 627.761 239.898 627.732 239.869L627.747 239.854Z" fill="#263238"/>
<path d="M645.275 176.895L648.69 225.205C649.247 233.086 655.812 239.209 663.726 239.209C672.432 239.209 679.335 231.841 678.763 223.155C678.455 218.555 678.191 214.79 678.191 214.79C678.191 214.79 689.887 212.974 690.033 201.285C690.121 194.532 688.949 179.209 687.952 167.461C687.278 159.522 680.624 153.428 672.652 153.428H665.588C653.409 154.146 644.234 164.751 645.275 176.895Z" fill="#FFBE9D"/>
<path d="M678.206 214.629C678.206 214.629 670.805 215.23 662.95 210.293C662.95 210.293 666.555 218.716 678.235 217.662L678.206 214.629Z" fill="#EB996E"/>
<path d="M685.314 182.49C685.343 183.369 684.625 184.131 683.702 184.175C682.779 184.219 682.017 183.545 681.973 182.666C681.943 181.787 682.661 181.026 683.585 180.982C684.508 180.938 685.285 181.612 685.314 182.49Z" fill="#263238"/>
<path d="M685.93 179.195C685.724 179.414 684.464 178.477 682.661 178.477C680.859 178.462 679.54 179.385 679.349 179.165C679.247 179.063 679.467 178.682 680.038 178.257C680.61 177.847 681.562 177.437 682.691 177.437C683.805 177.437 684.757 177.862 685.299 178.272C685.856 178.697 686.047 179.092 685.944 179.18L685.93 179.195Z" fill="#263238"/>
<path d="M668.431 182.49C668.46 183.369 667.742 184.131 666.819 184.175C665.895 184.219 665.133 183.545 665.089 182.666C665.06 181.787 665.778 181.026 666.701 180.982C667.625 180.938 668.387 181.612 668.431 182.49Z" fill="#263238"/>
<path d="M668.255 179.531C668.05 179.751 666.775 178.814 664.987 178.814C663.184 178.799 661.865 179.722 661.675 179.502C661.587 179.4 661.792 179.019 662.363 178.594C662.935 178.184 663.888 177.774 665.016 177.774C666.13 177.774 667.082 178.198 667.625 178.609C668.182 179.033 668.358 179.429 668.27 179.517L668.255 179.531Z" fill="#263238"/>
<path d="M674.777 192.862C674.777 192.759 675.891 192.569 677.693 192.334C678.148 192.29 678.587 192.202 678.66 191.88C678.763 191.543 678.572 191.06 678.353 190.518C677.928 189.405 677.473 188.247 676.99 187.017C675.099 182.036 673.736 177.949 673.941 177.876C674.147 177.803 675.832 181.773 677.722 186.753C678.177 187.984 678.616 189.156 679.027 190.269C679.203 190.796 679.496 191.382 679.261 192.071C679.144 192.408 678.807 192.657 678.514 192.744C678.221 192.832 677.957 192.832 677.737 192.847C675.92 192.949 674.777 192.949 674.777 192.847V192.862Z" fill="#263238"/>
<path d="M669.486 194.107C669.779 194.092 669.779 196.04 671.45 197.432C673.121 198.824 675.202 198.604 675.216 198.867C675.246 198.985 674.747 199.248 673.868 199.278C673.003 199.307 671.743 199.029 670.732 198.179C669.706 197.329 669.281 196.201 669.208 195.396C669.134 194.575 669.354 194.092 669.486 194.107Z" fill="#263238"/>
<path d="M668.724 172.486C668.548 172.969 666.745 172.749 664.65 172.998C662.539 173.203 660.839 173.833 660.561 173.394C660.429 173.189 660.737 172.72 661.425 172.251C662.1 171.782 663.199 171.328 664.459 171.182C665.72 171.05 666.892 171.24 667.654 171.563C668.431 171.87 668.812 172.251 668.739 172.486H668.724Z" fill="#263238"/>
<path d="M685.27 173.994C684.948 174.405 683.717 173.98 682.222 173.965C680.727 173.892 679.467 174.243 679.188 173.819C679.056 173.614 679.261 173.203 679.804 172.823C680.346 172.442 681.255 172.119 682.28 172.149C683.306 172.178 684.186 172.544 684.713 172.969C685.241 173.394 685.417 173.804 685.27 174.009V173.994Z" fill="#263238"/>
<path d="M649.217 185.684C649.012 185.596 641.186 183.311 641.435 191.309C641.684 199.307 649.672 197.403 649.672 197.168C649.672 196.934 649.217 185.684 649.217 185.684Z" fill="#FFBE9D"/>
<path d="M647.136 194.209C647.136 194.209 647.004 194.312 646.77 194.429C646.55 194.546 646.154 194.619 645.729 194.488C644.879 194.209 644.117 192.891 644.029 191.441C643.985 190.708 644.117 190.02 644.352 189.434C644.571 188.848 644.938 188.423 645.363 188.335C645.788 188.218 646.096 188.467 646.198 188.687C646.315 188.907 646.271 189.068 646.315 189.082C646.345 189.097 646.477 188.936 646.403 188.614C646.359 188.452 646.271 188.277 646.066 188.116C645.876 187.969 645.583 187.896 645.289 187.94C644.674 187.998 644.132 188.584 643.868 189.229C643.575 189.873 643.414 190.65 643.458 191.47C643.56 193.081 644.439 194.561 645.597 194.854C646.169 194.986 646.623 194.795 646.858 194.605C647.092 194.4 647.136 194.224 647.107 194.209H647.136Z" fill="#EB996E"/>
<path d="M644.777 185.406C645.993 185.113 648.103 186.241 648.631 187.383C649.159 188.526 649.261 189.815 649.789 190.957C650.302 192.1 651.474 193.125 652.705 192.847C653.541 192.642 654.156 191.866 654.376 191.016C654.596 190.181 654.508 189.302 654.405 188.438C653.936 184.702 653.145 180.996 652.998 177.246C652.852 173.482 653.379 169.585 655.358 166.377C657.336 163.169 660.956 160.811 664.708 161.118C667.2 161.324 669.471 162.613 671.948 162.964C674.879 163.374 677.972 162.334 680.067 160.254C680.331 159.99 681.592 159.17 681.592 159.17C681.592 158.98 681.416 157.31 680.756 156.695C675.861 152.168 667.024 150.908 660.561 152.534C654.083 154.16 648.015 158.731 645.231 164.795C642.446 170.86 643.267 179.283 644.806 185.42" fill="#263238"/>
<path d="M688.084 165.659C688.084 165.659 657.395 155.786 644.117 182.329C644.117 182.329 642.138 175.694 642.138 172.134C642.138 169.761 643.56 155.596 658.143 151.143C658.143 151.143 680.111 142.764 688.099 165.674L688.084 165.659Z" fill="#2D3F6B"/>
<path d="M661.704 166.333C662.788 168.091 664.723 169.278 666.775 169.468C668.826 169.658 670.952 168.823 672.329 167.3C672.93 168.809 674.557 169.849 676.184 169.761C677.81 169.673 679.32 168.472 679.76 166.905C680.654 167.769 681.577 168.662 682.749 169.087C683.922 169.512 685.387 169.351 686.164 168.369C686.941 167.373 686.721 165.865 685.959 164.854C685.197 163.843 684.01 163.242 682.852 162.759C679.203 161.236 675.187 160.474 671.274 161.001C667.361 161.529 663.565 163.433 661.118 166.524" fill="#263238"/>
<g opacity="0.4">
<path opacity="0.4" d="M687.952 165.659C687.952 165.659 684.464 161.499 678.191 161.236C669.134 160.84 652.192 165.923 643.985 182.344C643.985 182.344 642.007 175.708 642.007 172.149C642.007 169.776 643.428 155.611 658.011 151.157C658.011 151.157 679.979 142.779 687.967 165.689L687.952 165.659Z" fill="black"/>
</g>
<path d="M645.392 179.224C649.95 172.266 656.223 166.509 663.272 162.1C670.321 157.691 681.987 153.34 690.033 151.201C692.451 150.557 694.958 150 697.42 150.425C699.882 150.85 702.285 152.49 702.901 154.907C703.663 157.94 698.284 162.613 695.764 164.444C693.243 166.289 688.084 168.985 688.084 168.985C688.084 168.985 688.157 163.36 679.159 162.202C666.921 160.62 645.407 179.209 645.407 179.209L645.392 179.224Z" fill="#2D3F6B"/>
<g opacity="0.3">
<path opacity="0.3" d="M634.591 278.907C637.756 286.539 640.951 295.958 645.539 302.828C650.126 309.698 656.252 315.792 663.888 318.985C673.458 322.984 684.787 323.643 694.313 319.527C695.089 319.19 696.614 318.765 696.467 317.93C696.467 317.93 693.316 317.579 692.334 317.418C673.077 314.166 670.996 311.793 661.777 304.512C656.032 299.971 643.296 286.246 634.591 278.907Z" fill="black"/>
</g>
<path d="M695.778 334.483C695.778 334.483 695.573 335.157 694.972 336.27C694.386 337.383 693.375 338.921 691.865 340.606C688.875 344.004 683.57 347.681 676.96 349.717C670.351 351.754 664.078 352.12 659.608 352.31C657.366 352.398 655.548 352.413 654.303 352.413C653.042 352.413 652.354 352.383 652.354 352.325C652.354 352.266 653.042 352.208 654.288 352.12C655.695 352.032 657.468 351.915 659.579 351.783C664.019 351.461 670.233 350.992 676.741 349C683.233 346.993 688.465 343.477 691.484 340.24C694.562 337.017 695.646 334.395 695.793 334.483H695.778Z" fill="#263238"/>
<path d="M778.7 517.222C778.7 517.222 778.641 517.076 778.583 516.768C778.51 516.417 778.422 515.977 778.319 515.421C778.099 514.19 777.777 512.447 777.381 510.221C776.59 505.65 775.446 499.132 774.054 491.09C771.314 474.888 767.532 452.579 763.356 427.94C761.494 416.793 759.721 406.114 758.094 396.373L758.475 396.666C741.401 397.911 726.79 398.98 716.399 399.742C711.269 400.093 707.18 400.372 704.323 400.562C702.96 400.635 701.89 400.709 701.098 400.753C700.761 400.753 700.483 400.782 700.263 400.782C700.072 400.782 699.984 400.782 699.984 400.782C699.984 400.782 700.072 400.753 700.263 400.723C700.483 400.694 700.761 400.665 701.084 400.635C701.86 400.562 702.93 400.46 704.293 400.328C707.151 400.079 711.24 399.742 716.355 399.302C726.731 398.482 741.328 397.31 758.402 395.948L758.724 395.919L758.783 396.241C760.424 405.967 762.227 416.646 764.103 427.794C768.192 452.447 771.9 474.771 774.582 490.987C775.886 499.044 776.941 505.577 777.674 510.147C778.011 512.374 778.29 514.117 778.48 515.362C778.554 515.933 778.627 516.373 778.671 516.724C778.715 517.032 778.729 517.193 778.715 517.193L778.7 517.222Z" fill="#455A64"/>
<path d="M768.295 385.87C768.427 386.046 765.877 388.243 762.96 391.202C760.044 394.146 757.889 396.754 757.713 396.607C757.552 396.49 759.457 393.648 762.418 390.66C765.363 387.657 768.177 385.709 768.295 385.855V385.87Z" fill="#455A64"/>
<path d="M678.47 224.195C678.47 224.195 678.558 224.356 678.646 224.678C678.748 225 678.836 225.484 678.924 226.114C679.071 227.373 678.998 229.278 678.206 231.446C677.415 233.584 675.876 235.987 673.384 237.788C670.908 239.59 667.478 240.528 663.975 240.293C660.458 240.059 657.234 238.741 654.845 236.88C652.427 235.035 650.771 232.808 649.657 230.83C648.558 228.824 647.971 227.08 647.678 225.85C647.532 225.235 647.429 224.751 647.385 224.429C647.341 224.107 647.327 223.931 647.356 223.916C647.517 223.858 647.883 226.714 650.14 230.567C651.284 232.456 652.94 234.58 655.285 236.324C657.6 238.081 660.693 239.312 664.049 239.546C667.39 239.766 670.629 238.887 673.003 237.217C675.392 235.562 676.902 233.291 677.737 231.255C678.543 229.204 678.719 227.373 678.66 226.143C678.616 224.898 678.426 224.224 678.499 224.209L678.47 224.195Z" fill="#263238"/>
<path d="M699.134 288.165C699.134 288.165 698.973 287.623 698.827 286.641C698.665 285.484 698.46 284.092 698.24 282.452C697.757 278.716 697.127 273.912 696.438 268.609C695.778 263.189 695.251 258.282 694.928 254.722C694.767 252.935 694.65 251.499 694.591 250.503C694.533 249.507 694.518 248.951 694.577 248.951C694.635 248.951 694.738 249.493 694.884 250.474C695.046 251.631 695.236 253.023 695.456 254.664C695.925 258.399 696.526 263.204 697.185 268.521C697.845 273.926 698.416 278.833 698.768 282.393C698.944 284.18 699.061 285.616 699.12 286.612C699.178 287.608 699.193 288.165 699.134 288.165Z" fill="#263238"/>
</g>
<defs>
<clipPath id="clip0_208_16">
<rect width="1026" height="604" fill="white"/>
</clipPath>
</defs>
</svg>
