<svg width="34" height="27" viewBox="0 0 34 27" fill="none" xmlns="http://www.w3.org/2000/svg">
<path d="M29.75 0H4.25C3.1232 0.00121824 2.0429 0.454165 1.24613 1.25946C0.449359 2.06475 0.00120535 3.1566 0 4.29545V22.7045C0.00120535 23.8434 0.449359 24.9353 1.24613 25.7405C2.0429 26.5458 3.1232 26.9988 4.25 27H29.75C30.8768 26.9988 31.9571 26.5458 32.7539 25.7405C33.5506 24.9353 33.9988 23.8434 34 22.7045V4.29545C33.9988 3.1566 33.5506 2.06475 32.7539 1.25946C31.9571 0.454165 30.8768 0.00121824 29.75 0ZM28.6738 7.10514L17.7453 15.6961C17.5322 15.8635 17.2699 15.9544 17 15.9544C16.7301 15.9544 16.4678 15.8635 16.2547 15.6961L5.32616 7.10514C5.19776 7.00714 5.08991 6.88432 5.00888 6.74383C4.92785 6.60334 4.87525 6.44797 4.85414 6.28675C4.83304 6.12554 4.84384 5.96169 4.88593 5.80473C4.92802 5.64777 5.00055 5.50083 5.09932 5.37245C5.19808 5.24407 5.3211 5.1368 5.46123 5.05689C5.60137 4.97698 5.75582 4.92601 5.91561 4.90695C6.0754 4.88789 6.23735 4.90111 6.39204 4.94586C6.54673 4.9906 6.69108 5.06597 6.8167 5.16758L17 13.1725L27.1833 5.16758C27.4379 4.97323 27.758 4.88799 28.0744 4.9303C28.3907 4.9726 28.6778 5.13905 28.8737 5.39365C29.0696 5.64825 29.1584 5.97054 29.121 6.29082C29.0836 6.6111 28.923 6.90362 28.6738 7.10514Z" fill="#F5F5F5"/>
</svg>
