<svg width="40" height="46" viewBox="0 0 40 46" fill="none" xmlns="http://www.w3.org/2000/svg">
<circle cx="20" cy="23" r="20" fill="white"/>
<path d="M25.9963 26.975C25.9963 27.8417 25.7713 28.6583 25.3213 29.425C24.888 30.175 24.238 30.8 23.3713 31.3C22.5213 31.7833 21.513 32.0667 20.3463 32.15V34.175H18.7463V32.125C17.0796 31.975 15.738 31.475 14.7213 30.625C13.7046 29.7583 13.1796 28.5917 13.1463 27.125H16.8963C16.9963 28.325 17.613 29.05 18.7463 29.3V24.525C17.5463 24.225 16.5796 23.925 15.8463 23.625C15.113 23.325 14.4796 22.8417 13.9463 22.175C13.413 21.5083 13.1463 20.6 13.1463 19.45C13.1463 18 13.663 16.8167 14.6963 15.9C15.7463 14.9833 17.0963 14.4583 18.7463 14.325V12.3H20.3463V14.325C21.9463 14.4583 23.2213 14.9417 24.1713 15.775C25.138 16.6083 25.6796 17.7583 25.7963 19.225H22.0213C21.9713 18.7417 21.7963 18.325 21.4963 17.975C21.213 17.6083 20.8296 17.35 20.3463 17.2V21.925C21.5963 22.2417 22.5796 22.55 23.2963 22.85C24.0296 23.1333 24.663 23.6083 25.1963 24.275C25.7296 24.925 25.9963 25.825 25.9963 26.975ZM16.7963 19.275C16.7963 19.825 16.963 20.275 17.2963 20.625C17.6296 20.9583 18.113 21.2333 18.7463 21.45V17.125C18.1463 17.2083 17.6713 17.4333 17.3213 17.8C16.9713 18.1667 16.7963 18.6583 16.7963 19.275ZM20.3463 29.35C20.9796 29.2333 21.4713 28.975 21.8213 28.575C22.188 28.175 22.3713 27.6917 22.3713 27.125C22.3713 26.575 22.1963 26.1333 21.8463 25.8C21.4963 25.4667 20.9963 25.1917 20.3463 24.975V29.35Z" fill="#2D3F6B"/>
</svg>
