<svg width="40" height="40" viewBox="0 0 40 40" fill="none" xmlns="http://www.w3.org/2000/svg">
<circle cx="20" cy="20" r="20" fill="white"/>
<path d="M29.3001 27.7143H28.7751C28.7287 27.7143 28.6841 27.6974 28.6513 27.6672C28.6185 27.6371 28.6001 27.5962 28.6001 27.5536V20.7035C28.6005 20.678 28.5942 20.6527 28.5818 20.6298C28.5694 20.6069 28.5513 20.587 28.5289 20.5718C28.5065 20.5567 28.4804 20.5466 28.4529 20.5426C28.4254 20.5385 28.3973 20.5405 28.3708 20.5484C27.9693 20.6643 27.5524 20.7289 27.1318 20.7405C27.0802 20.7405 27.0312 20.7425 26.983 20.7425C26.174 20.7443 25.3779 20.5556 24.6708 20.1945C24.6173 20.1671 24.5571 20.1528 24.4958 20.1528C24.4346 20.1528 24.3744 20.1671 24.3208 20.1945C23.6139 20.5556 22.818 20.7443 22.009 20.7425C21.2046 20.7435 20.4138 20.5526 19.7139 20.1884C19.6599 20.1604 19.599 20.1456 19.5369 20.1456C19.4749 20.1456 19.4139 20.1604 19.36 20.1884C18.6496 20.554 17.8485 20.745 17.0342 20.7429C16.2244 20.7434 15.4285 20.5495 14.7255 20.1804C14.6711 20.152 14.6096 20.137 14.547 20.137C14.4844 20.137 14.4229 20.152 14.3685 20.1804C13.6654 20.5495 12.8695 20.7434 12.0597 20.7429C12.0121 20.7429 11.9639 20.7429 11.9123 20.7409H11.9097C11.4743 20.7289 11.0429 20.66 10.6287 20.5364C10.6024 20.5286 10.5746 20.5266 10.5473 20.5306C10.5201 20.5346 10.4943 20.5444 10.472 20.5593C10.4497 20.5742 10.4315 20.5937 10.419 20.6162C10.4064 20.6388 10.3999 20.6637 10.3999 20.6891V27.5536C10.3999 27.5962 10.3814 27.6371 10.3486 27.6672C10.3158 27.6974 10.2713 27.7143 10.2248 27.7143H9.72172C9.34371 27.7143 9.01733 27.9811 9.00071 28.3282C8.99645 28.415 9.01138 28.5016 9.0446 28.5829C9.07781 28.6642 9.12862 28.7385 9.19396 28.8013C9.25929 28.8641 9.3378 28.9141 9.42475 28.9482C9.5117 28.9824 9.60528 29 9.69984 29H29.2782C29.6562 29 29.9826 28.7332 29.9992 28.3861C30.0035 28.2993 29.9885 28.2127 29.9553 28.1314C29.9221 28.05 29.8713 27.9758 29.806 27.913C29.7406 27.8502 29.6621 27.8002 29.5752 27.7661C29.4882 27.7319 29.3946 27.7143 29.3001 27.7143V27.7143ZM18.0999 24.9821C18.0999 25.0248 18.0815 25.0656 18.0487 25.0958C18.0159 25.1259 17.9714 25.1429 17.9249 25.1429H14.0749C14.0285 25.1429 13.984 25.1259 13.9511 25.0958C13.9183 25.0656 13.8999 25.0248 13.8999 24.9821V22.4107C13.8999 22.2828 13.9552 22.1602 14.0537 22.0698C14.1521 21.9794 14.2857 21.9286 14.4249 21.9286H17.5749C17.7142 21.9286 17.8477 21.9794 17.9462 22.0698C18.0446 22.1602 18.0999 22.2828 18.0999 22.4107V24.9821ZM24.925 27.7143H21.775C21.7286 27.7143 21.6841 27.6974 21.6512 27.6672C21.6184 27.6371 21.6 27.5962 21.6 27.5536V22.4107C21.6 22.2828 21.6553 22.1602 21.7538 22.0698C21.8522 21.9794 21.9857 21.9286 22.125 21.9286H24.575C24.7143 21.9286 24.8478 21.9794 24.9463 22.0698C25.0447 22.1602 25.1 22.2828 25.1 22.4107V27.5536C25.1 27.5962 25.0816 27.6371 25.0488 27.6672C25.0159 27.6974 24.9714 27.7143 24.925 27.7143ZM29.85 16.5559L27.9722 12.5987C27.4805 11.6276 26.3574 11 25.111 11H13.8868C12.6403 11 11.5172 11.6276 11.0255 12.5987L9.14771 16.5559C8.75396 17.3358 9.27415 18.1365 9.27459 18.1369L9.28684 18.155C9.30828 18.1863 9.34634 18.2354 9.36953 18.2667C9.37171 18.2691 9.37346 18.2719 9.37565 18.2747L9.5944 18.5178C9.60258 18.527 9.61135 18.5357 9.62065 18.5439L9.83941 18.738L9.85778 18.7525C9.98625 18.8536 10.1237 18.9447 10.2686 19.0249V19.0269C10.7447 19.2918 11.2872 19.4394 11.8436 19.4556H11.9517C12.7936 19.457 13.6048 19.1654 14.2219 18.6396L14.2363 18.6271C14.3008 18.5713 14.386 18.5403 14.4746 18.5403C14.5631 18.5403 14.6483 18.5713 14.7128 18.6271L14.7272 18.6396C15.3509 19.1645 16.1662 19.4558 17.0123 19.4558C17.8584 19.4558 18.6737 19.1645 19.2974 18.6396C19.3621 18.5845 19.447 18.554 19.5352 18.554C19.6233 18.554 19.7083 18.5845 19.773 18.6396C20.3948 19.1629 21.2072 19.454 22.0506 19.4557C22.8941 19.4574 23.7078 19.1696 24.3322 18.6488C24.3959 18.5946 24.4796 18.5645 24.5665 18.5645C24.6534 18.5645 24.737 18.5946 24.8008 18.6488C25.4258 19.1728 26.2431 19.4609 27.0894 19.4556H27.1983C27.7407 19.437 28.2685 19.2888 28.7296 19.0257C28.7711 19.0028 28.8109 18.9787 28.8512 18.9546C29.1621 18.762 29.4328 18.5196 29.6501 18.239L29.7262 18.1333C29.7338 18.1226 29.7408 18.1113 29.7472 18.0996C29.8198 17.9637 30.2092 17.2654 29.85 16.5559V16.5559Z" fill="#2D3F6B"/>
</svg>
